{
.appVersion = "1141";
customParameters = (
{
name = vendorID;
value = "    ";
},
{
name = panose;
value = (
0,
0,
0,
0,
0,
0,
0,
0,
0,
0
);
},
{
name = unicodeRanges;
value = (
0
);
}
);
date = "2017-02-24 23:39:03 +0000";
disablesAutomaticAlignment = 1;
disablesNiceNames = 1;
familyName = "Nicholson Gothic";
fontMaster = (
{
alignmentZones = (
"{750, 1}",
"{715, 1}"
);
ascender = 820;
capHeight = 715;
customParameters = (
{
name = typoAscender;
value = 750;
},
{
name = typoDescender;
value = -250;
},
{
name = typoLineGap;
value = 100;
},
{
name = winAscent;
value = 750;
},
{
name = winDescent;
value = 250;
},
{
name = hheaAscender;
value = 800;
},
{
name = hheaDescender;
value = -300;
},
{
name = underlinePosition;
value = -125;
}
);
descender = -250;
iconName = Extended;
id = "94E4BE91-FC80-477F-8032-C50F6AA25321";
userData = {
GSOffsetHorizontal = 5;
GSOffsetVertical = 5;
};
visible = 1;
weightValue = 72;
widthValue = 5;
xHeight = 500;
},
{
ascender = 820;
capHeight = 700;
custom = Heavy;
descender = -250;
iconName = Bold_SemiExtended;
id = "1E834396-7C72-44CF-B9BE-DF3A8E7FF23F";
userData = {
GSOffsetHorizontal = 40;
GSOffsetVertical = 40;
};
visible = 1;
xHeight = 500;
},
{
ascender = 800;
capHeight = 700;
custom = bg;
descender = -200;
id = "0E4D5491-561A-4208-9CE2-EBBE0132EEC6";
userData = {
GSOffsetHorizontal = -5;
GSOffsetVertical = -5;
};
visible = 1;
xHeight = 500;
}
);
glyphs = (
{
glyphname = A;
lastChange = "2018-09-14 14:26:23 +0000";
layers = (
{
hints = (
{
horizontal = 1;
place = "{0, 750}";
type = Stem;
},
{
place = "{37, 545}";
type = Stem;
}
);
layerId = "94E4BE91-FC80-477F-8032-C50F6AA25321";
paths = (
{
closed = 1;
nodes = (
"408 283 OFFCURVE",
"318 283 OFFCURVE",
"227 286 CURVE",
"272 386 OFFCURVE",
"314 487 OFFCURVE",
"353 587 CURVE",
"399 487 OFFCURVE",
"447 386 OFFCURVE",
"499 286 CURVE"
);
},
{
closed = 1;
nodes = (
"307 218 OFFCURVE",
"420 218 OFFCURVE",
"532 215 CURVE",
"639 0 LINE",
"662 11 OFFCURVE",
"685 19 OFFCURVE",
"708 24 CURVE",
"588 263 OFFCURVE",
"470 505 OFFCURVE",
"352 748 CURVE",
"246 505 OFFCURVE",
"138 263 OFFCURVE",
"30 24 CURVE",
"53 19 OFFCURVE",
"76 11 OFFCURVE",
"99 0 CURVE",
"195 215 LINE"
);
}
);
width = 738;
},
{
associatedMasterId = "94E4BE91-FC80-477F-8032-C50F6AA25321";
layerId = "826BB18A-9EF8-47E4-AF71-ABF09D128FA7";
width = 600;
},
{
layerId = "1E834396-7C72-44CF-B9BE-DF3A8E7FF23F";
paths = (
{
closed = 1;
nodes = (
"272 272 LINE",
"345 507 LINE",
"424 272 LINE"
);
},
{
closed = 1;
nodes = (
"392 105 OFFCURVE",
"305 105 OFFCURVE",
"467 105 CURVE",
"524 0 LINE",
"580 3 OFFCURVE",
"637 3 OFFCURVE",
"693 0 CURVE",
"599 238 OFFCURVE",
"508 512 OFFCURVE",
"420 750 CURVE",
"369 747 OFFCURVE",
"317 747 OFFCURVE",
"266 750 CURVE",
"185 512 OFFCURVE",
"102 238 OFFCURVE",
"15 0 CURVE",
"71 3 OFFCURVE",
"128 3 OFFCURVE",
"184 0 CURVE",
"230 105 LINE"
);
}
);
width = 708;
},
{
associatedMasterId = "94E4BE91-FC80-477F-8032-C50F6AA25321";
layerId = "9D8030CA-8A89-40D5-8186-0B08A255CDBC";
width = 600;
},
{
layerId = "0E4D5491-561A-4208-9CE2-EBBE0132EEC6";
width = 600;
}
);
leftKerningGroup = A;
note = A;
rightKerningGroup = A;
unicode = 0041;
},
{
glyphname = AE;
lastChange = "2018-09-11 15:25:05 +0000";
layers = (
{
layerId = "94E4BE91-FC80-477F-8032-C50F6AA25321";
paths = (
{
closed = 1;
nodes = (
"521 143 OFFCURVE",
"521 212 OFFCURVE",
"524 280 CURVE",
"628 283 OFFCURVE",
"731 283 OFFCURVE",
"835 280 CURVE",
"840 303 OFFCURVE",
"848 327 OFFCURVE",
"859 350 CURVE",
"747 347 OFFCURVE",
"636 347 OFFCURVE",
"524 350 CURVE",
"521 458 OFFCURVE",
"521 567 OFFCURVE",
"524 675 CURVE",
"647 678 OFFCURVE",
"770 678 OFFCURVE",
"893 675 CURVE",
"898 698 OFFCURVE",
"906 727 OFFCURVE",
"917 750 CURVE",
"759 747 OFFCURVE",
"600 747 OFFCURVE",
"442 748 CURVE",
"310 507 OFFCURVE",
"172 265 OFFCURVE",
"30 24 CURVE",
"53 19 OFFCURVE",
"76 11 OFFCURVE",
"99 0 CURVE",
"148 94 OFFCURVE",
"199 186 OFFCURVE",
"254 276 CURVE",
"320 279 OFFCURVE",
"386 279 OFFCURVE",
"452 276 CURVE",
"452 196 OFFCURVE",
"451 108 OFFCURVE",
"450 5 CURVE",
"598 8 OFFCURVE",
"745 8 OFFCURVE",
"893 5 CURVE",
"898 29 OFFCURVE",
"906 54 OFFCURVE",
"917 78 CURVE",
"786 74 OFFCURVE",
"655 73 OFFCURVE",
"524 75 CURVE"
);
},
{
closed = 1;
nodes = (
"338 445 OFFCURVE",
"393 541 OFFCURVE",
"451 633 CURVE",
"452 533 OFFCURVE",
"452 444 OFFCURVE",
"452 347 CURVE",
"397 344 OFFCURVE",
"341 344 OFFCURVE",
"286 347 CURVE"
);
}
);
width = 977;
},
{
layerId = "1E834396-7C72-44CF-B9BE-DF3A8E7FF23F";
paths = (
{
closed = 1;
nodes = (
"687 227 LINE",
"791 230 OFFCURVE",
"794 230 OFFCURVE",
"898 227 CURVE",
"903 250 OFFCURVE",
"911 364 OFFCURVE",
"922 387 CURVE",
"810 384 OFFCURVE",
"799 384 OFFCURVE",
"687 387 CURVE",
"687 580 LINE",
"810 583 OFFCURVE",
"833 583 OFFCURVE",
"956 580 CURVE",
"961 603 OFFCURVE",
"969 727 OFFCURVE",
"980 750 CURVE",
"875 748 OFFCURVE",
"535 750 OFFCURVE",
"500 750 CURVE",
"2 6 LINE",
"59 5 OFFCURVE",
"139 2 OFFCURVE",
"194 -4 CURVE",
"346 225 LINE",
"529 225 LINE",
"529 0 LINE",
"671 3 OFFCURVE",
"814 3 OFFCURVE",
"956 0 CURVE",
"961 24 OFFCURVE",
"969 154 OFFCURVE",
"980 178 CURVE",
"849 174 OFFCURVE",
"818 173 OFFCURVE",
"687 175 CURVE"
);
},
{
closed = 1;
nodes = (
"428 382 LINE",
"531 547 LINE",
"529 382 LINE"
);
}
);
width = 1030;
},
{
layerId = "0E4D5491-561A-4208-9CE2-EBBE0132EEC6";
width = 600;
}
);
leftKerningGroup = A;
unicode = 00C6;
},
{
glyphname = B;
lastChange = "2018-09-08 16:43:52 +0000";
layers = (
{
hints = (
{
horizontal = 1;
place = "{-3, 760}";
type = Stem;
},
{
place = "{125, 277}";
type = Stem;
},
{
horizontal = 1;
place = "{400, 287}";
type = Stem;
},
{
place = "{125, 323}";
type = Stem;
}
);
layerId = "94E4BE91-FC80-477F-8032-C50F6AA25321";
paths = (
{
closed = 1;
nodes = (
"144 687 LINE",
"185 687 OFFCURVE",
"239 687 OFFCURVE",
"239 687 CURVE",
"338 687 OFFCURVE",
"421 661 OFFCURVE",
"421 557 CURVE",
"421 422 OFFCURVE",
"280 416 OFFCURVE",
"208 416 CURVE",
"144 416 LINE"
);
},
{
closed = 1;
nodes = (
"346 356 OFFCURVE",
"467 332 OFFCURVE",
"467 215 CURVE",
"467 123 OFFCURVE",
"392 67 OFFCURVE",
"266 67 CURVE",
"249 67 OFFCURVE",
"189 68 OFFCURVE",
"144 68 CURVE",
"144 356 LINE",
"194 356 LINE",
"208 356 OFFCURVE",
"222 356 OFFCURVE",
"237 357 CURVE"
);
},
{
closed = 1;
nodes = (
"186 3 OFFCURVE",
"264 0 OFFCURVE",
"291 0 CURVE",
"433 0 OFFCURVE",
"541 84 OFFCURVE",
"541 217 CURVE",
"541 308 OFFCURVE",
"480 380 OFFCURVE",
"403 401 CURVE",
"450 431 OFFCURVE",
"493 481 OFFCURVE",
"493 557 CURVE",
"493 703 OFFCURVE",
"369 750 OFFCURVE",
"278 750 CURVE",
"274 750 OFFCURVE",
"170 750 OFFCURVE",
"70 749 CURVE",
"73 499 OFFCURVE",
"73 250 OFFCURVE",
"70 0 CURVE"
);
}
);
width = 581;
},
{
associatedMasterId = "94E4BE91-FC80-477F-8032-C50F6AA25321";
layerId = "826BB18A-9EF8-47E4-AF71-ABF09D128FA7";
width = 600;
},
{
layerId = "1E834396-7C72-44CF-B9BE-DF3A8E7FF23F";
paths = (
{
closed = 1;
nodes = (
"197 608 LINE",
"229 608 LINE",
"270 608 OFFCURVE",
"309 586 OFFCURVE",
"309 546 CURVE",
"309 508 OFFCURVE",
"272 476 OFFCURVE",
"232 476 CURVE",
"222 476 OFFCURVE",
"209 476 OFFCURVE",
"197 476 CURVE"
);
},
{
closed = 1;
nodes = (
"213 297 OFFCURVE",
"227 297 OFFCURVE",
"227 297 CURVE",
"294 297 OFFCURVE",
"334 266 OFFCURVE",
"334 223 CURVE",
"334 177 OFFCURVE",
"290 149 OFFCURVE",
"245 149 CURVE",
"233 149 OFFCURVE",
"222 149 OFFCURVE",
"209 149 CURVE",
"197 149 LINE",
"197 297 LINE"
);
},
{
closed = 1;
nodes = (
"146 3 OFFCURVE",
"224 0 OFFCURVE",
"251 0 CURVE",
"393 0 OFFCURVE",
"521 84 OFFCURVE",
"521 221 CURVE",
"521 308 OFFCURVE",
"470 380 OFFCURVE",
"393 401 CURVE",
"440 431 OFFCURVE",
"473 481 OFFCURVE",
"473 553 CURVE",
"473 703 OFFCURVE",
"329 750 OFFCURVE",
"254 750 CURVE",
"30 749 LINE",
"33 499 OFFCURVE",
"33 250 OFFCURVE",
"30 0 CURVE"
);
}
);
width = 541;
},
{
associatedMasterId = "94E4BE91-FC80-477F-8032-C50F6AA25321";
layerId = "9D8030CA-8A89-40D5-8186-0B08A255CDBC";
width = 600;
},
{
layerId = "0E4D5491-561A-4208-9CE2-EBBE0132EEC6";
width = 600;
}
);
note = B;
unicode = 0042;
},
{
glyphname = C;
lastChange = "2018-09-14 14:21:31 +0000";
layers = (
{
hints = (
{
horizontal = 1;
place = "{-7, 763}";
type = Stem;
},
{
place = "{46, 507}";
type = Stem;
}
);
layerId = "94E4BE91-FC80-477F-8032-C50F6AA25321";
paths = (
{
closed = 1;
nodes = (
"310 64 OFFCURVE",
"116 150 OFFCURVE",
"116 374 CURVE SMOOTH",
"116 599 OFFCURVE",
"310 686 OFFCURVE",
"406 686 CURVE SMOOTH",
"469 686 OFFCURVE",
"587 649 OFFCURVE",
"634 558 CURVE",
"655 568 OFFCURVE",
"676 578 OFFCURVE",
"699 590 CURVE",
"647 692 OFFCURVE",
"518 756 OFFCURVE",
"405 756 CURVE SMOOTH",
"227 756 OFFCURVE",
"42 592 OFFCURVE",
"42 376 CURVE SMOOTH",
"42 160 OFFCURVE",
"227 -7 OFFCURVE",
"405 -7 CURVE SMOOTH",
"516 -7 OFFCURVE",
"644 57 OFFCURVE",
"696 157 CURVE",
"678 173 OFFCURVE",
"660 190 OFFCURVE",
"642 208 CURVE",
"596 106 OFFCURVE",
"473 64 OFFCURVE",
"406 64 CURVE SMOOTH"
);
}
);
width = 741;
},
{
associatedMasterId = "94E4BE91-FC80-477F-8032-C50F6AA25321";
layerId = "826BB18A-9EF8-47E4-AF71-ABF09D128FA7";
width = 600;
},
{
layerId = "1E834396-7C72-44CF-B9BE-DF3A8E7FF23F";
paths = (
{
closed = 1;
nodes = (
"579 277 LINE",
"544 208 OFFCURVE",
"473 164 OFFCURVE",
"398 164 CURVE SMOOTH",
"292 164 OFFCURVE",
"194 250 OFFCURVE",
"194 374 CURVE SMOOTH",
"194 499 OFFCURVE",
"292 586 OFFCURVE",
"398 586 CURVE SMOOTH",
"479 586 OFFCURVE",
"546 543 OFFCURVE",
"579 474 CURVE",
"748 517 LINE",
"690 660 OFFCURVE",
"549 756 OFFCURVE",
"397 756 CURVE SMOOTH",
"209 756 OFFCURVE",
"20 592 OFFCURVE",
"20 376 CURVE SMOOTH",
"20 160 OFFCURVE",
"209 -7 OFFCURVE",
"397 -7 CURVE SMOOTH",
"540 -7 OFFCURVE",
"683 88 OFFCURVE",
"744 228 CURVE"
);
}
);
width = 768;
},
{
associatedMasterId = "94E4BE91-FC80-477F-8032-C50F6AA25321";
layerId = "9D8030CA-8A89-40D5-8186-0B08A255CDBC";
width = 600;
},
{
layerId = "0E4D5491-561A-4208-9CE2-EBBE0132EEC6";
width = 600;
}
);
leftKerningGroup = O;
note = C;
rightKerningGroup = C;
unicode = 0043;
},
{
glyphname = D;
lastChange = "2018-09-08 16:43:59 +0000";
layers = (
{
hints = (
{
horizontal = 1;
place = "{-4, 761}";
type = Stem;
},
{
place = "{45, 498}";
type = Stem;
}
);
layerId = "94E4BE91-FC80-477F-8032-C50F6AA25321";
paths = (
{
closed = 1;
nodes = (
"268 -4 LINE",
"445 -4 OFFCURVE",
"658 100 OFFCURVE",
"658 376 CURVE SMOOTH",
"658 643 OFFCURVE",
"458 757 OFFCURVE",
"287 757 CURVE SMOOTH",
"214 757 OFFCURVE",
"95 751 OFFCURVE",
"70 752 CURVE",
"70 0 LINE"
);
},
{
closed = 1;
nodes = (
"144 685 LINE",
"263 688 LINE",
"398 692 OFFCURVE",
"583 626 OFFCURVE",
"583 375 CURVE SMOOTH",
"583 125 OFFCURVE",
"399 66 OFFCURVE",
"266 66 CURVE",
"144 66 LINE"
);
}
);
width = 704;
},
{
associatedMasterId = "94E4BE91-FC80-477F-8032-C50F6AA25321";
layerId = "826BB18A-9EF8-47E4-AF71-ABF09D128FA7";
width = 600;
},
{
layerId = "1E834396-7C72-44CF-B9BE-DF3A8E7FF23F";
paths = (
{
closed = 1;
nodes = (
"228 -4 LINE",
"405 -4 OFFCURVE",
"618 100 OFFCURVE",
"618 376 CURVE SMOOTH",
"618 643 OFFCURVE",
"418 751 OFFCURVE",
"247 751 CURVE SMOOTH",
"174 751 OFFCURVE",
"55 750 OFFCURVE",
"30 751 CURVE",
"30 0 LINE"
);
},
{
closed = 1;
nodes = (
"186 580 LINE",
"256 581 LINE",
"335 583 OFFCURVE",
"443 538 OFFCURVE",
"443 371 CURVE SMOOTH",
"443 223 OFFCURVE",
"335 167 OFFCURVE",
"257 167 CURVE",
"186 167 LINE"
);
}
);
width = 638;
},
{
associatedMasterId = "94E4BE91-FC80-477F-8032-C50F6AA25321";
layerId = "9D8030CA-8A89-40D5-8186-0B08A255CDBC";
width = 600;
},
{
layerId = "0E4D5491-561A-4208-9CE2-EBBE0132EEC6";
width = 600;
}
);
note = D;
rightKerningGroup = O;
unicode = 0044;
},
{
glyphname = E;
lastChange = "2018-09-08 16:44:04 +0000";
layers = (
{
hints = (
{
horizontal = 1;
place = "{76, 253}";
type = Stem;
},
{
horizontal = 1;
place = "{400, 275}";
type = Stem;
},
{
place = "{67, 409}";
type = Stem;
}
);
layerId = "94E4BE91-FC80-477F-8032-C50F6AA25321";
paths = (
{
closed = 1;
nodes = (
"218 8 OFFCURVE",
"365 8 OFFCURVE",
"513 5 CURVE",
"518 29 OFFCURVE",
"526 54 OFFCURVE",
"537 78 CURVE",
"406 74 OFFCURVE",
"275 73 OFFCURVE",
"144 75 CURVE",
"141 143 OFFCURVE",
"141 212 OFFCURVE",
"144 280 CURVE",
"248 283 OFFCURVE",
"351 283 OFFCURVE",
"455 280 CURVE",
"460 303 OFFCURVE",
"468 327 OFFCURVE",
"479 350 CURVE",
"367 347 OFFCURVE",
"256 347 OFFCURVE",
"144 350 CURVE",
"141 458 OFFCURVE",
"141 567 OFFCURVE",
"144 675 CURVE",
"267 678 OFFCURVE",
"390 678 OFFCURVE",
"513 675 CURVE",
"518 698 OFFCURVE",
"526 722 OFFCURVE",
"537 745 CURVE",
"381 742 OFFCURVE",
"226 742 OFFCURVE",
"70 745 CURVE",
"70 675 LINE",
"73 452 OFFCURVE",
"73 228 OFFCURVE",
"70 5 CURVE"
);
}
);
width = 597;
},
{
associatedMasterId = "94E4BE91-FC80-477F-8032-C50F6AA25321";
layerId = "826BB18A-9EF8-47E4-AF71-ABF09D128FA7";
width = 600;
},
{
layerId = "1E834396-7C72-44CF-B9BE-DF3A8E7FF23F";
paths = (
{
closed = 1;
nodes = (
"178 3 OFFCURVE",
"325 3 OFFCURVE",
"473 0 CURVE",
"478 24 OFFCURVE",
"486 154 OFFCURVE",
"497 178 CURVE",
"366 174 OFFCURVE",
"335 173 OFFCURVE",
"204 175 CURVE",
"204 280 LINE",
"308 283 OFFCURVE",
"311 283 OFFCURVE",
"415 280 CURVE",
"420 303 OFFCURVE",
"428 427 OFFCURVE",
"439 450 CURVE",
"327 447 OFFCURVE",
"316 447 OFFCURVE",
"204 450 CURVE",
"204 580 LINE",
"327 583 OFFCURVE",
"350 583 OFFCURVE",
"473 580 CURVE",
"478 603 OFFCURVE",
"486 727 OFFCURVE",
"497 750 CURVE",
"341 747 OFFCURVE",
"186 747 OFFCURVE",
"30 750 CURVE",
"33 473 OFFCURVE",
"33 216 OFFCURVE",
"30 0 CURVE"
);
}
);
width = 527;
},
{
associatedMasterId = "94E4BE91-FC80-477F-8032-C50F6AA25321";
layerId = "9D8030CA-8A89-40D5-8186-0B08A255CDBC";
width = 600;
},
{
layerId = "0E4D5491-561A-4208-9CE2-EBBE0132EEC6";
width = 600;
}
);
note = E;
unicode = 0045;
},
{
glyphname = F;
lastChange = "2018-09-08 16:44:09 +0000";
layers = (
{
hints = (
{
horizontal = 1;
place = "{400, 275}";
type = Stem;
},
{
place = "{45, 409}";
type = Stem;
}
);
layerId = "94E4BE91-FC80-477F-8032-C50F6AA25321";
paths = (
{
closed = 1;
nodes = (
"141 330 LINE",
"226 333 OFFCURVE",
"312 333 OFFCURVE",
"397 330 CURVE",
"402 353 OFFCURVE",
"410 377 OFFCURVE",
"421 400 CURVE",
"328 397 OFFCURVE",
"234 397 OFFCURVE",
"141 400 CURVE",
"144 675 LINE",
"455 675 LINE",
"460 698 OFFCURVE",
"468 722 OFFCURVE",
"479 745 CURVE",
"70 745 LINE",
"70 675 LINE",
"73 452 OFFCURVE",
"73 228 OFFCURVE",
"70 5 CURVE",
"95 9 OFFCURVE",
"119 11 OFFCURVE",
"144 9 CURVE"
);
}
);
width = 539;
},
{
associatedMasterId = "94E4BE91-FC80-477F-8032-C50F6AA25321";
layerId = "826BB18A-9EF8-47E4-AF71-ABF09D128FA7";
width = 600;
},
{
layerId = "1E834396-7C72-44CF-B9BE-DF3A8E7FF23F";
paths = (
{
closed = 1;
nodes = (
"201 299 LINE",
"240 302 OFFCURVE",
"302 302 OFFCURVE",
"357 299 CURVE",
"362 322 OFFCURVE",
"370 446 OFFCURVE",
"381 469 CURVE",
"318 466 OFFCURVE",
"240 468 OFFCURVE",
"201 469 CURVE",
"204 580 LINE",
"415 580 LINE",
"420 603 OFFCURVE",
"428 727 OFFCURVE",
"439 750 CURVE",
"30 750 LINE",
"33 466 OFFCURVE",
"33 211 OFFCURVE",
"30 0 CURVE",
"155 4 OFFCURVE",
"179 6 OFFCURVE",
"204 4 CURVE"
);
}
);
width = 469;
},
{
associatedMasterId = "94E4BE91-FC80-477F-8032-C50F6AA25321";
layerId = "9D8030CA-8A89-40D5-8186-0B08A255CDBC";
width = 600;
},
{
layerId = "0E4D5491-561A-4208-9CE2-EBBE0132EEC6";
width = 600;
}
);
note = F;
unicode = 0046;
},
{
glyphname = G;
lastChange = "2018-09-05 22:00:10 +0000";
layers = (
{
hints = (
{
horizontal = 1;
place = "{65, 215}";
type = Stem;
},
{
place = "{47, 539}";
type = Stem;
},
{
place = "{121, 218}";
type = Stem;
}
);
layerId = "94E4BE91-FC80-477F-8032-C50F6AA25321";
paths = (
{
closed = 1;
nodes = (
"671 280 LINE",
"671 278 OFFCURVE",
"671 279 OFFCURVE",
"667 254 CURVE SMOOTH",
"642 96 OFFCURVE",
"487 65 OFFCURVE",
"421 65 CURVE SMOOTH",
"311 65 OFFCURVE",
"116 152 OFFCURVE",
"116 375 CURVE SMOOTH",
"116 600 OFFCURVE",
"316 687 OFFCURVE",
"412 687 CURVE SMOOTH",
"495 687 OFFCURVE",
"589 649 OFFCURVE",
"638 559 CURVE",
"659 572 OFFCURVE",
"681 583 OFFCURVE",
"704 590 CURVE",
"649 692 OFFCURVE",
"543 757 OFFCURVE",
"411 757 CURVE SMOOTH",
"233 757 OFFCURVE",
"42 593 OFFCURVE",
"42 375 CURVE SMOOTH",
"42 161 OFFCURVE",
"227 -6 OFFCURVE",
"424 -6 CURVE SMOOTH",
"566 -6 OFFCURVE",
"709 81 OFFCURVE",
"740 252 CURVE SMOOTH",
"746 285 OFFCURVE",
"747 319 OFFCURVE",
"747 350 CURVE",
"741 350 LINE",
"674 350 LINE",
"425 350 LINE",
"415 280 LINE"
);
}
);
width = 789;
},
{
associatedMasterId = "94E4BE91-FC80-477F-8032-C50F6AA25321";
layerId = "826BB18A-9EF8-47E4-AF71-ABF09D128FA7";
width = 600;
},
{
layerId = "1E834396-7C72-44CF-B9BE-DF3A8E7FF23F";
paths = (
{
closed = 1;
nodes = (
"378 382 LINE",
"377 246 LINE",
"559 245 LINE",
"521 194 OFFCURVE",
"461 164 OFFCURVE",
"398 164 CURVE SMOOTH",
"292 164 OFFCURVE",
"194 250 OFFCURVE",
"194 374 CURVE SMOOTH",
"194 499 OFFCURVE",
"292 586 OFFCURVE",
"398 586 CURVE SMOOTH",
"461 586 OFFCURVE",
"550 551 OFFCURVE",
"587 472 CURVE",
"753 516 LINE",
"684 691 OFFCURVE",
"520 756 OFFCURVE",
"397 756 CURVE SMOOTH",
"209 756 OFFCURVE",
"20 592 OFFCURVE",
"20 376 CURVE SMOOTH",
"20 160 OFFCURVE",
"209 -7 OFFCURVE",
"397 -7 CURVE SMOOTH",
"573 -7 OFFCURVE",
"768 142 OFFCURVE",
"777 382 CURVE"
);
}
);
width = 797;
},
{
associatedMasterId = "94E4BE91-FC80-477F-8032-C50F6AA25321";
layerId = "9D8030CA-8A89-40D5-8186-0B08A255CDBC";
width = 600;
},
{
layerId = "0E4D5491-561A-4208-9CE2-EBBE0132EEC6";
width = 600;
}
);
leftKerningGroup = O;
note = G;
rightKerningGroup = O;
unicode = 0047;
},
{
glyphname = H;
lastChange = "2018-09-08 16:44:17 +0000";
layers = (
{
hints = (
{
horizontal = 1;
place = "{0, 750}";
type = Stem;
},
{
place = "{72, 497}";
type = Stem;
}
);
layerId = "94E4BE91-FC80-477F-8032-C50F6AA25321";
paths = (
{
closed = 1;
nodes = (
"268 285 OFFCURVE",
"398 285 OFFCURVE",
"524 282 CURVE",
"522 0 LINE",
"547 5 OFFCURVE",
"571 8 OFFCURVE",
"596 7 CURVE",
"593 249 OFFCURVE",
"593 508 OFFCURVE",
"596 750 CURVE",
"571 744 OFFCURVE",
"547 741 OFFCURVE",
"522 741 CURVE",
"524 350 LINE",
"398 347 OFFCURVE",
"268 347 OFFCURVE",
"142 350 CURVE",
"144 750 LINE",
"119 744 OFFCURVE",
"95 741 OFFCURVE",
"70 741 CURVE",
"73 499 OFFCURVE",
"73 242 OFFCURVE",
"70 0 CURVE",
"95 5 OFFCURVE",
"119 8 OFFCURVE",
"144 7 CURVE",
"142 282 LINE"
);
}
);
width = 666;
},
{
associatedMasterId = "94E4BE91-FC80-477F-8032-C50F6AA25321";
layerId = "826BB18A-9EF8-47E4-AF71-ABF09D128FA7";
width = 600;
},
{
layerId = "1E834396-7C72-44CF-B9BE-DF3A8E7FF23F";
paths = (
{
closed = 1;
nodes = (
"258 285 OFFCURVE",
"328 285 OFFCURVE",
"384 282 CURVE",
"382 0 LINE",
"407 5 OFFCURVE",
"531 8 OFFCURVE",
"556 7 CURVE",
"553 249 OFFCURVE",
"553 508 OFFCURVE",
"556 750 CURVE",
"531 744 OFFCURVE",
"407 743 OFFCURVE",
"382 743 CURVE",
"384 450 LINE",
"328 447 OFFCURVE",
"258 447 OFFCURVE",
"202 450 CURVE",
"204 750 LINE",
"179 744 OFFCURVE",
"55 743 OFFCURVE",
"30 743 CURVE",
"33 501 OFFCURVE",
"33 242 OFFCURVE",
"30 0 CURVE",
"55 5 OFFCURVE",
"179 8 OFFCURVE",
"204 7 CURVE",
"202 282 LINE"
);
}
);
width = 586;
},
{
associatedMasterId = "94E4BE91-FC80-477F-8032-C50F6AA25321";
layerId = "9D8030CA-8A89-40D5-8186-0B08A255CDBC";
width = 600;
},
{
layerId = "0E4D5491-561A-4208-9CE2-EBBE0132EEC6";
width = 600;
}
);
note = H;
unicode = 0048;
},
{
glyphname = I;
lastChange = "2018-09-14 14:24:48 +0000";
layers = (
{
hints = (
{
horizontal = 1;
place = "{0, 750}";
type = Stem;
},
{
place = "{80, 74}";
type = Stem;
}
);
layerId = "94E4BE91-FC80-477F-8032-C50F6AA25321";
paths = (
{
closed = 1;
nodes = (
"119 745 OFFCURVE",
"95 744 OFFCURVE",
"70 745 CURVE",
"73 497 OFFCURVE",
"73 248 OFFCURVE",
"70 0 CURVE",
"95 4 OFFCURVE",
"119 6 OFFCURVE",
"144 4 CURVE",
"141 253 OFFCURVE",
"141 501 OFFCURVE",
"144 750 CURVE"
);
}
);
width = 214;
},
{
associatedMasterId = "94E4BE91-FC80-477F-8032-C50F6AA25321";
layerId = "826BB18A-9EF8-47E4-AF71-ABF09D128FA7";
width = 600;
},
{
layerId = "1E834396-7C72-44CF-B9BE-DF3A8E7FF23F";
paths = (
{
closed = 1;
nodes = (
"159 745 OFFCURVE",
"75 744 OFFCURVE",
"30 745 CURVE",
"33 497 OFFCURVE",
"33 248 OFFCURVE",
"30 0 CURVE",
"75 4 OFFCURVE",
"159 2 OFFCURVE",
"204 0 CURVE",
"201 249 OFFCURVE",
"201 501 OFFCURVE",
"204 750 CURVE"
);
}
);
width = 234;
},
{
associatedMasterId = "94E4BE91-FC80-477F-8032-C50F6AA25321";
layerId = "9D8030CA-8A89-40D5-8186-0B08A255CDBC";
width = 600;
},
{
layerId = "0E4D5491-561A-4208-9CE2-EBBE0132EEC6";
width = 600;
}
);
note = I;
unicode = 0049;
},
{
glyphname = J;
lastChange = "2018-09-08 16:44:30 +0000";
layers = (
{
hints = (
{
horizontal = 1;
place = "{-5, 755}";
type = Stem;
},
{
place = "{22, 418}";
type = Stem;
}
);
layerId = "94E4BE91-FC80-477F-8032-C50F6AA25321";
paths = (
{
closed = 1;
nodes = (
"30 98 LINE",
"84 27 OFFCURVE",
"136 -5 OFFCURVE",
"228 -5 CURVE SMOOTH",
"395 -5 OFFCURVE",
"448 100 OFFCURVE",
"448 277 CURVE SMOOTH",
"448 750 LINE",
"374 746 LINE",
"374 271 LINE SMOOTH",
"374 173 OFFCURVE",
"354 68 OFFCURVE",
"226 68 CURVE SMOOTH",
"163 68 OFFCURVE",
"115 94 OFFCURVE",
"80 148 CURVE"
);
}
);
width = 518;
},
{
associatedMasterId = "94E4BE91-FC80-477F-8032-C50F6AA25321";
layerId = "826BB18A-9EF8-47E4-AF71-ABF09D128FA7";
width = 600;
},
{
layerId = "1E834396-7C72-44CF-B9BE-DF3A8E7FF23F";
paths = (
{
closed = 1;
nodes = (
"303 742 OFFCURVE",
"210 743 OFFCURVE",
"156 745 CURVE",
"157 281 LINE SMOOTH",
"157 155 OFFCURVE",
"132 145 OFFCURVE",
"38 164 CURVE",
"38 143 OFFCURVE",
"36 32 OFFCURVE",
"30 11 CURVE",
"174 -40 OFFCURVE",
"327 29 OFFCURVE",
"327 181 CURVE SMOOTH",
"327 750 LINE"
);
}
);
width = 357;
},
{
associatedMasterId = "94E4BE91-FC80-477F-8032-C50F6AA25321";
layerId = "9D8030CA-8A89-40D5-8186-0B08A255CDBC";
width = 600;
},
{
layerId = "0E4D5491-561A-4208-9CE2-EBBE0132EEC6";
width = 600;
}
);
note = J;
unicode = 004A;
},
{
glyphname = K;
lastChange = "2018-09-08 16:44:35 +0000";
layers = (
{
hints = (
{
horizontal = 1;
place = "{725, -20}";
target = down;
type = TopGhost;
},
{
place = "{133, 63}";
type = Stem;
}
);
layerId = "94E4BE91-FC80-477F-8032-C50F6AA25321";
paths = (
{
closed = 1;
nodes = (
"575 11 OFFCURVE",
"601 19 OFFCURVE",
"628 24 CURVE",
"259 421 LINE",
"619 725 LINE",
"591 730 OFFCURVE",
"565 739 OFFCURVE",
"539 750 CURVE",
"142 411 LINE",
"144 750 LINE",
"119 745 OFFCURVE",
"95 744 OFFCURVE",
"70 745 CURVE",
"73 497 OFFCURVE",
"73 248 OFFCURVE",
"70 0 CURVE",
"95 4 OFFCURVE",
"119 6 OFFCURVE",
"144 4 CURVE",
"142 308 LINE",
"207 370 LINE",
"550 0 LINE"
);
}
);
width = 658;
},
{
associatedMasterId = "94E4BE91-FC80-477F-8032-C50F6AA25321";
layerId = "826BB18A-9EF8-47E4-AF71-ABF09D128FA7";
width = 600;
},
{
layerId = "1E834396-7C72-44CF-B9BE-DF3A8E7FF23F";
paths = (
{
closed = 1;
nodes = (
"484 11 OFFCURVE",
"544 19 OFFCURVE",
"628 24 CURVE",
"365 411 LINE",
"619 725 LINE",
"534 730 OFFCURVE",
"486 739 OFFCURVE",
"419 750 CURVE",
"202 491 LINE",
"204 750 LINE",
"179 745 OFFCURVE",
"55 744 OFFCURVE",
"30 745 CURVE",
"33 497 OFFCURVE",
"33 248 OFFCURVE",
"30 0 CURVE",
"55 4 OFFCURVE",
"179 6 OFFCURVE",
"204 4 CURVE",
"202 268 LINE",
"224 293 LINE",
"420 0 LINE"
);
}
);
width = 638;
},
{
associatedMasterId = "94E4BE91-FC80-477F-8032-C50F6AA25321";
layerId = "9D8030CA-8A89-40D5-8186-0B08A255CDBC";
width = 600;
},
{
layerId = "0E4D5491-561A-4208-9CE2-EBBE0132EEC6";
width = 600;
}
);
note = K;
unicode = 004B;
},
{
glyphname = L;
lastChange = "2018-09-08 16:44:39 +0000";
layers = (
{
hints = (
{
horizontal = 1;
place = "{5, 745}";
type = Stem;
},
{
place = "{79, 394}";
type = Stem;
}
);
layerId = "94E4BE91-FC80-477F-8032-C50F6AA25321";
paths = (
{
closed = 1;
nodes = (
"228 8 OFFCURVE",
"334 8 OFFCURVE",
"440 5 CURVE",
"445 29 OFFCURVE",
"453 54 OFFCURVE",
"464 78 CURVE",
"358 75 OFFCURVE",
"251 75 OFFCURVE",
"144 78 CURVE",
"141 302 OFFCURVE",
"141 526 OFFCURVE",
"144 750 CURVE",
"119 745 OFFCURVE",
"95 747 OFFCURVE",
"70 748 CURVE",
"73 508 OFFCURVE",
"73 245 OFFCURVE",
"70 5 CURVE",
"121 5 LINE"
);
}
);
width = 524;
},
{
associatedMasterId = "94E4BE91-FC80-477F-8032-C50F6AA25321";
layerId = "826BB18A-9EF8-47E4-AF71-ABF09D128FA7";
width = 600;
},
{
layerId = "1E834396-7C72-44CF-B9BE-DF3A8E7FF23F";
paths = (
{
closed = 1;
nodes = (
"188 3 OFFCURVE",
"294 3 OFFCURVE",
"400 0 CURVE",
"405 24 OFFCURVE",
"413 154 OFFCURVE",
"424 178 CURVE",
"318 175 OFFCURVE",
"311 175 OFFCURVE",
"204 178 CURVE",
"201 402 OFFCURVE",
"201 526 OFFCURVE",
"204 750 CURVE",
"179 745 OFFCURVE",
"55 747 OFFCURVE",
"30 748 CURVE",
"33 508 OFFCURVE",
"33 240 OFFCURVE",
"30 0 CURVE",
"81 0 LINE"
);
}
);
width = 454;
},
{
associatedMasterId = "94E4BE91-FC80-477F-8032-C50F6AA25321";
layerId = "9D8030CA-8A89-40D5-8186-0B08A255CDBC";
width = 600;
},
{
layerId = "0E4D5491-561A-4208-9CE2-EBBE0132EEC6";
width = 600;
}
);
note = L;
unicode = 004C;
},
{
glyphname = M;
lastChange = "2018-09-14 14:22:08 +0000";
layers = (
{
hints = (
{
horizontal = 1;
place = "{0, 750}";
type = Stem;
},
{
place = "{60, 636}";
type = Stem;
}
);
layerId = "94E4BE91-FC80-477F-8032-C50F6AA25321";
paths = (
{
closed = 1;
nodes = (
"60 0 LINE",
"85 3 OFFCURVE",
"109 3 OFFCURVE",
"134 0 CURVE",
"171 513 LINE",
"406 68 LINE",
"659 514 LINE",
"682 0 LINE",
"707 4 OFFCURVE",
"731 4 OFFCURVE",
"756 2 CURVE",
"707 762 LINE",
"406 204 LINE",
"118 755 LINE"
);
}
);
width = 816;
},
{
associatedMasterId = "94E4BE91-FC80-477F-8032-C50F6AA25321";
layerId = "826BB18A-9EF8-47E4-AF71-ABF09D128FA7";
width = 600;
},
{
layerId = "1E834396-7C72-44CF-B9BE-DF3A8E7FF23F";
paths = (
{
closed = 1;
nodes = (
"18 0 LINE",
"43 3 OFFCURVE",
"167 3 OFFCURVE",
"192 0 CURVE",
"219 403 LINE",
"414 -12 LINE",
"627 404 LINE",
"640 0 LINE",
"665 4 OFFCURVE",
"789 4 OFFCURVE",
"814 2 CURVE",
"765 750 LINE",
"641 750 LINE",
"414 354 LINE",
"200 750 LINE",
"76 750 LINE"
);
}
);
width = 832;
},
{
associatedMasterId = "94E4BE91-FC80-477F-8032-C50F6AA25321";
layerId = "9D8030CA-8A89-40D5-8186-0B08A255CDBC";
width = 600;
},
{
layerId = "0E4D5491-561A-4208-9CE2-EBBE0132EEC6";
width = 600;
}
);
note = M;
unicode = 004D;
},
{
glyphname = N;
lastChange = "2018-09-08 16:44:45 +0000";
layers = (
{
hints = (
{
horizontal = 1;
place = "{1, 749}";
type = Stem;
},
{
place = "{69, 498}";
type = Stem;
}
);
layerId = "94E4BE91-FC80-477F-8032-C50F6AA25321";
paths = (
{
closed = 1;
nodes = (
"144 572 LINE",
"668 -8 LINE",
"668 750 LINE",
"643 748 OFFCURVE",
"619 746 OFFCURVE",
"594 746 CURVE",
"594 189 LINE",
"70 760 LINE",
"70 1 LINE",
"95 3 OFFCURVE",
"119 5 OFFCURVE",
"144 5 CURVE"
);
}
);
width = 738;
},
{
associatedMasterId = "94E4BE91-FC80-477F-8032-C50F6AA25321";
layerId = "826BB18A-9EF8-47E4-AF71-ABF09D128FA7";
width = 600;
},
{
layerId = "1E834396-7C72-44CF-B9BE-DF3A8E7FF23F";
paths = (
{
closed = 1;
nodes = (
"204 409 LINE",
"526 0 LINE",
"628 -1 LINE",
"628 750 LINE",
"570 746 OFFCURVE",
"512 744 OFFCURVE",
"454 746 CURVE",
"454 362 LINE",
"143 750 LINE",
"30 750 LINE",
"30 1 LINE",
"88 5 OFFCURVE",
"146 7 OFFCURVE",
"204 5 CURVE"
);
}
);
width = 658;
},
{
associatedMasterId = "94E4BE91-FC80-477F-8032-C50F6AA25321";
layerId = "9D8030CA-8A89-40D5-8186-0B08A255CDBC";
width = 600;
},
{
layerId = "0E4D5491-561A-4208-9CE2-EBBE0132EEC6";
width = 600;
}
);
note = N;
unicode = 004E;
},
{
glyphname = O;
lastChange = "2018-09-16 02:21:30 +0000";
layers = (
{
hints = (
{
horizontal = 1;
place = "{-7, 763}";
type = Stem;
},
{
place = "{39, 567}";
type = Stem;
}
);
layerId = "94E4BE91-FC80-477F-8032-C50F6AA25321";
paths = (
{
closed = 1;
nodes = (
"42 160 OFFCURVE",
"231 -7 OFFCURVE",
"419 -7 CURVE SMOOTH",
"608 -7 OFFCURVE",
"797 160 OFFCURVE",
"797 376 CURVE SMOOTH",
"797 592 OFFCURVE",
"617 756 OFFCURVE",
"419 756 CURVE SMOOTH",
"231 756 OFFCURVE",
"42 592 OFFCURVE",
"42 376 CURVE SMOOTH"
);
},
{
closed = 1;
nodes = (
"116 599 OFFCURVE",
"314 686 OFFCURVE",
"420 686 CURVE SMOOTH",
"535 686 OFFCURVE",
"723 599 OFFCURVE",
"723 374 CURVE SMOOTH",
"723 150 OFFCURVE",
"526 64 OFFCURVE",
"420 64 CURVE SMOOTH",
"314 64 OFFCURVE",
"116 150 OFFCURVE",
"116 374 CURVE SMOOTH"
);
}
);
width = 839;
},
{
associatedMasterId = "94E4BE91-FC80-477F-8032-C50F6AA25321";
layerId = "826BB18A-9EF8-47E4-AF71-ABF09D128FA7";
width = 600;
},
{
layerId = "1E834396-7C72-44CF-B9BE-DF3A8E7FF23F";
paths = (
{
closed = 1;
nodes = (
"20 160 OFFCURVE",
"209 -7 OFFCURVE",
"397 -7 CURVE SMOOTH",
"586 -7 OFFCURVE",
"775 160 OFFCURVE",
"775 376 CURVE SMOOTH",
"775 592 OFFCURVE",
"595 756 OFFCURVE",
"397 756 CURVE SMOOTH",
"209 756 OFFCURVE",
"20 592 OFFCURVE",
"20 376 CURVE SMOOTH"
);
},
{
closed = 1;
nodes = (
"194 499 OFFCURVE",
"292 586 OFFCURVE",
"398 586 CURVE SMOOTH",
"513 586 OFFCURVE",
"601 499 OFFCURVE",
"601 374 CURVE SMOOTH",
"601 250 OFFCURVE",
"504 164 OFFCURVE",
"398 164 CURVE SMOOTH",
"292 164 OFFCURVE",
"194 250 OFFCURVE",
"194 374 CURVE SMOOTH"
);
}
);
width = 795;
},
{
associatedMasterId = "94E4BE91-FC80-477F-8032-C50F6AA25321";
layerId = "9D8030CA-8A89-40D5-8186-0B08A255CDBC";
width = 600;
},
{
layerId = "0E4D5491-561A-4208-9CE2-EBBE0132EEC6";
width = 600;
}
);
leftKerningGroup = O;
note = O;
rightKerningGroup = O;
unicode = 004F;
},
{
glyphname = Oslash;
lastChange = "2018-09-05 23:41:45 +0000";
layers = (
{
layerId = "94E4BE91-FC80-477F-8032-C50F6AA25321";
paths = (
{
closed = 1;
nodes = (
"42 160 OFFCURVE",
"231 -7 OFFCURVE",
"419 -7 CURVE SMOOTH",
"608 -7 OFFCURVE",
"797 160 OFFCURVE",
"797 376 CURVE SMOOTH",
"797 592 OFFCURVE",
"617 756 OFFCURVE",
"419 756 CURVE SMOOTH",
"231 756 OFFCURVE",
"42 592 OFFCURVE",
"42 376 CURVE SMOOTH"
);
},
{
closed = 1;
nodes = (
"116 599 OFFCURVE",
"314 686 OFFCURVE",
"420 686 CURVE SMOOTH",
"535 686 OFFCURVE",
"723 599 OFFCURVE",
"723 374 CURVE SMOOTH",
"723 150 OFFCURVE",
"526 64 OFFCURVE",
"420 64 CURVE SMOOTH",
"314 64 OFFCURVE",
"116 150 OFFCURVE",
"116 374 CURVE SMOOTH"
);
},
{
closed = 1;
nodes = (
"745 784 OFFCURVE",
"724 788 OFFCURVE",
"705 795 CURVE",
"504 517 OFFCURVE",
"305 248 OFFCURVE",
"99 -30 CURVE",
"118 -35 OFFCURVE",
"134 -43 OFFCURVE",
"151 -54 CURVE",
"351 224 OFFCURVE",
"560 505 OFFCURVE",
"767 783 CURVE"
);
}
);
width = 839;
},
{
layerId = "1E834396-7C72-44CF-B9BE-DF3A8E7FF23F";
width = 600;
},
{
layerId = "0E4D5491-561A-4208-9CE2-EBBE0132EEC6";
width = 600;
}
);
leftKerningGroup = O;
rightKerningGroup = O;
unicode = 00D8;
},
{
glyphname = OE;
lastChange = "2018-09-05 22:00:10 +0000";
layers = (
{
layerId = "94E4BE91-FC80-477F-8032-C50F6AA25321";
paths = (
{
closed = 1;
nodes = (
"778 8 OFFCURVE",
"925 8 OFFCURVE",
"1073 5 CURVE",
"1078 29 OFFCURVE",
"1086 54 OFFCURVE",
"1097 78 CURVE",
"966 74 OFFCURVE",
"835 73 OFFCURVE",
"704 75 CURVE",
"701 143 OFFCURVE",
"701 212 OFFCURVE",
"704 280 CURVE",
"808 283 OFFCURVE",
"911 283 OFFCURVE",
"1015 280 CURVE",
"1020 303 OFFCURVE",
"1028 327 OFFCURVE",
"1039 350 CURVE",
"927 347 OFFCURVE",
"816 347 OFFCURVE",
"704 350 CURVE",
"701 458 OFFCURVE",
"701 567 OFFCURVE",
"704 675 CURVE",
"827 678 OFFCURVE",
"950 678 OFFCURVE",
"1073 675 CURVE",
"1078 698 OFFCURVE",
"1086 722 OFFCURVE",
"1097 745 CURVE",
"941 742 OFFCURVE",
"786 742 OFFCURVE",
"630 745 CURVE",
"630 675 LINE",
"633 452 OFFCURVE",
"633 228 OFFCURVE",
"630 5 CURVE"
);
},
{
closed = 1;
nodes = (
"310 64 OFFCURVE",
"116 150 OFFCURVE",
"116 374 CURVE SMOOTH",
"116 599 OFFCURVE",
"310 686 OFFCURVE",
"406 686 CURVE SMOOTH",
"469 686 OFFCURVE",
"587 649 OFFCURVE",
"634 558 CURVE",
"655 568 OFFCURVE",
"676 578 OFFCURVE",
"699 590 CURVE",
"647 692 OFFCURVE",
"518 756 OFFCURVE",
"405 756 CURVE SMOOTH",
"227 756 OFFCURVE",
"42 592 OFFCURVE",
"42 376 CURVE SMOOTH",
"42 160 OFFCURVE",
"227 -7 OFFCURVE",
"405 -7 CURVE SMOOTH",
"516 -7 OFFCURVE",
"644 57 OFFCURVE",
"696 157 CURVE",
"678 173 OFFCURVE",
"660 190 OFFCURVE",
"642 208 CURVE",
"596 106 OFFCURVE",
"473 64 OFFCURVE",
"406 64 CURVE SMOOTH"
);
}
);
width = 1157;
},
{
layerId = "1E834396-7C72-44CF-B9BE-DF3A8E7FF23F";
width = 600;
},
{
layerId = "0E4D5491-561A-4208-9CE2-EBBE0132EEC6";
width = 600;
}
);
leftKerningGroup = O;
unicode = 0152;
},
{
glyphname = P;
lastChange = "2018-09-08 16:44:54 +0000";
layers = (
{
hints = (
{
horizontal = 1;
place = "{0, 753}";
type = Stem;
},
{
place = "{124, 291}";
type = Stem;
}
);
layerId = "94E4BE91-FC80-477F-8032-C50F6AA25321";
paths = (
{
closed = 1;
nodes = (
"144 683 LINE",
"191 686 OFFCURVE",
"238 685 OFFCURVE",
"285 685 CURVE",
"406 685 OFFCURVE",
"455 592 OFFCURVE",
"455 485 CURVE SMOOTH",
"455 357 OFFCURVE",
"356 273 OFFCURVE",
"142 317 CURVE"
);
},
{
closed = 1;
nodes = (
"238 752 OFFCURVE",
"95 748 OFFCURVE",
"70 749 CURVE",
"73 501 OFFCURVE",
"73 248 OFFCURVE",
"70 0 CURVE",
"95 4 OFFCURVE",
"119 6 OFFCURVE",
"144 4 CURVE",
"142 248 LINE",
"394 200 OFFCURVE",
"529 320 OFFCURVE",
"529 485 CURVE SMOOTH",
"529 624 OFFCURVE",
"447 752 OFFCURVE",
"298 752 CURVE SMOOTH"
);
}
);
width = 550;
},
{
associatedMasterId = "94E4BE91-FC80-477F-8032-C50F6AA25321";
layerId = "826BB18A-9EF8-47E4-AF71-ABF09D128FA7";
width = 600;
},
{
layerId = "1E834396-7C72-44CF-B9BE-DF3A8E7FF23F";
paths = (
{
closed = 1;
nodes = (
"198 751 OFFCURVE",
"55 748 OFFCURVE",
"30 749 CURVE",
"33 501 OFFCURVE",
"33 248 OFFCURVE",
"30 0 CURVE",
"55 4 OFFCURVE",
"179 6 OFFCURVE",
"204 4 CURVE",
"202 268 LINE",
"229 268 OFFCURVE",
"255 268 OFFCURVE",
"280 268 CURVE SMOOTH",
"401 268 OFFCURVE",
"513 350 OFFCURVE",
"513 501 CURVE",
"513 677 OFFCURVE",
"407 751 OFFCURVE",
"234 751 CURVE"
);
},
{
closed = 1;
nodes = (
"220 601 OFFCURVE",
"254 601 OFFCURVE",
"254 601 CURVE",
"324 601 OFFCURVE",
"347 555 OFFCURVE",
"347 513 CURVE",
"347 439 OFFCURVE",
"306 427 OFFCURVE",
"237 425 CURVE",
"216 425 LINE",
"204 425 LINE",
"204 601 LINE"
);
}
);
width = 533;
},
{
associatedMasterId = "94E4BE91-FC80-477F-8032-C50F6AA25321";
layerId = "9D8030CA-8A89-40D5-8186-0B08A255CDBC";
width = 600;
},
{
layerId = "0E4D5491-561A-4208-9CE2-EBBE0132EEC6";
width = 600;
}
);
note = P;
unicode = 0050;
},
{
glyphname = Q;
lastChange = "2018-09-05 22:00:10 +0000";
layers = (
{
hints = (
{
horizontal = 1;
place = "{-73, 829}";
type = Stem;
},
{
place = "{47, 547}";
type = Stem;
}
);
layerId = "94E4BE91-FC80-477F-8032-C50F6AA25321";
paths = (
{
closed = 1;
nodes = (
"42 160 OFFCURVE",
"231 -7 OFFCURVE",
"419 -7 CURVE SMOOTH",
"608 -7 OFFCURVE",
"797 160 OFFCURVE",
"797 376 CURVE SMOOTH",
"797 599 OFFCURVE",
"608 756 OFFCURVE",
"419 756 CURVE SMOOTH",
"231 756 OFFCURVE",
"42 592 OFFCURVE",
"42 376 CURVE SMOOTH"
);
},
{
closed = 1;
nodes = (
"116 599 OFFCURVE",
"314 686 OFFCURVE",
"420 686 CURVE SMOOTH",
"526 686 OFFCURVE",
"723 599 OFFCURVE",
"723 374 CURVE SMOOTH",
"723 150 OFFCURVE",
"526 64 OFFCURVE",
"420 64 CURVE SMOOTH",
"314 64 OFFCURVE",
"116 150 OFFCURVE",
"116 374 CURVE SMOOTH"
);
},
{
closed = 1;
nodes = (
"323 -34 OFFCURVE",
"322 -57 OFFCURVE",
"319 -81 CURVE",
"494 18 OFFCURVE",
"563 -157 OFFCURVE",
"695 -87 CURVE",
"693 -67 OFFCURVE",
"694 -46 OFFCURVE",
"698 -26 CURVE",
"563 -90 OFFCURVE",
"535 63 OFFCURVE",
"320 -10 CURVE"
);
}
);
width = 839;
},
{
layerId = "1E834396-7C72-44CF-B9BE-DF3A8E7FF23F";
paths = (
{
closed = 1;
nodes = (
"20 160 OFFCURVE",
"209 -7 OFFCURVE",
"397 -7 CURVE SMOOTH",
"586 -7 OFFCURVE",
"775 160 OFFCURVE",
"775 376 CURVE SMOOTH",
"775 592 OFFCURVE",
"595 756 OFFCURVE",
"397 756 CURVE SMOOTH",
"209 756 OFFCURVE",
"20 592 OFFCURVE",
"20 376 CURVE SMOOTH"
);
},
{
closed = 1;
nodes = (
"194 499 OFFCURVE",
"292 586 OFFCURVE",
"398 586 CURVE SMOOTH",
"513 586 OFFCURVE",
"601 499 OFFCURVE",
"601 374 CURVE SMOOTH",
"601 250 OFFCURVE",
"504 164 OFFCURVE",
"398 164 CURVE SMOOTH",
"292 164 OFFCURVE",
"194 250 OFFCURVE",
"194 374 CURVE SMOOTH"
);
},
{
closed = 1;
nodes = (
"272 -24 OFFCURVE",
"272 -57 OFFCURVE",
"262 -109 CURVE SMOOTH",
"255 -146 LINE",
"373 -52 OFFCURVE",
"431 -76 OFFCURVE",
"503 -106 CURVE SMOOTH",
"558 -129 OFFCURVE",
"624 -157 OFFCURVE",
"706 -102 CURVE",
"702 -53 OFFCURVE",
"704 -21 OFFCURVE",
"714 31 CURVE",
"627 -29 OFFCURVE",
"599 -17 OFFCURVE",
"540 8 CURVE SMOOTH",
"484 32 OFFCURVE",
"406 65 OFFCURVE",
"264 9 CURVE"
);
}
);
width = 795;
},
{
associatedMasterId = "94E4BE91-FC80-477F-8032-C50F6AA25321";
layerId = "9D8030CA-8A89-40D5-8186-0B08A255CDBC";
width = 600;
},
{
layerId = "0E4D5491-561A-4208-9CE2-EBBE0132EEC6";
width = 600;
}
);
leftKerningGroup = O;
note = Q;
rightKerningGroup = O;
unicode = 0051;
},
{
glyphname = R;
lastChange = "2018-09-08 16:44:59 +0000";
layers = (
{
hints = (
{
horizontal = 1;
place = "{0, 753}";
type = Stem;
},
{
place = "{129, 291}";
type = Stem;
}
);
layerId = "94E4BE91-FC80-477F-8032-C50F6AA25321";
paths = (
{
closed = 1;
nodes = (
"437 -13 LINE",
"465 1 OFFCURVE",
"487 9 OFFCURVE",
"515 11 CURVE",
"298 241 LINE",
"412 269 OFFCURVE",
"539 363 OFFCURVE",
"539 495 CURVE SMOOTH",
"539 654 OFFCURVE",
"447 749 OFFCURVE",
"278 749 CURVE SMOOTH",
"185 749 OFFCURVE",
"96 750 OFFCURVE",
"70 751 CURVE",
"73 503 OFFCURVE",
"73 248 OFFCURVE",
"70 0 CURVE",
"95 4 OFFCURVE",
"119 6 OFFCURVE",
"144 4 CURVE",
"141 223 OFFCURVE",
"141 464 OFFCURVE",
"144 683 CURVE",
"180 686 OFFCURVE",
"247 685 OFFCURVE",
"275 685 CURVE SMOOTH",
"396 685 OFFCURVE",
"465 602 OFFCURVE",
"465 495 CURVE SMOOTH",
"465 379 OFFCURVE",
"354 306 OFFCURVE",
"243 299 CURVE",
"206 299 LINE",
"148 299 LINE"
);
}
);
width = 584;
},
{
associatedMasterId = "94E4BE91-FC80-477F-8032-C50F6AA25321";
layerId = "826BB18A-9EF8-47E4-AF71-ABF09D128FA7";
width = 600;
},
{
layerId = "1E834396-7C72-44CF-B9BE-DF3A8E7FF23F";
paths = (
{
closed = 1;
nodes = (
"365 -13 LINE",
"393 1 OFFCURVE",
"537 9 OFFCURVE",
"565 11 CURVE",
"408 329 LINE",
"445 329 OFFCURVE",
"519 373 OFFCURVE",
"519 505 CURVE SMOOTH",
"519 664 OFFCURVE",
"407 749 OFFCURVE",
"238 749 CURVE SMOOTH",
"145 749 OFFCURVE",
"56 750 OFFCURVE",
"30 751 CURVE",
"33 503 OFFCURVE",
"33 248 OFFCURVE",
"30 0 CURVE",
"55 4 OFFCURVE",
"179 6 OFFCURVE",
"204 4 CURVE",
"201 223 OFFCURVE",
"201 374 OFFCURVE",
"204 593 CURVE",
"240 596 OFFCURVE",
"207 595 OFFCURVE",
"235 595 CURVE SMOOTH",
"310 595 OFFCURVE",
"325 522 OFFCURVE",
"325 495 CURVE SMOOTH",
"325 429 OFFCURVE",
"300 379 OFFCURVE",
"249 379 CURVE",
"208 379 LINE"
);
}
);
width = 580;
},
{
associatedMasterId = "94E4BE91-FC80-477F-8032-C50F6AA25321";
layerId = "9D8030CA-8A89-40D5-8186-0B08A255CDBC";
width = 600;
},
{
layerId = "0E4D5491-561A-4208-9CE2-EBBE0132EEC6";
width = 600;
}
);
note = R;
unicode = 0052;
},
{
glyphname = S;
lastChange = "2018-09-16 02:25:38 +0000";
layers = (
{
hints = (
{
horizontal = 1;
place = "{-5, 760}";
type = Stem;
},
{
place = "{53, 453}";
type = Stem;
}
);
layerId = "94E4BE91-FC80-477F-8032-C50F6AA25321";
paths = (
{
closed = 1;
nodes = (
"130 630 OFFCURVE",
"206 685 OFFCURVE",
"277 685 CURVE SMOOTH",
"335 685 OFFCURVE",
"394 648 OFFCURVE",
"416 595 CURVE",
"432 612 OFFCURVE",
"453 628 OFFCURVE",
"471 639 CURVE",
"437 714 OFFCURVE",
"357 755 OFFCURVE",
"275 755 CURVE SMOOTH",
"159 755 OFFCURVE",
"57 666 OFFCURVE",
"57 549 CURVE SMOOTH",
"57 348 OFFCURVE",
"429 385 OFFCURVE",
"429 200 CURVE SMOOTH",
"429 109 OFFCURVE",
"351 69 OFFCURVE",
"267 69 CURVE SMOOTH",
"197 69 OFFCURVE",
"117 93 OFFCURVE",
"85 161 CURVE",
"68 141 OFFCURVE",
"49 123 OFFCURVE",
"30 109 CURVE",
"74 30 OFFCURVE",
"184 -6 OFFCURVE",
"270 -6 CURVE SMOOTH",
"389 -6 OFFCURVE",
"503 73 OFFCURVE",
"503 198 CURVE SMOOTH",
"503 314 OFFCURVE",
"405 380 OFFCURVE",
"297 421 CURVE SMOOTH",
"235 444 OFFCURVE",
"130 486 OFFCURVE",
"130 556 CURVE SMOOTH"
);
}
);
width = 533;
},
{
associatedMasterId = "94E4BE91-FC80-477F-8032-C50F6AA25321";
layerId = "826BB18A-9EF8-47E4-AF71-ABF09D128FA7";
width = 600;
},
{
layerId = "1E834396-7C72-44CF-B9BE-DF3A8E7FF23F";
paths = (
{
closed = 1;
nodes = (
"225 569 OFFCURVE",
"247 609 OFFCURVE",
"294 609 CURVE",
"341 609 OFFCURVE",
"386 570 OFFCURVE",
"386 513 CURVE",
"427 536 OFFCURVE",
"483 566 OFFCURVE",
"526 583 CURVE",
"506 687 OFFCURVE",
"400 760 OFFCURVE",
"292 760 CURVE",
"160 760 OFFCURVE",
"53 653 OFFCURVE",
"53 532 CURVE",
"53 408 OFFCURVE",
"166 356 OFFCURVE",
"249 320 CURVE",
"445 240 OFFCURVE",
"347 135 OFFCURVE",
"270 142 CURVE",
"230 146 OFFCURVE",
"176 185 OFFCURVE",
"172 251 CURVE",
"131 221 OFFCURVE",
"63 182 OFFCURVE",
"20 156 CURVE",
"41 58 OFFCURVE",
"159 -13 OFFCURVE",
"280 -13 CURVE",
"427 -13 OFFCURVE",
"537 89 OFFCURVE",
"537 219 CURVE",
"537 323 OFFCURVE",
"466 399 OFFCURVE",
"335 449 CURVE",
"244 483 OFFCURVE",
"225 514 OFFCURVE",
"225 540 CURVE"
);
}
);
width = 557;
},
{
associatedMasterId = "94E4BE91-FC80-477F-8032-C50F6AA25321";
layerId = "9D8030CA-8A89-40D5-8186-0B08A255CDBC";
width = 600;
},
{
layerId = "0E4D5491-561A-4208-9CE2-EBBE0132EEC6";
width = 600;
}
);
note = S;
unicode = 0053;
},
{
glyphname = T;
lastChange = "2018-09-14 14:25:53 +0000";
layers = (
{
hints = (
{
horizontal = 1;
place = "{0, 745}";
type = Stem;
},
{
place = "{39, 470}";
type = Stem;
}
);
layerId = "94E4BE91-FC80-477F-8032-C50F6AA25321";
paths = (
{
closed = 1;
nodes = (
"307 11 OFFCURVE",
"332 18 OFFCURVE",
"356 23 CURVE",
"353 240 OFFCURVE",
"354 461 OFFCURVE",
"357 678 CURVE",
"596 675 LINE",
"601 698 OFFCURVE",
"609 722 OFFCURVE",
"620 745 CURVE",
"431 742 OFFCURVE",
"243 742 OFFCURVE",
"54 745 CURVE",
"49 722 OFFCURVE",
"41 698 OFFCURVE",
"30 675 CURVE",
"283 678 LINE",
"286 453 OFFCURVE",
"286 225 OFFCURVE",
"283 0 CURVE"
);
}
);
width = 650;
},
{
associatedMasterId = "94E4BE91-FC80-477F-8032-C50F6AA25321";
layerId = "826BB18A-9EF8-47E4-AF71-ABF09D128FA7";
width = 600;
},
{
layerId = "1E834396-7C72-44CF-B9BE-DF3A8E7FF23F";
paths = (
{
closed = 1;
nodes = (
"238 7 OFFCURVE",
"274 7 OFFCURVE",
"346 12 CURVE",
"343 229 OFFCURVE",
"344 366 OFFCURVE",
"347 583 CURVE",
"486 580 LINE",
"490 633 OFFCURVE",
"499 687 OFFCURVE",
"510 750 CURVE",
"321 747 OFFCURVE",
"233 747 OFFCURVE",
"44 750 CURVE",
"39 687 OFFCURVE",
"30 633 OFFCURVE",
"20 580 CURVE",
"173 583 LINE",
"176 358 OFFCURVE",
"176 225 OFFCURVE",
"173 0 CURVE"
);
}
);
width = 530;
},
{
associatedMasterId = "94E4BE91-FC80-477F-8032-C50F6AA25321";
layerId = "9D8030CA-8A89-40D5-8186-0B08A255CDBC";
width = 600;
},
{
layerId = "0E4D5491-561A-4208-9CE2-EBBE0132EEC6";
width = 600;
}
);
note = T;
unicode = 0054;
},
{
glyphname = U;
lastChange = "2018-09-08 16:45:07 +0000";
layers = (
{
hints = (
{
horizontal = 1;
place = "{-5, 755}";
type = Stem;
},
{
place = "{50, 497}";
type = Stem;
}
);
layerId = "94E4BE91-FC80-477F-8032-C50F6AA25321";
paths = (
{
closed = 1;
nodes = (
"70 299 LINE SMOOTH",
"70 90 OFFCURVE",
"231 -8 OFFCURVE",
"363 -8 CURVE SMOOTH",
"457 -8 OFFCURVE",
"657 46 OFFCURVE",
"657 268 CURVE SMOOTH",
"657 750 LINE",
"632 746 OFFCURVE",
"608 744 OFFCURVE",
"583 746 CURVE",
"583 266 LINE SMOOTH",
"583 137 OFFCURVE",
"472 62 OFFCURVE",
"356 62 CURVE SMOOTH",
"269 62 OFFCURVE",
"144 132 OFFCURVE",
"144 299 CURVE SMOOTH",
"144 750 LINE",
"119 746 OFFCURVE",
"95 744 OFFCURVE",
"70 746 CURVE"
);
}
);
width = 727;
},
{
associatedMasterId = "94E4BE91-FC80-477F-8032-C50F6AA25321";
layerId = "826BB18A-9EF8-47E4-AF71-ABF09D128FA7";
width = 600;
},
{
layerId = "1E834396-7C72-44CF-B9BE-DF3A8E7FF23F";
paths = (
{
closed = 1;
nodes = (
"30 299 LINE",
"30 90 OFFCURVE",
"191 -9 OFFCURVE",
"321 -9 CURVE",
"417 -9 OFFCURVE",
"617 46 OFFCURVE",
"617 268 CURVE",
"617 750 LINE",
"592 746 OFFCURVE",
"471 744 OFFCURVE",
"446 746 CURVE",
"446 346 LINE",
"446 217 OFFCURVE",
"426 152 OFFCURVE",
"329 153 CURVE",
"238 154 OFFCURVE",
"201 212 OFFCURVE",
"201 379 CURVE",
"201 750 LINE",
"176 746 OFFCURVE",
"55 744 OFFCURVE",
"30 746 CURVE"
);
}
);
width = 647;
},
{
associatedMasterId = "94E4BE91-FC80-477F-8032-C50F6AA25321";
layerId = "9D8030CA-8A89-40D5-8186-0B08A255CDBC";
width = 600;
},
{
layerId = "0E4D5491-561A-4208-9CE2-EBBE0132EEC6";
width = 600;
}
);
note = U;
unicode = 0055;
},
{
glyphname = V;
lastChange = "2018-09-14 14:22:28 +0000";
layers = (
{
hints = (
{
horizontal = 1;
place = "{726, -20}";
target = down;
type = TopGhost;
},
{
place = "{38, 545}";
type = Stem;
}
);
layerId = "94E4BE91-FC80-477F-8032-C50F6AA25321";
paths = (
{
closed = 1;
nodes = (
"99 750 LINE",
"30 726 LINE",
"355 -37 LINE",
"695 726 LINE",
"626 750 LINE",
"361 133 LINE"
);
}
);
width = 725;
},
{
associatedMasterId = "94E4BE91-FC80-477F-8032-C50F6AA25321";
layerId = "826BB18A-9EF8-47E4-AF71-ABF09D128FA7";
width = 600;
},
{
layerId = "1E834396-7C72-44CF-B9BE-DF3A8E7FF23F";
paths = (
{
closed = 1;
nodes = (
"328 3 OFFCURVE",
"380 3 OFFCURVE",
"431 0 CURVE",
"522 238 OFFCURVE",
"607 502 OFFCURVE",
"700 740 CURVE",
"640 741 OFFCURVE",
"580 745 OFFCURVE",
"520 750 CURVE",
"466 585 OFFCURVE",
"418 441 OFFCURVE",
"356 276 CURVE",
"300 441 OFFCURVE",
"259 587 OFFCURVE",
"211 752 CURVE",
"149 746 OFFCURVE",
"87 742 OFFCURVE",
"25 740 CURVE",
"111 502 OFFCURVE",
"195 238 OFFCURVE",
"277 0 CURVE"
);
}
);
width = 725;
},
{
associatedMasterId = "94E4BE91-FC80-477F-8032-C50F6AA25321";
layerId = "9D8030CA-8A89-40D5-8186-0B08A255CDBC";
width = 600;
},
{
layerId = "0E4D5491-561A-4208-9CE2-EBBE0132EEC6";
width = 600;
}
);
note = V;
unicode = 0056;
},
{
glyphname = W;
lastChange = "2018-09-14 14:27:14 +0000";
layers = (
{
hints = (
{
horizontal = 1;
place = "{726, -20}";
target = down;
type = TopGhost;
},
{
place = "{52, 800}";
type = Stem;
}
);
layerId = "94E4BE91-FC80-477F-8032-C50F6AA25321";
paths = (
{
closed = 1;
nodes = (
"491 745 LINE",
"287 171 LINE",
"101 750 LINE",
"30 726 LINE",
"282 -30 LINE",
"490 532 LINE",
"687 -30 LINE",
"950 726 LINE",
"880 752 LINE",
"692 171 LINE"
);
}
);
width = 980;
},
{
associatedMasterId = "94E4BE91-FC80-477F-8032-C50F6AA25321";
layerId = "826BB18A-9EF8-47E4-AF71-ABF09D128FA7";
width = 600;
},
{
layerId = "1E834396-7C72-44CF-B9BE-DF3A8E7FF23F";
paths = (
{
closed = 1;
nodes = (
"647 283 LINE",
"610 434 OFFCURVE",
"574 585 OFFCURVE",
"541 736 CURVE",
"499 734 OFFCURVE",
"457 734 OFFCURVE",
"415 738 CURVE",
"378 586 OFFCURVE",
"338 435 OFFCURVE",
"297 283 CURVE",
"196 758 LINE",
"136 751 OFFCURVE",
"75 748 OFFCURVE",
"15 747 CURVE",
"75 498 OFFCURVE",
"133 249 OFFCURVE",
"189 0 CURVE",
"228 7 OFFCURVE",
"315 7 OFFCURVE",
"354 0 CURVE",
"395 140 OFFCURVE",
"435 280 OFFCURVE",
"476 421 CURVE",
"513 280 OFFCURVE",
"551 140 OFFCURVE",
"587 0 CURVE",
"626 7 OFFCURVE",
"714 7 OFFCURVE",
"752 0 CURVE",
"814 248 OFFCURVE",
"878 496 OFFCURVE",
"944 744 CURVE",
"885 745 OFFCURVE",
"826 749 OFFCURVE",
"767 756 CURVE"
);
}
);
width = 959;
},
{
associatedMasterId = "94E4BE91-FC80-477F-8032-C50F6AA25321";
layerId = "9D8030CA-8A89-40D5-8186-0B08A255CDBC";
width = 600;
},
{
layerId = "0E4D5491-561A-4208-9CE2-EBBE0132EEC6";
width = 600;
}
);
note = W;
unicode = 0057;
},
{
glyphname = X;
lastChange = "2018-09-05 22:00:10 +0000";
layers = (
{
hints = (
{
horizontal = 1;
place = "{726, -20}";
target = down;
type = TopGhost;
},
{
place = "{38, 488}";
type = Stem;
}
);
layerId = "94E4BE91-FC80-477F-8032-C50F6AA25321";
paths = (
{
closed = 1;
nodes = (
"30 726 LINE",
"283 374 LINE",
"31 24 LINE",
"103 0 LINE",
"324 309 LINE",
"545 0 LINE",
"617 24 LINE",
"365 374 LINE",
"618 726 LINE",
"546 750 LINE",
"324 433 LINE",
"102 750 LINE"
);
}
);
width = 648;
},
{
associatedMasterId = "94E4BE91-FC80-477F-8032-C50F6AA25321";
layerId = "826BB18A-9EF8-47E4-AF71-ABF09D128FA7";
width = 600;
},
{
layerId = "1E834396-7C72-44CF-B9BE-DF3A8E7FF23F";
paths = (
{
closed = 1;
nodes = (
"595 744 OFFCURVE",
"461 745 OFFCURVE",
"436 750 CURVE",
"318 547 LINE",
"199 750 LINE",
"174 745 OFFCURVE",
"40 744 OFFCURVE",
"15 745 CURVE",
"229 374 LINE",
"16 4 LINE",
"41 6 OFFCURVE",
"175 4 OFFCURVE",
"200 0 CURVE",
"318 201 LINE",
"435 0 LINE",
"460 4 OFFCURVE",
"594 6 OFFCURVE",
"619 4 CURVE",
"406 374 LINE",
"620 745 LINE"
);
}
);
width = 635;
},
{
associatedMasterId = "94E4BE91-FC80-477F-8032-C50F6AA25321";
layerId = "9D8030CA-8A89-40D5-8186-0B08A255CDBC";
width = 600;
},
{
layerId = "0E4D5491-561A-4208-9CE2-EBBE0132EEC6";
width = 600;
}
);
note = X;
unicode = 0058;
},
{
glyphname = Y;
lastChange = "2018-09-16 02:21:06 +0000";
layers = (
{
hints = (
{
horizontal = 1;
place = "{0, 750}";
type = Stem;
},
{
place = "{40, 497}";
type = Stem;
}
);
layerId = "94E4BE91-FC80-477F-8032-C50F6AA25321";
paths = (
{
closed = 1;
nodes = (
"99 750 LINE",
"77 740 OFFCURVE",
"54 732 OFFCURVE",
"30 726 CURVE",
"295 323 LINE",
"575 726 LINE",
"551 731 OFFCURVE",
"528 739 OFFCURVE",
"506 750 CURVE",
"302 441 LINE"
);
},
{
closed = 1;
nodes = (
"261 425 LINE",
"264 283 OFFCURVE",
"264 142 OFFCURVE",
"261 0 CURVE",
"286 4 OFFCURVE",
"310 6 OFFCURVE",
"335 4 CURVE",
"332 146 OFFCURVE",
"332 288 OFFCURVE",
"335 430 CURVE"
);
}
);
width = 605;
},
{
associatedMasterId = "94E4BE91-FC80-477F-8032-C50F6AA25321";
layerId = "826BB18A-9EF8-47E4-AF71-ABF09D128FA7";
width = 600;
},
{
layerId = "1E834396-7C72-44CF-B9BE-DF3A8E7FF23F";
paths = (
{
closed = 1;
nodes = (
"620 745 LINE",
"595 744 OFFCURVE",
"451 745 OFFCURVE",
"426 750 CURVE",
"318 527 LINE",
"209 750 LINE",
"184 745 OFFCURVE",
"40 744 OFFCURVE",
"15 745 CURVE",
"234 323 LINE",
"235 247 OFFCURVE",
"234 154 OFFCURVE",
"232 0 CURVE",
"257 4 OFFCURVE",
"381 6 OFFCURVE",
"406 4 CURVE",
"404 160 OFFCURVE",
"403 252 OFFCURVE",
"404 329 CURVE"
);
}
);
width = 635;
},
{
associatedMasterId = "94E4BE91-FC80-477F-8032-C50F6AA25321";
layerId = "9D8030CA-8A89-40D5-8186-0B08A255CDBC";
width = 600;
},
{
layerId = "0E4D5491-561A-4208-9CE2-EBBE0132EEC6";
width = 600;
}
);
note = Y;
unicode = 0059;
},
{
glyphname = Z;
lastChange = "2018-09-05 22:00:10 +0000";
layers = (
{
hints = (
{
horizontal = 1;
place = "{5, 740}";
type = Stem;
},
{
place = "{33, 509}";
type = Stem;
}
);
layerId = "94E4BE91-FC80-477F-8032-C50F6AA25321";
paths = (
{
closed = 1;
nodes = (
"62 722 OFFCURVE",
"60 698 OFFCURVE",
"56 675 CURVE",
"192 678 OFFCURVE",
"327 678 OFFCURVE",
"463 675 CURVE",
"331 452 OFFCURVE",
"194 228 OFFCURVE",
"50 5 CURVE",
"233 8 OFFCURVE",
"416 8 OFFCURVE",
"599 5 CURVE",
"597 28 OFFCURVE",
"599 52 OFFCURVE",
"603 75 CURVE",
"464 72 OFFCURVE",
"324 72 OFFCURVE",
"185 75 CURVE",
"320 298 OFFCURVE",
"458 522 OFFCURVE",
"599 745 CURVE",
"419 742 OFFCURVE",
"240 742 OFFCURVE",
"60 745 CURVE"
);
}
);
width = 653;
},
{
associatedMasterId = "94E4BE91-FC80-477F-8032-C50F6AA25321";
layerId = "826BB18A-9EF8-47E4-AF71-ABF09D128FA7";
width = 600;
},
{
layerId = "1E834396-7C72-44CF-B9BE-DF3A8E7FF23F";
paths = (
{
closed = 1;
nodes = (
"42 722 OFFCURVE",
"40 608 OFFCURVE",
"36 585 CURVE",
"112 588 OFFCURVE",
"237 588 OFFCURVE",
"313 585 CURVE",
"30 5 LINE",
"213 8 OFFCURVE",
"396 8 OFFCURVE",
"579 5 CURVE",
"577 28 OFFCURVE",
"579 142 OFFCURVE",
"583 165 CURVE",
"504 162 OFFCURVE",
"374 162 OFFCURVE",
"295 165 CURVE",
"579 745 LINE",
"399 742 OFFCURVE",
"220 742 OFFCURVE",
"40 745 CURVE"
);
}
);
width = 613;
},
{
associatedMasterId = "94E4BE91-FC80-477F-8032-C50F6AA25321";
layerId = "9D8030CA-8A89-40D5-8186-0B08A255CDBC";
width = 600;
},
{
layerId = "0E4D5491-561A-4208-9CE2-EBBE0132EEC6";
width = 600;
}
);
note = Z;
unicode = 005A;
},
{
glyphname = a;
lastChange = "2018-09-14 14:19:35 +0000";
layers = (
{
hints = (
{
horizontal = 1;
place = "{367, 68}";
type = Stem;
},
{
place = "{95, 217}";
type = Stem;
}
);
layerId = "94E4BE91-FC80-477F-8032-C50F6AA25321";
paths = (
{
closed = 1;
nodes = (
"356 151 LINE",
"356 101.329 OFFCURVE",
"300.559 64 OFFCURVE",
"226.789 64 CURVE",
"156.076 64 OFFCURVE",
"107 103 OFFCURVE",
"107 178 CURVE",
"107 252 OFFCURVE",
"152.978 303 OFFCURVE",
"241.744 303 CURVE",
"306.794 303 OFFCURVE",
"356 281.036 OFFCURVE",
"356 252 CURVE"
);
},
{
closed = 1;
nodes = (
"144.015 430.152 OFFCURVE",
"162.875 424.09 OFFCURVE",
"181 415 CURVE",
"189.29 431.406 OFFCURVE",
"214.943 441.722 OFFCURVE",
"247.45 441.722 CURVE",
"307.906 441.722 OFFCURVE",
"356 412 OFFCURVE",
"356 362 CURVE",
"356 325 LINE",
"358.067 326.796 OFFCURVE",
"359.23 329.07 OFFCURVE",
"359.23 331.314 CURVE",
"359.23 348.448 OFFCURVE",
"288.932 371 OFFCURVE",
"235.523 371 CURVE",
"113.109 371 OFFCURVE",
"35 289 OFFCURVE",
"35 182 CURVE",
"35 69 OFFCURVE",
"113.574 -5 OFFCURVE",
"215.332 -5 CURVE",
"271.148 -5 OFFCURVE",
"330.714 18.713 OFFCURVE",
"356 51 CURVE",
"356 1 LINE",
"379.907 11.962 OFFCURVE",
"404.038 20.006 OFFCURVE",
"428 25 CURVE",
"428 314 LINE",
"428 374 OFFCURVE",
"418 423 OFFCURVE",
"390 456 CURVE SMOOTH",
"362 489 OFFCURVE",
"310 507 OFFCURVE",
"264.604 506.69 CURVE",
"200.074 506.69 OFFCURVE",
"136.271 473.012 OFFCURVE",
"125 433 CURVE"
);
}
);
width = 488;
},
{
associatedMasterId = "94E4BE91-FC80-477F-8032-C50F6AA25321";
layerId = "826BB18A-9EF8-47E4-AF71-ABF09D128FA7";
width = 600;
},
{
layerId = "1E834396-7C72-44CF-B9BE-DF3A8E7FF23F";
paths = (
{
closed = 1;
nodes = (
"455 314 LINE SMOOTH",
"455 542 OFFCURVE",
"217 514 OFFCURVE",
"70 476 CURVE",
"75 420 OFFCURVE",
"72 389 OFFCURVE",
"70 345 CURVE",
"116 376 OFFCURVE",
"301 392 OFFCURVE",
"301 319 CURVE SMOOTH",
"301 307 OFFCURVE",
"301 291 OFFCURVE",
"301 283 CURVE",
"293 300 OFFCURVE",
"281 333 OFFCURVE",
"182 333 CURVE SMOOTH",
"81 333 OFFCURVE",
"30 258 OFFCURVE",
"30 180 CURVE SMOOTH",
"30 100 OFFCURVE",
"90 -5 OFFCURVE",
"192 -5 CURVE SMOOTH",
"239 -5 OFFCURVE",
"299 40 OFFCURVE",
"301 81 CURVE",
"301 1 LINE",
"325 12 OFFCURVE",
"431 20 OFFCURVE",
"455 25 CURVE"
);
},
{
closed = 1;
nodes = (
"296 138 OFFCURVE",
"268 116 OFFCURVE",
"238 116 CURVE SMOOTH",
"209 116 OFFCURVE",
"184 141 OFFCURVE",
"184 175 CURVE SMOOTH",
"184 204 OFFCURVE",
"203 231 OFFCURVE",
"238 231 CURVE SMOOTH",
"271 231 OFFCURVE",
"296 206 OFFCURVE",
"296 175 CURVE SMOOTH"
);
}
);
width = 485;
},
{
associatedMasterId = "94E4BE91-FC80-477F-8032-C50F6AA25321";
layerId = "9D8030CA-8A89-40D5-8186-0B08A255CDBC";
width = 600;
},
{
layerId = "0E4D5491-561A-4208-9CE2-EBBE0132EEC6";
width = 600;
}
);
leftKerningGroup = a;
note = a;
rightKerningGroup = a;
unicode = 0061;
},
{
glyphname = ae;
lastChange = "2018-09-05 22:00:10 +0000";
layers = (
{
layerId = "94E4BE91-FC80-477F-8032-C50F6AA25321";
paths = (
{
closed = 1;
nodes = (
"551 66 OFFCURVE",
"436 116 OFFCURVE",
"434 238 CURVE",
"823 238 LINE",
"849 272 LINE",
"849 415 OFFCURVE",
"724 503 OFFCURVE",
"606.289 503 CURVE",
"531 503 OFFCURVE",
"461 467 OFFCURVE",
"416 408 CURVE",
"410 426 OFFCURVE",
"401 442 OFFCURVE",
"391.111 453.917 CURVE",
"362 489 OFFCURVE",
"310 507 OFFCURVE",
"263.672 507 CURVE",
"200 507 OFFCURVE",
"136 473 OFFCURVE",
"125 433 CURVE",
"144 430 OFFCURVE",
"163 424 OFFCURVE",
"181 415 CURVE",
"189 431 OFFCURVE",
"215 442 OFFCURVE",
"250.075 442 CURVE",
"308 442 OFFCURVE",
"356 412 OFFCURVE",
"356 362 CURVE",
"356 337 LINE",
"342 353 OFFCURVE",
"282 371 OFFCURVE",
"228.082 371 CURVE",
"113 371 OFFCURVE",
"35 289 OFFCURVE",
"35 179.35 CURVE",
"35 69 OFFCURVE",
"114 -5 OFFCURVE",
"228.18 -5 CURVE",
"268 -5 OFFCURVE",
"364 4 OFFCURVE",
"412 92 CURVE",
"461 30 OFFCURVE",
"538 -3 OFFCURVE",
"609.016 -3 CURVE",
"667 -3 OFFCURVE",
"775 19 OFFCURVE",
"827 133 CURVE",
"805 142 OFFCURVE",
"784 152 OFFCURVE",
"766 165 CURVE",
"732 85 OFFCURVE",
"638 66 OFFCURVE",
"604.822 66 CURVE"
);
},
{
closed = 1;
nodes = (
"687 435 OFFCURVE",
"765 373 OFFCURVE",
"777 298 CURVE",
"443 298 LINE",
"452 351 OFFCURVE",
"517 435 OFFCURVE",
"608.441 435 CURVE"
);
},
{
closed = 1;
nodes = (
"356 101 OFFCURVE",
"301 64 OFFCURVE",
"229.454 64 CURVE",
"156 64 OFFCURVE",
"107 103 OFFCURVE",
"107 178.677 CURVE",
"107 252 OFFCURVE",
"153 303 OFFCURVE",
"245.951 303 CURVE",
"307 303 OFFCURVE",
"356 281 OFFCURVE",
"356 252 CURVE",
"356 151 LINE"
);
}
);
width = 891;
},
{
layerId = "1E834396-7C72-44CF-B9BE-DF3A8E7FF23F";
width = 600;
},
{
layerId = "0E4D5491-561A-4208-9CE2-EBBE0132EEC6";
width = 600;
}
);
leftKerningGroup = a;
rightKerningGroup = e;
unicode = 00E6;
},
{
glyphname = b;
lastChange = "2018-09-05 22:00:10 +0000";
layers = (
{
hints = (
{
horizontal = 1;
place = "{-6, 756}";
type = Stem;
},
{
place = "{114, 237}";
type = Stem;
}
);
layerId = "94E4BE91-FC80-477F-8032-C50F6AA25321";
paths = (
{
closed = 1;
nodes = (
"186 17 OFFCURVE",
"249 -5 OFFCURVE",
"307 -5 CURVE SMOOTH",
"403 -5 OFFCURVE",
"532 84 OFFCURVE",
"532 253 CURVE SMOOTH",
"532 437 OFFCURVE",
"380 504 OFFCURVE",
"301 504 CURVE SMOOTH",
"239 504 OFFCURVE",
"167 479 OFFCURVE",
"132 435 CURVE",
"132 749 LINE",
"108 741 OFFCURVE",
"84 737 OFFCURVE",
"60 735 CURVE",
"60 1 LINE",
"84 9 OFFCURVE",
"108 13 OFFCURVE",
"132 15 CURVE",
"132 63 LINE"
);
},
{
closed = 1;
nodes = (
"132 289 LINE SMOOTH",
"132 375 OFFCURVE",
"216 436 OFFCURVE",
"294 436 CURVE SMOOTH",
"353 436 OFFCURVE",
"461 375 OFFCURVE",
"461 250 CURVE SMOOTH",
"461 132 OFFCURVE",
"361 63 OFFCURVE",
"292 63 CURVE SMOOTH",
"205 63 OFFCURVE",
"132 128 OFFCURVE",
"132 182 CURVE SMOOTH"
);
}
);
width = 574;
},
{
associatedMasterId = "94E4BE91-FC80-477F-8032-C50F6AA25321";
layerId = "826BB18A-9EF8-47E4-AF71-ABF09D128FA7";
width = 600;
},
{
layerId = "1E834396-7C72-44CF-B9BE-DF3A8E7FF23F";
paths = (
{
closed = 1;
nodes = (
"182 750 LINE",
"128 742 OFFCURVE",
"84 738 OFFCURVE",
"30 736 CURVE",
"30 2 LINE",
"90 8 OFFCURVE",
"144 14 OFFCURVE",
"182 15 CURVE",
"182 42 LINE",
"207 16 OFFCURVE",
"262 -6 OFFCURVE",
"326 -6 CURVE SMOOTH",
"443 -6 OFFCURVE",
"554 112 OFFCURVE",
"554 258 CURVE SMOOTH",
"554 406 OFFCURVE",
"439 503 OFFCURVE",
"317 503 CURVE SMOOTH",
"281 503 OFFCURVE",
"207 489 OFFCURVE",
"184 456 CURVE",
"182 457 LINE"
);
},
{
closed = 1;
nodes = (
"393 187 OFFCURVE",
"347 140 OFFCURVE",
"286 140 CURVE SMOOTH",
"219 140 OFFCURVE",
"184 191 OFFCURVE",
"184 246 CURVE SMOOTH",
"184 311 OFFCURVE",
"229 358 OFFCURVE",
"286 358 CURVE SMOOTH",
"342 358 OFFCURVE",
"393 316 OFFCURVE",
"393 247 CURVE SMOOTH"
);
}
);
width = 574;
},
{
associatedMasterId = "94E4BE91-FC80-477F-8032-C50F6AA25321";
layerId = "9D8030CA-8A89-40D5-8186-0B08A255CDBC";
width = 600;
},
{
layerId = "0E4D5491-561A-4208-9CE2-EBBE0132EEC6";
width = 600;
}
);
note = b;
rightKerningGroup = o;
unicode = 0062;
},
{
glyphname = c;
lastChange = "2018-09-14 14:16:02 +0000";
layers = (
{
hints = (
{
horizontal = 1;
place = "{-4, 508}";
type = Stem;
},
{
place = "{29, 373}";
type = Stem;
}
);
layerId = "94E4BE91-FC80-477F-8032-C50F6AA25321";
paths = (
{
closed = 1;
nodes = (
"210 65 OFFCURVE",
"115 128 OFFCURVE",
"115 248 CURVE SMOOTH",
"115 377 OFFCURVE",
"214 435 OFFCURVE",
"285 435 CURVE SMOOTH",
"338 435 OFFCURVE",
"395 406 OFFCURVE",
"417 358 CURVE",
"437 372 OFFCURVE",
"459 383 OFFCURVE",
"483 391 CURVE",
"447 463 OFFCURVE",
"357 503 OFFCURVE",
"285 503 CURVE SMOOTH",
"167 503 OFFCURVE",
"42 415 OFFCURVE",
"42 250 CURVE SMOOTH",
"42 93 OFFCURVE",
"160 -3 OFFCURVE",
"285 -3 CURVE SMOOTH",
"357 -3 OFFCURVE",
"447 35 OFFCURVE",
"482 105 CURVE",
"462 115 OFFCURVE",
"442 127 OFFCURVE",
"424 143 CURVE",
"404 92 OFFCURVE",
"342 65 OFFCURVE",
"285 65 CURVE SMOOTH"
);
}
);
width = 525;
},
{
associatedMasterId = "94E4BE91-FC80-477F-8032-C50F6AA25321";
layerId = "826BB18A-9EF8-47E4-AF71-ABF09D128FA7";
width = 600;
},
{
layerId = "1E834396-7C72-44CF-B9BE-DF3A8E7FF23F";
paths = (
{
closed = 1;
nodes = (
"494 342 LINE",
"455 451 OFFCURVE",
"360 503 OFFCURVE",
"269 503 CURVE SMOOTH",
"151 503 OFFCURVE",
"20 415 OFFCURVE",
"20 250 CURVE SMOOTH",
"20 93 OFFCURVE",
"144 -3 OFFCURVE",
"269 -3 CURVE SMOOTH",
"370 -3 OFFCURVE",
"470 50 OFFCURVE",
"502 161 CURVE",
"355 209 LINE",
"344 170 OFFCURVE",
"315 141 OFFCURVE",
"269 141 CURVE SMOOTH",
"214 141 OFFCURVE",
"172 188 OFFCURVE",
"172 248 CURVE SMOOTH",
"172 317 OFFCURVE",
"218 359 OFFCURVE",
"269 359 CURVE SMOOTH",
"301 359 OFFCURVE",
"329 340 OFFCURVE",
"346 311 CURVE"
);
}
);
width = 522;
},
{
associatedMasterId = "94E4BE91-FC80-477F-8032-C50F6AA25321";
layerId = "9D8030CA-8A89-40D5-8186-0B08A255CDBC";
width = 600;
},
{
layerId = "0E4D5491-561A-4208-9CE2-EBBE0132EEC6";
width = 600;
}
);
leftKerningGroup = o;
note = c;
rightKerningGroup = c;
unicode = 0063;
},
{
glyphname = d;
lastChange = "2018-09-14 14:16:55 +0000";
layers = (
{
hints = (
{
horizontal = 1;
place = "{-6, 756}";
type = Stem;
},
{
place = "{111, 238}";
type = Stem;
}
);
layerId = "94E4BE91-FC80-477F-8032-C50F6AA25321";
paths = (
{
closed = 1;
nodes = (
"434 162 LINE SMOOTH",
"434 86 OFFCURVE",
"364 63 OFFCURVE",
"294 63 CURVE SMOOTH",
"208 63 OFFCURVE",
"114 143 OFFCURVE",
"114 249 CURVE SMOOTH",
"114 347 OFFCURVE",
"195 436 OFFCURVE",
"289 436 CURVE SMOOTH",
"337 436 OFFCURVE",
"434 413 OFFCURVE",
"434 309 CURVE SMOOTH"
);
},
{
closed = 1;
nodes = (
"432 457 LINE",
"409 490 OFFCURVE",
"335 504 OFFCURVE",
"289 504 CURVE SMOOTH",
"167 504 OFFCURVE",
"42 407 OFFCURVE",
"42 259 CURVE SMOOTH",
"42 113 OFFCURVE",
"163 -5 OFFCURVE",
"280 -5 CURVE SMOOTH",
"354 -5 OFFCURVE",
"409 17 OFFCURVE",
"434 43 CURVE",
"434 1 LINE",
"458 9 OFFCURVE",
"482 13 OFFCURVE",
"506 15 CURVE",
"506 749 LINE",
"482 741 OFFCURVE",
"458 737 OFFCURVE",
"434 735 CURVE",
"434 458 LINE"
);
}
);
width = 566;
},
{
associatedMasterId = "94E4BE91-FC80-477F-8032-C50F6AA25321";
layerId = "826BB18A-9EF8-47E4-AF71-ABF09D128FA7";
paths = (
{
closed = 1;
nodes = (
"119 377 OFFCURVE",
"224 435 OFFCURVE",
"295 435 CURVE SMOOTH",
"366 435 OFFCURVE",
"466 372 OFFCURVE",
"466 247 CURVE SMOOTH",
"466 132 OFFCURVE",
"375 65 OFFCURVE",
"295 65 CURVE SMOOTH",
"220 65 OFFCURVE",
"119 128 OFFCURVE",
"119 248 CURVE SMOOTH"
);
},
{
closed = 1;
nodes = (
"46 93 OFFCURVE",
"170 -3 OFFCURVE",
"295 -3 CURVE SMOOTH",
"418 -3 OFFCURVE",
"539 90 OFFCURVE",
"539 249 CURVE SMOOTH",
"539 415 OFFCURVE",
"413 503 OFFCURVE",
"295 503 CURVE SMOOTH",
"177 503 OFFCURVE",
"46 415 OFFCURVE",
"46 250 CURVE SMOOTH"
);
}
);
width = 600;
},
{
layerId = "1E834396-7C72-44CF-B9BE-DF3A8E7FF23F";
paths = (
{
closed = 1;
nodes = (
"390 457 LINE",
"367 490 OFFCURVE",
"293 504 OFFCURVE",
"257 504 CURVE SMOOTH",
"135 504 OFFCURVE",
"20 407 OFFCURVE",
"20 259 CURVE SMOOTH",
"20 113 OFFCURVE",
"131 -5 OFFCURVE",
"248 -5 CURVE SMOOTH",
"312 -5 OFFCURVE",
"367 17 OFFCURVE",
"392 43 CURVE",
"392 0 LINE",
"456 8 OFFCURVE",
"520 13 OFFCURVE",
"544 15 CURVE",
"544 749 LINE",
"509 744 OFFCURVE",
"436 739 OFFCURVE",
"392 735 CURVE",
"392 458 LINE"
);
},
{
closed = 1;
nodes = (
"181 317 OFFCURVE",
"232 359 OFFCURVE",
"288 359 CURVE SMOOTH",
"345 359 OFFCURVE",
"390 312 OFFCURVE",
"390 247 CURVE SMOOTH",
"390 192 OFFCURVE",
"355 141 OFFCURVE",
"288 141 CURVE SMOOTH",
"227 141 OFFCURVE",
"181 188 OFFCURVE",
"181 248 CURVE SMOOTH"
);
}
);
width = 574;
},
{
associatedMasterId = "94E4BE91-FC80-477F-8032-C50F6AA25321";
layerId = "9D8030CA-8A89-40D5-8186-0B08A255CDBC";
width = 600;
},
{
layerId = "0E4D5491-561A-4208-9CE2-EBBE0132EEC6";
width = 600;
}
);
leftKerningGroup = o;
note = d;
rightKerningGroup = l;
unicode = 0064;
},
{
glyphname = e;
lastChange = "2018-09-13 21:02:07 +0000";
layers = (
{
hints = (
{
horizontal = 1;
place = "{67, 140}";
type = Stem;
},
{
horizontal = 1;
place = "{277, 157}";
type = Stem;
},
{
place = "{31, 391}";
type = Stem;
}
);
layerId = "94E4BE91-FC80-477F-8032-C50F6AA25321";
paths = (
{
closed = 1;
nodes = (
"123 298 LINE",
"132 351 OFFCURVE",
"197 435 OFFCURVE",
"289 435 CURVE SMOOTH",
"367 435 OFFCURVE",
"445 373 OFFCURVE",
"457 298 CURVE"
);
},
{
closed = 1;
nodes = (
"503 238 LINE",
"529 272 LINE",
"529 415 OFFCURVE",
"404 503 OFFCURVE",
"288 503 CURVE SMOOTH",
"154 503 OFFCURVE",
"42 393 OFFCURVE",
"42 245 CURVE SMOOTH",
"42 84 OFFCURVE",
"173 -3 OFFCURVE",
"289 -3 CURVE SMOOTH",
"347 -3 OFFCURVE",
"455 19 OFFCURVE",
"507 133 CURVE",
"485 142 OFFCURVE",
"464 152 OFFCURVE",
"446 165 CURVE",
"412 85 OFFCURVE",
"318 66 OFFCURVE",
"285 66 CURVE SMOOTH",
"231 66 OFFCURVE",
"116 116 OFFCURVE",
"114 238 CURVE"
);
}
);
width = 571;
},
{
associatedMasterId = "94E4BE91-FC80-477F-8032-C50F6AA25321";
layerId = "826BB18A-9EF8-47E4-AF71-ABF09D128FA7";
width = 600;
},
{
layerId = "1E834396-7C72-44CF-B9BE-DF3A8E7FF23F";
paths = (
{
closed = 1;
nodes = (
"491 198 LINE",
"517 232 LINE",
"517 435 OFFCURVE",
"382 503 OFFCURVE",
"266 503 CURVE SMOOTH",
"132 503 OFFCURVE",
"20 393 OFFCURVE",
"20 245 CURVE SMOOTH",
"20 84 OFFCURVE",
"151 -3 OFFCURVE",
"267 -3 CURVE SMOOTH",
"325 -3 OFFCURVE",
"433 19 OFFCURVE",
"485 133 CURVE",
"432 144 OFFCURVE",
"405 148 OFFCURVE",
"347 165 CURVE",
"348 134 OFFCURVE",
"305 116 OFFCURVE",
"265 116 CURVE SMOOTH",
"221 116 OFFCURVE",
"183 146 OFFCURVE",
"181 198 CURVE"
);
},
{
closed = 1;
nodes = (
"183 304 LINE",
"187 344 OFFCURVE",
"227 381 OFFCURVE",
"267 381 CURVE SMOOTH",
"302 381 OFFCURVE",
"342 354 OFFCURVE",
"348 304 CURVE"
);
}
);
width = 537;
},
{
associatedMasterId = "94E4BE91-FC80-477F-8032-C50F6AA25321";
layerId = "9D8030CA-8A89-40D5-8186-0B08A255CDBC";
width = 600;
},
{
layerId = "0E4D5491-561A-4208-9CE2-EBBE0132EEC6";
width = 600;
}
);
leftKerningGroup = o;
note = e;
rightKerningGroup = o;
unicode = 0065;
},
{
glyphname = f;
lastChange = "2018-09-14 14:17:07 +0000";
layers = (
{
hints = (
{
horizontal = 1;
place = "{500, 186}";
type = Stem;
},
{
place = "{13, 245}";
type = Stem;
}
);
layerId = "94E4BE91-FC80-477F-8032-C50F6AA25321";
paths = (
{
closed = 1;
nodes = (
"79 431 LINE",
"79 1 LINE",
"103 9 OFFCURVE",
"127 13 OFFCURVE",
"151 15 CURVE",
"151 431 LINE",
"262 431 LINE",
"267 454 OFFCURVE",
"275 476 OFFCURVE",
"286 499 CURVE",
"151 499 LINE",
"151 588 LINE",
"149 673 OFFCURVE",
"264 690 OFFCURVE",
"303 650 CURVE",
"311 671 OFFCURVE",
"321 689 OFFCURVE",
"333 706 CURVE",
"243 784 OFFCURVE",
"79 718 OFFCURVE",
"79 577 CURVE SMOOTH",
"79 499 LINE",
"54 499 LINE",
"49 476 OFFCURVE",
"41 454 OFFCURVE",
"30 431 CURVE"
);
}
);
width = 333;
},
{
associatedMasterId = "94E4BE91-FC80-477F-8032-C50F6AA25321";
layerId = "826BB18A-9EF8-47E4-AF71-ABF09D128FA7";
width = 600;
},
{
layerId = "1E834396-7C72-44CF-B9BE-DF3A8E7FF23F";
paths = (
{
closed = 1;
nodes = (
"357 628 OFFCURVE",
"359 709 OFFCURVE",
"365 730 CURVE",
"221 781 OFFCURVE",
"87 712 OFFCURVE",
"87 560 CURVE SMOOTH",
"87 499 LINE",
"77 499 OFFCURVE",
"68 500 OFFCURVE",
"58 500 CURVE",
"45 452 OFFCURVE",
"29 404 OFFCURVE",
"10 356 CURVE",
"36 357 OFFCURVE",
"61 357 OFFCURVE",
"87 358 CURVE",
"87 0 LINE",
"147 6 OFFCURVE",
"188 8 OFFCURVE",
"238 11 CURVE",
"238 358 LINE",
"264 357 OFFCURVE",
"290 357 OFFCURVE",
"316 356 CURVE",
"324 404 OFFCURVE",
"336 452 OFFCURVE",
"350 500 CURVE",
"313 499 OFFCURVE",
"275 498 OFFCURVE",
"238 498 CURVE",
"240 614 OFFCURVE",
"266 625 OFFCURVE",
"357 607 CURVE"
);
}
);
width = 365;
},
{
associatedMasterId = "94E4BE91-FC80-477F-8032-C50F6AA25321";
layerId = "9D8030CA-8A89-40D5-8186-0B08A255CDBC";
width = 600;
},
{
layerId = "0E4D5491-561A-4208-9CE2-EBBE0132EEC6";
width = 600;
}
);
note = f;
unicode = 0066;
},
{
glyphname = g;
lastChange = "2018-09-14 14:17:01 +0000";
layers = (
{
hints = (
{
horizontal = 1;
place = "{-114, 109}";
type = Stem;
},
{
place = "{109, 237}";
type = Stem;
}
);
layerId = "94E4BE91-FC80-477F-8032-C50F6AA25321";
paths = (
{
closed = 1;
nodes = (
"433 191 LINE SMOOTH",
"433 87 OFFCURVE",
"346 64 OFFCURVE",
"298 64 CURVE SMOOTH",
"216 64 OFFCURVE",
"114 131 OFFCURVE",
"114 251 CURVE SMOOTH",
"114 364 OFFCURVE",
"207 437 OFFCURVE",
"301 437 CURVE SMOOTH",
"360 437 OFFCURVE",
"433 408 OFFCURVE",
"433 338 CURVE SMOOTH"
);
},
{
closed = 1;
nodes = (
"481 491 OFFCURVE",
"457 487 OFFCURVE",
"433 485 CURVE",
"433 457 LINE",
"402 486 OFFCURVE",
"339 505 OFFCURVE",
"287 505 CURVE SMOOTH",
"156 505 OFFCURVE",
"42 386 OFFCURVE",
"42 244 CURVE SMOOTH",
"42 91 OFFCURVE",
"176 -4 OFFCURVE",
"298 -4 CURVE SMOOTH",
"344 -4 OFFCURVE",
"408 10 OFFCURVE",
"431 43 CURVE",
"433 42 LINE",
"433 39 LINE SMOOTH",
"433 -151 OFFCURVE",
"297 -185 OFFCURVE",
"135 -110 CURVE",
"131 -131 OFFCURVE",
"125 -156 OFFCURVE",
"117 -175 CURVE",
"343 -272 OFFCURVE",
"505 -181 OFFCURVE",
"505 39 CURVE SMOOTH",
"505 499 LINE"
);
}
);
width = 565;
},
{
associatedMasterId = "94E4BE91-FC80-477F-8032-C50F6AA25321";
layerId = "826BB18A-9EF8-47E4-AF71-ABF09D128FA7";
width = 600;
},
{
layerId = "1E834396-7C72-44CF-B9BE-DF3A8E7FF23F";
paths = (
{
closed = 1;
nodes = (
"392 460 LINE",
"367 486 OFFCURVE",
"312 508 OFFCURVE",
"248 508 CURVE SMOOTH",
"131 508 OFFCURVE",
"20 390 OFFCURVE",
"20 244 CURVE SMOOTH",
"20 96 OFFCURVE",
"135 -1 OFFCURVE",
"257 -1 CURVE SMOOTH",
"293 -1 OFFCURVE",
"369 13 OFFCURVE",
"392 46 CURVE",
"392 16 LINE",
"392 -93 OFFCURVE",
"205 -83 OFFCURVE",
"115 -25 CURVE",
"115 -46 OFFCURVE",
"113 -157 OFFCURVE",
"107 -178 CURVE",
"278 -261 OFFCURVE",
"544 -201 OFFCURVE",
"544 11 CURVE SMOOTH",
"544 500 LINE",
"484 494 OFFCURVE",
"430 488 OFFCURVE",
"392 487 CURVE"
);
},
{
closed = 1;
nodes = (
"232 144 OFFCURVE",
"181 186 OFFCURVE",
"181 255 CURVE SMOOTH",
"181 315 OFFCURVE",
"228 362 OFFCURVE",
"289 362 CURVE SMOOTH",
"356 362 OFFCURVE",
"392 311 OFFCURVE",
"392 256 CURVE SMOOTH",
"392 191 OFFCURVE",
"346 144 OFFCURVE",
"289 144 CURVE SMOOTH"
);
}
);
width = 574;
},
{
associatedMasterId = "94E4BE91-FC80-477F-8032-C50F6AA25321";
layerId = "9D8030CA-8A89-40D5-8186-0B08A255CDBC";
width = 600;
},
{
layerId = "0E4D5491-561A-4208-9CE2-EBBE0132EEC6";
width = 600;
}
);
leftKerningGroup = o;
note = g;
unicode = 0067;
},
{
glyphname = h;
lastChange = "2018-09-05 22:00:10 +0000";
layers = (
{
hints = (
{
horizontal = 1;
place = "{0, 750}";
type = Stem;
},
{
place = "{117, 210}";
type = Stem;
}
);
layerId = "94E4BE91-FC80-477F-8032-C50F6AA25321";
paths = (
{
closed = 1;
nodes = (
"486 241 LINE SMOOTH",
"486 463 OFFCURVE",
"377 502 OFFCURVE",
"290 502 CURVE SMOOTH",
"213 502 OFFCURVE",
"154 450 OFFCURVE",
"134 384 CURVE",
"132 384 LINE",
"132 750 LINE",
"108 742 OFFCURVE",
"84 737 OFFCURVE",
"60 735 CURVE",
"60 1 LINE",
"84 9 OFFCURVE",
"108 13 OFFCURVE",
"132 15 CURVE",
"132 284 LINE SMOOTH",
"132 355 OFFCURVE",
"213 435 OFFCURVE",
"291 435 CURVE SMOOTH",
"336 435 OFFCURVE",
"414 408 OFFCURVE",
"414 248 CURVE SMOOTH",
"414 1 LINE",
"438 9 OFFCURVE",
"462 13 OFFCURVE",
"486 15 CURVE"
);
}
);
width = 546;
},
{
associatedMasterId = "94E4BE91-FC80-477F-8032-C50F6AA25321";
layerId = "826BB18A-9EF8-47E4-AF71-ABF09D128FA7";
width = 600;
},
{
layerId = "1E834396-7C72-44CF-B9BE-DF3A8E7FF23F";
paths = (
{
closed = 1;
nodes = (
"486 241 LINE",
"486 463 OFFCURVE",
"385 502 OFFCURVE",
"321 502 CURVE",
"213 502 OFFCURVE",
"185 458 OFFCURVE",
"184 449 CURVE",
"182 449 LINE",
"182 748 LINE",
"158 740 OFFCURVE",
"54 735 OFFCURVE",
"30 733 CURVE",
"30 1 LINE",
"54 9 OFFCURVE",
"158 13 OFFCURVE",
"182 15 CURVE",
"182 214 LINE",
"182 285 OFFCURVE",
"193 365 OFFCURVE",
"257 365 CURVE",
"326 365 OFFCURVE",
"334 272 OFFCURVE",
"334 212 CURVE",
"334 1 LINE",
"358 9 OFFCURVE",
"462 13 OFFCURVE",
"486 15 CURVE"
);
}
);
width = 516;
},
{
associatedMasterId = "94E4BE91-FC80-477F-8032-C50F6AA25321";
layerId = "9D8030CA-8A89-40D5-8186-0B08A255CDBC";
width = 600;
},
{
layerId = "0E4D5491-561A-4208-9CE2-EBBE0132EEC6";
width = 600;
}
);
note = h;
unicode = 0068;
},
{
glyphname = i;
lastChange = "2018-09-14 02:10:32 +0000";
layers = (
{
hints = (
{
horizontal = 1;
place = "{0, 628}";
type = Stem;
},
{
place = "{48, 83}";
type = Stem;
}
);
layerId = "94E4BE91-FC80-477F-8032-C50F6AA25321";
paths = (
{
closed = 1;
nodes = (
"122 491 OFFCURVE",
"98 486 OFFCURVE",
"74 484 CURVE",
"74 1 LINE",
"98 9 OFFCURVE",
"122 13 OFFCURVE",
"146 15 CURVE",
"146 499 LINE"
);
},
{
closed = 1;
nodes = (
"60 594 OFFCURVE",
"87 576 OFFCURVE",
"110 576 CURVE SMOOTH",
"133 576 OFFCURVE",
"161 594 OFFCURVE",
"161 626 CURVE SMOOTH",
"161 658 OFFCURVE",
"133 677 OFFCURVE",
"110 677 CURVE SMOOTH",
"87 677 OFFCURVE",
"60 658 OFFCURVE",
"60 626 CURVE SMOOTH"
);
}
);
width = 221;
},
{
associatedMasterId = "94E4BE91-FC80-477F-8032-C50F6AA25321";
layerId = "826BB18A-9EF8-47E4-AF71-ABF09D128FA7";
width = 600;
},
{
layerId = "1E834396-7C72-44CF-B9BE-DF3A8E7FF23F";
paths = (
{
closed = 1;
nodes = (
"146 492 OFFCURVE",
"68 486 OFFCURVE",
"44 484 CURVE",
"44 1 LINE",
"73 5 OFFCURVE",
"173 13 OFFCURVE",
"197 15 CURVE",
"197 499 LINE"
);
},
{
closed = 1;
nodes = (
"30 608 OFFCURVE",
"77 576 OFFCURVE",
"117 576 CURVE SMOOTH",
"157 576 OFFCURVE",
"207 608 OFFCURVE",
"207 663 CURVE SMOOTH",
"207 719 OFFCURVE",
"157 753 OFFCURVE",
"117 753 CURVE SMOOTH",
"77 753 OFFCURVE",
"30 719 OFFCURVE",
"30 663 CURVE SMOOTH"
);
}
);
width = 237;
},
{
associatedMasterId = "94E4BE91-FC80-477F-8032-C50F6AA25321";
layerId = "9D8030CA-8A89-40D5-8186-0B08A255CDBC";
width = 600;
},
{
layerId = "0E4D5491-561A-4208-9CE2-EBBE0132EEC6";
width = 600;
}
);
note = i;
unicode = 0069;
},
{
glyphname = iacute;
lastChange = "2018-09-12 21:02:46 +0000";
layers = (
{
components = (
{
name = acute;
transform = "{1, 0, 0, 1, -106, -24}";
}
);
layerId = "94E4BE91-FC80-477F-8032-C50F6AA25321";
paths = (
{
closed = 1;
nodes = (
"122 491 OFFCURVE",
"98 486 OFFCURVE",
"74 484 CURVE",
"74 1 LINE",
"98 9 OFFCURVE",
"122 13 OFFCURVE",
"146 15 CURVE",
"146 499 LINE"
);
}
);
width = 231;
},
{
layerId = "1E834396-7C72-44CF-B9BE-DF3A8E7FF23F";
width = 600;
},
{
layerId = "0E4D5491-561A-4208-9CE2-EBBE0132EEC6";
width = 600;
}
);
unicode = 00ED;
},
{
glyphname = icircumflex;
lastChange = "2018-09-05 22:00:10 +0000";
layers = (
{
components = (
{
name = circumflex;
transform = "{1, 0, 0, 1, -185, -29}";
}
);
layerId = "94E4BE91-FC80-477F-8032-C50F6AA25321";
paths = (
{
closed = 1;
nodes = (
"122 491 OFFCURVE",
"98 486 OFFCURVE",
"74 484 CURVE",
"74 1 LINE",
"98 9 OFFCURVE",
"122 13 OFFCURVE",
"146 15 CURVE",
"146 499 LINE"
);
}
);
width = 218;
},
{
layerId = "1E834396-7C72-44CF-B9BE-DF3A8E7FF23F";
width = 600;
},
{
layerId = "0E4D5491-561A-4208-9CE2-EBBE0132EEC6";
width = 600;
}
);
unicode = 00EE;
},
{
glyphname = idieresis;
lastChange = "2018-09-05 22:00:10 +0000";
layers = (
{
components = (
{
name = dieresis;
transform = "{1, 0, 0, 1, -180, -61}";
}
);
layerId = "94E4BE91-FC80-477F-8032-C50F6AA25321";
paths = (
{
closed = 1;
nodes = (
"122 491 OFFCURVE",
"98 486 OFFCURVE",
"74 484 CURVE",
"74 1 LINE",
"98 9 OFFCURVE",
"122 13 OFFCURVE",
"146 15 CURVE",
"146 499 LINE"
);
}
);
width = 231;
},
{
layerId = "1E834396-7C72-44CF-B9BE-DF3A8E7FF23F";
width = 600;
},
{
layerId = "0E4D5491-561A-4208-9CE2-EBBE0132EEC6";
width = 600;
}
);
unicode = 00EF;
},
{
glyphname = igrave;
lastChange = "2018-09-12 21:02:56 +0000";
layers = (
{
components = (
{
name = grave;
transform = "{1, 0, 0, 1, -282, -29}";
}
);
layerId = "94E4BE91-FC80-477F-8032-C50F6AA25321";
paths = (
{
closed = 1;
nodes = (
"122 491 OFFCURVE",
"98 486 OFFCURVE",
"74 484 CURVE",
"74 1 LINE",
"98 9 OFFCURVE",
"122 13 OFFCURVE",
"146 15 CURVE",
"146 499 LINE"
);
}
);
width = 224;
},
{
layerId = "1E834396-7C72-44CF-B9BE-DF3A8E7FF23F";
width = 600;
},
{
layerId = "0E4D5491-561A-4208-9CE2-EBBE0132EEC6";
width = 600;
}
);
unicode = 00EC;
},
{
glyphname = j;
lastChange = "2018-09-05 22:00:10 +0000";
layers = (
{
hints = (
{
horizontal = 1;
place = "{-176, 804}";
type = Stem;
},
{
place = "{-65, 206}";
type = Stem;
}
);
layerId = "94E4BE91-FC80-477F-8032-C50F6AA25321";
paths = (
{
closed = 1;
nodes = (
"111 491 OFFCURVE",
"87 487 OFFCURVE",
"63 485 CURVE",
"63 11 LINE SMOOTH",
"63 -115 OFFCURVE",
"38 -115 OFFCURVE",
"-56 -96 CURVE",
"-56 -117 OFFCURVE",
"-58 -138 OFFCURVE",
"-64 -159 CURVE",
"80 -210 OFFCURVE",
"135 -141 OFFCURVE",
"135 11 CURVE SMOOTH",
"135 499 LINE"
);
},
{
closed = 1;
nodes = (
"48 594 OFFCURVE",
"75 576 OFFCURVE",
"98 576 CURVE SMOOTH",
"121 576 OFFCURVE",
"149 594 OFFCURVE",
"149 626 CURVE SMOOTH",
"149 658 OFFCURVE",
"121 677 OFFCURVE",
"98 677 CURVE SMOOTH",
"75 677 OFFCURVE",
"48 658 OFFCURVE",
"48 626 CURVE SMOOTH"
);
}
);
width = 200;
},
{
layerId = "1E834396-7C72-44CF-B9BE-DF3A8E7FF23F";
paths = (
{
closed = 1;
nodes = (
"184 491 OFFCURVE",
"81 487 OFFCURVE",
"57 485 CURVE",
"57 81 LINE SMOOTH",
"57 -45 OFFCURVE",
"32 -55 OFFCURVE",
"-62 -36 CURVE",
"-62 -57 OFFCURVE",
"-64 -138 OFFCURVE",
"-70 -159 CURVE",
"74 -210 OFFCURVE",
"208 -141 OFFCURVE",
"208 11 CURVE SMOOTH",
"208 499 LINE"
);
},
{
closed = 1;
nodes = (
"38 608 OFFCURVE",
"85 576 OFFCURVE",
"125 576 CURVE SMOOTH",
"165 576 OFFCURVE",
"215 608 OFFCURVE",
"215 663 CURVE SMOOTH",
"215 719 OFFCURVE",
"165 753 OFFCURVE",
"125 753 CURVE SMOOTH",
"85 753 OFFCURVE",
"38 719 OFFCURVE",
"38 663 CURVE SMOOTH"
);
}
);
width = 245;
},
{
associatedMasterId = "94E4BE91-FC80-477F-8032-C50F6AA25321";
layerId = "9D8030CA-8A89-40D5-8186-0B08A255CDBC";
width = 600;
},
{
layerId = "0E4D5491-561A-4208-9CE2-EBBE0132EEC6";
width = 600;
}
);
note = j;
unicode = 006A;
},
{
glyphname = k;
lastChange = "2018-09-14 02:12:14 +0000";
layers = (
{
hints = (
{
horizontal = 1;
place = "{0, 750}";
type = Stem;
},
{
place = "{111, 49}";
type = Stem;
}
);
layerId = "94E4BE91-FC80-477F-8032-C50F6AA25321";
paths = (
{
closed = 1;
nodes = (
"132 303 LINE",
"132 749 LINE",
"108 741 OFFCURVE",
"84 736 OFFCURVE",
"60 734 CURVE",
"60 1 LINE",
"84 9 OFFCURVE",
"108 13 OFFCURVE",
"132 15 CURVE",
"132 208 LINE",
"132 209 LINE",
"182 253 LINE",
"387 1 LINE",
"408 11 OFFCURVE",
"430 19 OFFCURVE",
"455 25 CURVE",
"234 295 LINE",
"434 476 LINE",
"410 481 OFFCURVE",
"386 488 OFFCURVE",
"364 499 CURVE"
);
}
);
width = 485;
},
{
layerId = "1E834396-7C72-44CF-B9BE-DF3A8E7FF23F";
paths = (
{
closed = 1;
nodes = (
"182 353 LINE",
"182 749 LINE",
"108 741 OFFCURVE",
"54 736 OFFCURVE",
"30 734 CURVE",
"30 1 LINE",
"94 9 OFFCURVE",
"158 13 OFFCURVE",
"182 15 CURVE",
"182 208 LINE",
"297 1 LINE",
"346 11 OFFCURVE",
"380 19 OFFCURVE",
"465 25 CURVE",
"294 275 LINE",
"444 476 LINE",
"404 478 OFFCURVE",
"335 488 OFFCURVE",
"284 499 CURVE"
);
}
);
width = 475;
},
{
associatedMasterId = "94E4BE91-FC80-477F-8032-C50F6AA25321";
layerId = "9D8030CA-8A89-40D5-8186-0B08A255CDBC";
width = 600;
},
{
layerId = "0E4D5491-561A-4208-9CE2-EBBE0132EEC6";
width = 600;
}
);
leftKerningGroup = l;
note = k;
unicode = 006B;
},
{
glyphname = l;
lastChange = "2018-09-14 02:12:24 +0000";
layers = (
{
hints = (
{
horizontal = 1;
place = "{0, 750}";
type = Stem;
},
{
place = "{57, 74}";
type = Stem;
}
);
layerId = "94E4BE91-FC80-477F-8032-C50F6AA25321";
paths = (
{
closed = 1;
nodes = (
"108 741 OFFCURVE",
"84 736 OFFCURVE",
"60 734 CURVE",
"60 1 LINE",
"84 9 OFFCURVE",
"108 13 OFFCURVE",
"132 15 CURVE",
"132 749 LINE"
);
}
);
width = 192;
},
{
associatedMasterId = "94E4BE91-FC80-477F-8032-C50F6AA25321";
layerId = "826BB18A-9EF8-47E4-AF71-ABF09D128FA7";
width = 600;
},
{
layerId = "1E834396-7C72-44CF-B9BE-DF3A8E7FF23F";
paths = (
{
closed = 1;
nodes = (
"97 741 OFFCURVE",
"54 736 OFFCURVE",
"30 734 CURVE",
"30 1 LINE",
"94 9 OFFCURVE",
"157 13 OFFCURVE",
"181 15 CURVE",
"181 749 LINE"
);
}
);
width = 211;
},
{
associatedMasterId = "94E4BE91-FC80-477F-8032-C50F6AA25321";
layerId = "9D8030CA-8A89-40D5-8186-0B08A255CDBC";
width = 600;
},
{
layerId = "0E4D5491-561A-4208-9CE2-EBBE0132EEC6";
width = 600;
}
);
leftKerningGroup = l;
note = l;
rightKerningGroup = l;
unicode = 006C;
},
{
glyphname = m;
lastChange = "2018-09-14 14:16:32 +0000";
layers = (
{
hints = (
{
horizontal = 1;
place = "{0, 503}";
type = Stem;
},
{
place = "{114, 179}";
type = Stem;
},
{
place = "{368, 179}";
type = Stem;
}
);
layerId = "94E4BE91-FC80-477F-8032-C50F6AA25321";
paths = (
{
closed = 1;
nodes = (
"699 331 LINE SMOOTH",
"699 415 OFFCURVE",
"632 502 OFFCURVE",
"537 502 CURVE SMOOTH",
"492 502 OFFCURVE",
"427 475 OFFCURVE",
"397 419 CURVE",
"373 472 OFFCURVE",
"309 502 OFFCURVE",
"253 502 CURVE SMOOTH",
"197 502 OFFCURVE",
"150 471 OFFCURVE",
"134 414 CURVE",
"132 414 LINE",
"132 499 LINE",
"108 491 OFFCURVE",
"84 486 OFFCURVE",
"60 484 CURVE",
"60 1 LINE",
"84 9 OFFCURVE",
"108 13 OFFCURVE",
"132 15 CURVE",
"132 314 LINE SMOOTH",
"132 395 OFFCURVE",
"176 435 OFFCURVE",
"243 435 CURVE SMOOTH",
"299 435 OFFCURVE",
"344 392 OFFCURVE",
"344 338 CURVE SMOOTH",
"344 1 LINE",
"368 9 OFFCURVE",
"392 13 OFFCURVE",
"416 15 CURVE",
"416 314 LINE SMOOTH",
"416 395 OFFCURVE",
"460 435 OFFCURVE",
"527 435 CURVE SMOOTH",
"583 435 OFFCURVE",
"627 392 OFFCURVE",
"627 338 CURVE SMOOTH",
"627 1 LINE",
"651 9 OFFCURVE",
"675 13 OFFCURVE",
"699 15 CURVE"
);
}
);
width = 759;
},
{
associatedMasterId = "94E4BE91-FC80-477F-8032-C50F6AA25321";
layerId = "826BB18A-9EF8-47E4-AF71-ABF09D128FA7";
width = 600;
},
{
layerId = "1E834396-7C72-44CF-B9BE-DF3A8E7FF23F";
paths = (
{
closed = 1;
nodes = (
"456 241 LINE",
"456 463 OFFCURVE",
"367 502 OFFCURVE",
"303 502 CURVE",
"235 502 OFFCURVE",
"194 485 OFFCURVE",
"182 449 CURVE",
"182 499 LINE",
"108 491 OFFCURVE",
"54 486 OFFCURVE",
"30 484 CURVE",
"30 0 LINE",
"104 8 OFFCURVE",
"158 13 OFFCURVE",
"182 15 CURVE",
"182 214 LINE",
"182 285 OFFCURVE",
"183 365 OFFCURVE",
"247 365 CURVE",
"311 365 OFFCURVE",
"304 272 OFFCURVE",
"304 212 CURVE",
"304 1 LINE",
"378 9 OFFCURVE",
"432 13 OFFCURVE",
"456 15 CURVE"
);
},
{
closed = 1;
nodes = (
"456 241 LINE",
"456 347 OFFCURVE",
"490 366 OFFCURVE",
"518 366 CURVE",
"586 366 OFFCURVE",
"577 272 OFFCURVE",
"577 212 CURVE",
"577 1 LINE",
"651 9 OFFCURVE",
"702 13 OFFCURVE",
"726 15 CURVE",
"726 241 LINE",
"726 463 OFFCURVE",
"627 502 OFFCURVE",
"563 502 CURVE",
"460 502 OFFCURVE",
"434 435 OFFCURVE",
"416 410 CURVE"
);
}
);
width = 756;
},
{
associatedMasterId = "94E4BE91-FC80-477F-8032-C50F6AA25321";
layerId = "9D8030CA-8A89-40D5-8186-0B08A255CDBC";
paths = (
{
closed = 1;
nodes = (
"729 241 LINE",
"729 463 OFFCURVE",
"640 502 OFFCURVE",
"576 502 CURVE",
"508 502 OFFCURVE",
"467 485 OFFCURVE",
"455 449 CURVE",
"455 499 LINE",
"431 491 OFFCURVE",
"327 486 OFFCURVE",
"303 484 CURVE",
"303 1 LINE",
"327 9 OFFCURVE",
"431 13 OFFCURVE",
"455 15 CURVE",
"455 214 LINE",
"455 285 OFFCURVE",
"456 365 OFFCURVE",
"520 365 CURVE",
"584 365 OFFCURVE",
"577 272 OFFCURVE",
"577 212 CURVE",
"577 1 LINE",
"601 9 OFFCURVE",
"705 13 OFFCURVE",
"729 15 CURVE"
);
},
{
closed = 1;
nodes = (
"729 241 LINE",
"729 347 OFFCURVE",
"752 365 OFFCURVE",
"780 365 CURVE",
"849 365 OFFCURVE",
"847 272 OFFCURVE",
"847 212 CURVE",
"847 1 LINE",
"871 9 OFFCURVE",
"975 13 OFFCURVE",
"999 15 CURVE",
"999 241 LINE",
"999 463 OFFCURVE",
"900 502 OFFCURVE",
"836 502 CURVE",
"733 502 OFFCURVE",
"707 435 OFFCURVE",
"689 410 CURVE"
);
}
);
width = 600;
},
{
layerId = "0E4D5491-561A-4208-9CE2-EBBE0132EEC6";
width = 600;
}
);
note = m;
unicode = 006D;
},
{
glyphname = n;
lastChange = "2018-09-14 14:16:36 +0000";
layers = (
{
hints = (
{
horizontal = 1;
place = "{0, 503}";
type = Stem;
},
{
place = "{128, 210}";
type = Stem;
}
);
layerId = "94E4BE91-FC80-477F-8032-C50F6AA25321";
paths = (
{
closed = 1;
nodes = (
"486 241 LINE SMOOTH",
"486 463 OFFCURVE",
"377 502 OFFCURVE",
"290 502 CURVE SMOOTH",
"213 502 OFFCURVE",
"154 450 OFFCURVE",
"134 384 CURVE",
"132 384 LINE",
"132 499 LINE",
"108 491 OFFCURVE",
"84 486 OFFCURVE",
"60 484 CURVE",
"60 1 LINE",
"84 9 OFFCURVE",
"108 13 OFFCURVE",
"132 15 CURVE",
"132 284 LINE SMOOTH",
"132 355 OFFCURVE",
"213 435 OFFCURVE",
"291 435 CURVE SMOOTH",
"336 435 OFFCURVE",
"414 408 OFFCURVE",
"414 248 CURVE SMOOTH",
"414 1 LINE",
"438 9 OFFCURVE",
"462 13 OFFCURVE",
"486 15 CURVE"
);
}
);
width = 546;
},
{
associatedMasterId = "94E4BE91-FC80-477F-8032-C50F6AA25321";
layerId = "826BB18A-9EF8-47E4-AF71-ABF09D128FA7";
width = 600;
},
{
layerId = "1E834396-7C72-44CF-B9BE-DF3A8E7FF23F";
paths = (
{
closed = 1;
nodes = (
"486 241 LINE",
"486 463 OFFCURVE",
"385 502 OFFCURVE",
"321 502 CURVE",
"213 502 OFFCURVE",
"185 458 OFFCURVE",
"184 449 CURVE",
"182 449 LINE",
"182 499 LINE",
"131 493 OFFCURVE",
"54 486 OFFCURVE",
"30 484 CURVE",
"30 0 LINE",
"84 5 OFFCURVE",
"158 13 OFFCURVE",
"182 15 CURVE",
"182 214 LINE",
"182 285 OFFCURVE",
"193 365 OFFCURVE",
"257 365 CURVE",
"326 365 OFFCURVE",
"334 272 OFFCURVE",
"334 212 CURVE",
"334 0 LINE",
"358 5 OFFCURVE",
"462 13 OFFCURVE",
"486 15 CURVE"
);
}
);
width = 516;
},
{
associatedMasterId = "94E4BE91-FC80-477F-8032-C50F6AA25321";
layerId = "9D8030CA-8A89-40D5-8186-0B08A255CDBC";
width = 600;
},
{
layerId = "0E4D5491-561A-4208-9CE2-EBBE0132EEC6";
width = 600;
}
);
note = n;
unicode = 006E;
},
{
glyphname = o;
lastChange = "2018-09-16 02:21:21 +0000";
layers = (
{
hints = (
{
horizontal = 1;
place = "{-4, 508}";
type = Stem;
},
{
place = "{28, 403}";
type = Stem;
},
{
place = "{103, 253}";
type = Stem;
}
);
layerId = "94E4BE91-FC80-477F-8032-C50F6AA25321";
paths = (
{
closed = 1;
nodes = (
"115 377 OFFCURVE",
"220 435 OFFCURVE",
"291 435 CURVE SMOOTH",
"362 435 OFFCURVE",
"462 372 OFFCURVE",
"462 247 CURVE SMOOTH",
"462 132 OFFCURVE",
"371 65 OFFCURVE",
"291 65 CURVE SMOOTH",
"216 65 OFFCURVE",
"115 128 OFFCURVE",
"115 248 CURVE SMOOTH"
);
},
{
closed = 1;
nodes = (
"42 93 OFFCURVE",
"166 -3 OFFCURVE",
"291 -3 CURVE SMOOTH",
"414 -3 OFFCURVE",
"535 90 OFFCURVE",
"535 249 CURVE SMOOTH",
"535 415 OFFCURVE",
"409 503 OFFCURVE",
"291 503 CURVE SMOOTH",
"173 503 OFFCURVE",
"42 415 OFFCURVE",
"42 250 CURVE SMOOTH"
);
}
);
width = 577;
},
{
associatedMasterId = "94E4BE91-FC80-477F-8032-C50F6AA25321";
layerId = "826BB18A-9EF8-47E4-AF71-ABF09D128FA7";
width = 600;
},
{
layerId = "1E834396-7C72-44CF-B9BE-DF3A8E7FF23F";
paths = (
{
closed = 1;
nodes = (
"172 317 OFFCURVE",
"218 359 OFFCURVE",
"269 359 CURVE SMOOTH",
"320 359 OFFCURVE",
"361 312 OFFCURVE",
"361 247 CURVE SMOOTH",
"361 192 OFFCURVE",
"329 141 OFFCURVE",
"269 141 CURVE SMOOTH",
"214 141 OFFCURVE",
"172 188 OFFCURVE",
"172 248 CURVE SMOOTH"
);
},
{
closed = 1;
nodes = (
"20 93 OFFCURVE",
"144 -3 OFFCURVE",
"269 -3 CURVE SMOOTH",
"392 -3 OFFCURVE",
"513 90 OFFCURVE",
"513 249 CURVE SMOOTH",
"513 415 OFFCURVE",
"387 503 OFFCURVE",
"269 503 CURVE SMOOTH",
"151 503 OFFCURVE",
"20 415 OFFCURVE",
"20 250 CURVE SMOOTH"
);
}
);
width = 533;
},
{
associatedMasterId = "94E4BE91-FC80-477F-8032-C50F6AA25321";
layerId = "9D8030CA-8A89-40D5-8186-0B08A255CDBC";
width = 600;
},
{
layerId = "0E4D5491-561A-4208-9CE2-EBBE0132EEC6";
width = 600;
}
);
leftKerningGroup = o;
note = o;
rightKerningGroup = o;
unicode = 006F;
},
{
glyphname = oslash;
lastChange = "2018-09-05 22:00:10 +0000";
layers = (
{
layerId = "94E4BE91-FC80-477F-8032-C50F6AA25321";
paths = (
{
closed = 1;
nodes = (
"115 377 OFFCURVE",
"220 435 OFFCURVE",
"291 435 CURVE SMOOTH",
"362 435 OFFCURVE",
"462 372 OFFCURVE",
"462 247 CURVE SMOOTH",
"462 132 OFFCURVE",
"371 65 OFFCURVE",
"291 65 CURVE SMOOTH",
"216 65 OFFCURVE",
"115 128 OFFCURVE",
"115 248 CURVE SMOOTH"
);
},
{
closed = 1;
nodes = (
"42 93 OFFCURVE",
"166 -3 OFFCURVE",
"291 -3 CURVE SMOOTH",
"414 -3 OFFCURVE",
"535 90 OFFCURVE",
"535 249 CURVE SMOOTH",
"535 415 OFFCURVE",
"409 503 OFFCURVE",
"291 503 CURVE SMOOTH",
"173 503 OFFCURVE",
"42 415 OFFCURVE",
"42 250 CURVE SMOOTH"
);
},
{
closed = 1;
nodes = (
"467 472 OFFCURVE",
"446 476 OFFCURVE",
"427 483 CURVE",
"100 39 LINE",
"119 34 OFFCURVE",
"135 26 OFFCURVE",
"152 15 CURVE",
"489 471 LINE"
);
}
);
width = 577;
},
{
layerId = "1E834396-7C72-44CF-B9BE-DF3A8E7FF23F";
width = 600;
},
{
layerId = "0E4D5491-561A-4208-9CE2-EBBE0132EEC6";
width = 600;
}
);
leftKerningGroup = o;
rightKerningGroup = o;
unicode = 00F8;
},
{
glyphname = oe;
lastChange = "2018-09-05 22:00:10 +0000";
layers = (
{
layerId = "94E4BE91-FC80-477F-8032-C50F6AA25321";
paths = (
{
closed = 1;
nodes = (
"210 65 OFFCURVE",
"115 128 OFFCURVE",
"115 248 CURVE SMOOTH",
"115 377 OFFCURVE",
"214 435 OFFCURVE",
"285 435 CURVE SMOOTH",
"338 435 OFFCURVE",
"395 406 OFFCURVE",
"417 358 CURVE",
"437 372 OFFCURVE",
"459 383 OFFCURVE",
"483 391 CURVE",
"447 463 OFFCURVE",
"357 503 OFFCURVE",
"285 503 CURVE SMOOTH",
"167 503 OFFCURVE",
"42 415 OFFCURVE",
"42 250 CURVE SMOOTH",
"42 93 OFFCURVE",
"160 -3 OFFCURVE",
"285 -3 CURVE SMOOTH",
"357 -3 OFFCURVE",
"447 35 OFFCURVE",
"482 105 CURVE",
"462 115 OFFCURVE",
"442 127 OFFCURVE",
"424 143 CURVE",
"404 92 OFFCURVE",
"342 65 OFFCURVE",
"285 65 CURVE SMOOTH"
);
},
{
closed = 1;
nodes = (
"463 298 LINE",
"472 351 OFFCURVE",
"537 435 OFFCURVE",
"629 435 CURVE SMOOTH",
"707 435 OFFCURVE",
"785 373 OFFCURVE",
"797 298 CURVE"
);
},
{
closed = 1;
nodes = (
"843 238 LINE",
"869 272 LINE",
"869 415 OFFCURVE",
"744 503 OFFCURVE",
"628 503 CURVE SMOOTH",
"494 503 OFFCURVE",
"382 393 OFFCURVE",
"382 245 CURVE SMOOTH",
"382 84 OFFCURVE",
"513 -3 OFFCURVE",
"629 -3 CURVE SMOOTH",
"687 -3 OFFCURVE",
"795 19 OFFCURVE",
"847 133 CURVE",
"825 142 OFFCURVE",
"804 152 OFFCURVE",
"786 165 CURVE",
"752 85 OFFCURVE",
"658 66 OFFCURVE",
"625 66 CURVE SMOOTH",
"571 66 OFFCURVE",
"456 116 OFFCURVE",
"454 238 CURVE"
);
}
);
width = 911;
},
{
layerId = "1E834396-7C72-44CF-B9BE-DF3A8E7FF23F";
width = 600;
},
{
layerId = "0E4D5491-561A-4208-9CE2-EBBE0132EEC6";
width = 600;
}
);
leftKerningGroup = o;
rightKerningGroup = o;
unicode = 0153;
},
{
glyphname = p;
lastChange = "2018-09-14 14:16:41 +0000";
layers = (
{
hints = (
{
horizontal = 1;
place = "{-180, 686}";
type = Stem;
},
{
place = "{108, 238}";
type = Stem;
}
);
layerId = "94E4BE91-FC80-477F-8032-C50F6AA25321";
paths = (
{
closed = 1;
nodes = (
"132 338 LINE SMOOTH",
"132 413 OFFCURVE",
"215 437 OFFCURVE",
"262 437 CURVE SMOOTH",
"357 437 OFFCURVE",
"442 359 OFFCURVE",
"442 250 CURVE SMOOTH",
"442 148 OFFCURVE",
"357 64 OFFCURVE",
"267 64 CURVE SMOOTH",
"220 64 OFFCURVE",
"132 87 OFFCURVE",
"132 191 CURVE SMOOTH"
);
},
{
closed = 1;
nodes = (
"134 43 LINE",
"157 10 OFFCURVE",
"221 -4 OFFCURVE",
"267 -4 CURVE SMOOTH",
"389 -4 OFFCURVE",
"514 90 OFFCURVE",
"514 245 CURVE SMOOTH",
"514 386 OFFCURVE",
"410 505 OFFCURVE",
"279 505 CURVE SMOOTH",
"228 505 OFFCURVE",
"164 487 OFFCURVE",
"132 457 CURVE",
"132 499 LINE",
"108 491 OFFCURVE",
"84 487 OFFCURVE",
"60 485 CURVE",
"60 -179 LINE",
"84 -171 OFFCURVE",
"108 -167 OFFCURVE",
"132 -165 CURVE",
"132 42 LINE"
);
}
);
width = 556;
},
{
layerId = "1E834396-7C72-44CF-B9BE-DF3A8E7FF23F";
paths = (
{
closed = 1;
nodes = (
"184 42 LINE",
"207 9 OFFCURVE",
"281 -5 OFFCURVE",
"317 -5 CURVE SMOOTH",
"439 -5 OFFCURVE",
"554 92 OFFCURVE",
"554 240 CURVE SMOOTH",
"554 386 OFFCURVE",
"443 504 OFFCURVE",
"326 504 CURVE SMOOTH",
"262 504 OFFCURVE",
"207 482 OFFCURVE",
"182 456 CURVE",
"182 498 LINE",
"108 490 OFFCURVE",
"54 486 OFFCURVE",
"30 484 CURVE",
"30 -250 LINE",
"104 -242 OFFCURVE",
"158 -238 OFFCURVE",
"182 -236 CURVE",
"182 41 LINE"
);
},
{
closed = 1;
nodes = (
"393 182 OFFCURVE",
"347 140 OFFCURVE",
"296 140 CURVE SMOOTH",
"245 140 OFFCURVE",
"204 187 OFFCURVE",
"204 252 CURVE SMOOTH",
"204 307 OFFCURVE",
"236 358 OFFCURVE",
"296 358 CURVE SMOOTH",
"351 358 OFFCURVE",
"393 311 OFFCURVE",
"393 251 CURVE SMOOTH"
);
}
);
width = 574;
},
{
associatedMasterId = "94E4BE91-FC80-477F-8032-C50F6AA25321";
layerId = "9D8030CA-8A89-40D5-8186-0B08A255CDBC";
width = 600;
},
{
layerId = "0E4D5491-561A-4208-9CE2-EBBE0132EEC6";
width = 600;
}
);
note = p;
rightKerningGroup = o;
unicode = 0070;
},
{
glyphname = q;
lastChange = "2018-09-05 22:00:10 +0000";
layers = (
{
hints = (
{
horizontal = 1;
place = "{-180, 686}";
type = Stem;
},
{
place = "{98, 237}";
type = Stem;
}
);
layerId = "94E4BE91-FC80-477F-8032-C50F6AA25321";
paths = (
{
closed = 1;
nodes = (
"402 483 OFFCURVE",
"330 505 OFFCURVE",
"290 505 CURVE SMOOTH",
"146 505 OFFCURVE",
"46 386 OFFCURVE",
"46 246 CURVE SMOOTH",
"46 90 OFFCURVE",
"171 -4 OFFCURVE",
"292 -4 CURVE SMOOTH",
"338 -4 OFFCURVE",
"402 10 OFFCURVE",
"425 43 CURVE",
"427 42 LINE",
"427 -179 LINE",
"451 -171 OFFCURVE",
"475 -167 OFFCURVE",
"499 -165 CURVE",
"499 499 LINE",
"475 491 OFFCURVE",
"451 487 OFFCURVE",
"427 485 CURVE",
"427 457 LINE"
);
},
{
closed = 1;
nodes = (
"427 191 LINE SMOOTH",
"427 87 OFFCURVE",
"339 64 OFFCURVE",
"295 64 CURVE SMOOTH",
"212 64 OFFCURVE",
"118 133 OFFCURVE",
"118 261 CURVE SMOOTH",
"118 338 OFFCURVE",
"190 437 OFFCURVE",
"297 437 CURVE SMOOTH",
"336 437 OFFCURVE",
"427 414 OFFCURVE",
"427 338 CURVE SMOOTH"
);
}
);
width = 559;
},
{
layerId = "1E834396-7C72-44CF-B9BE-DF3A8E7FF23F";
paths = (
{
closed = 1;
nodes = (
"392 -248 LINE",
"446 -240 OFFCURVE",
"490 -236 OFFCURVE",
"544 -234 CURVE",
"544 500 LINE",
"484 494 OFFCURVE",
"430 488 OFFCURVE",
"392 487 CURVE",
"392 460 LINE",
"367 486 OFFCURVE",
"312 508 OFFCURVE",
"248 508 CURVE SMOOTH",
"131 508 OFFCURVE",
"20 390 OFFCURVE",
"20 244 CURVE SMOOTH",
"20 96 OFFCURVE",
"135 -1 OFFCURVE",
"257 -1 CURVE SMOOTH",
"293 -1 OFFCURVE",
"367 13 OFFCURVE",
"390 46 CURVE",
"392 45 LINE"
);
},
{
closed = 1;
nodes = (
"181 315 OFFCURVE",
"227 362 OFFCURVE",
"288 362 CURVE SMOOTH",
"355 362 OFFCURVE",
"390 311 OFFCURVE",
"390 256 CURVE SMOOTH",
"390 191 OFFCURVE",
"345 144 OFFCURVE",
"288 144 CURVE SMOOTH",
"232 144 OFFCURVE",
"181 186 OFFCURVE",
"181 255 CURVE SMOOTH"
);
}
);
width = 574;
},
{
associatedMasterId = "94E4BE91-FC80-477F-8032-C50F6AA25321";
layerId = "9D8030CA-8A89-40D5-8186-0B08A255CDBC";
width = 600;
},
{
layerId = "0E4D5491-561A-4208-9CE2-EBBE0132EEC6";
width = 600;
}
);
leftKerningGroup = o;
note = q;
unicode = 0071;
},
{
glyphname = r;
lastChange = "2018-09-14 14:19:01 +0000";
layers = (
{
hints = (
{
horizontal = 1;
place = "{0, 503}";
type = Stem;
},
{
place = "{42, 224}";
type = Stem;
}
);
layerId = "94E4BE91-FC80-477F-8032-C50F6AA25321";
paths = (
{
closed = 1;
nodes = (
"132 440 CURVE",
"132 499 LINE",
"108 491 OFFCURVE",
"84 486 OFFCURVE",
"60 484 CURVE",
"62 323 OFFCURVE",
"62 162 OFFCURVE",
"60 1 CURVE",
"84 9 OFFCURVE",
"108 13 OFFCURVE",
"132 15 CURVE",
"130 134 OFFCURVE",
"130 253 OFFCURVE",
"132 372 CURVE SMOOTH",
"133 424 OFFCURVE",
"219 489 OFFCURVE",
"258 395 CURVE",
"312 452 LINE",
"266 529 OFFCURVE",
"151 518 OFFCURVE"
);
}
);
width = 342;
},
{
associatedMasterId = "94E4BE91-FC80-477F-8032-C50F6AA25321";
layerId = "826BB18A-9EF8-47E4-AF71-ABF09D128FA7";
width = 600;
},
{
layerId = "1E834396-7C72-44CF-B9BE-DF3A8E7FF23F";
paths = (
{
closed = 1;
nodes = (
"185 440 CURVE",
"185 499 LINE",
"111 491 OFFCURVE",
"54 486 OFFCURVE",
"30 484 CURVE",
"32 323 OFFCURVE",
"32 162 OFFCURVE",
"30 1 CURVE",
"104 9 OFFCURVE",
"161 13 OFFCURVE",
"185 15 CURVE",
"183 134 OFFCURVE",
"183 183 OFFCURVE",
"185 302 CURVE SMOOTH",
"186 354 OFFCURVE",
"246 395 OFFCURVE",
"309 322 CURVE",
"374 452 LINE",
"328 529 OFFCURVE",
"204 518 OFFCURVE"
);
}
);
width = 394;
},
{
associatedMasterId = "94E4BE91-FC80-477F-8032-C50F6AA25321";
layerId = "9D8030CA-8A89-40D5-8186-0B08A255CDBC";
width = 600;
},
{
layerId = "0E4D5491-561A-4208-9CE2-EBBE0132EEC6";
width = 600;
}
);
note = r;
unicode = 0072;
},
{
glyphname = s;
lastChange = "2018-09-14 14:19:04 +0000";
layers = (
{
hints = (
{
horizontal = 1;
place = "{-3, 507}";
type = Stem;
},
{
place = "{29, 308}";
type = Stem;
}
);
layerId = "94E4BE91-FC80-477F-8032-C50F6AA25321";
paths = (
{
closed = 1;
nodes = (
"303 477 OFFCURVE",
"256 503 OFFCURVE",
"196 503 CURVE SMOOTH",
"104 503 OFFCURVE",
"49 442 OFFCURVE",
"49 372 CURVE SMOOTH",
"49 295 OFFCURVE",
"115 253 OFFCURVE",
"191 222 CURVE SMOOTH",
"241 202 OFFCURVE",
"279 190 OFFCURVE",
"279 140 CURVE SMOOTH",
"279 88 OFFCURVE",
"237 66 OFFCURVE",
"197 66 CURVE SMOOTH",
"156 66 OFFCURVE",
"105 89 OFFCURVE",
"76 115 CURVE",
"42 60 LINE",
"82 18 OFFCURVE",
"148 -2 OFFCURVE",
"205 -2 CURVE SMOOTH",
"291 -2 OFFCURVE",
"348 58 OFFCURVE",
"348 131 CURVE SMOOTH",
"348 239 OFFCURVE",
"276 261 OFFCURVE",
"214 288 CURVE SMOOTH",
"165 309 OFFCURVE",
"121 328 OFFCURVE",
"121 375 CURVE SMOOTH",
"121 412 OFFCURVE",
"148 435 OFFCURVE",
"189 435 CURVE SMOOTH",
"225 435 OFFCURVE",
"265 417 OFFCURVE",
"297 379 CURVE",
"340 426 LINE"
);
}
);
width = 390;
},
{
associatedMasterId = "94E4BE91-FC80-477F-8032-C50F6AA25321";
layerId = "826BB18A-9EF8-47E4-AF71-ABF09D128FA7";
width = 600;
},
{
layerId = "1E834396-7C72-44CF-B9BE-DF3A8E7FF23F";
paths = (
{
closed = 1;
nodes = (
"306 480 OFFCURVE",
"258 507 OFFCURVE",
"195 507 CURVE",
"101 507 OFFCURVE",
"39 444 OFFCURVE",
"39 350 CURVE",
"39 197 OFFCURVE",
"203 196 OFFCURVE",
"203 147 CURVE",
"203 136 OFFCURVE",
"195 129 OFFCURVE",
"181 129 CURVE",
"162 129 OFFCURVE",
"135 145 OFFCURVE",
"109 171 CURVE",
"25 72 LINE",
"59 25 OFFCURVE",
"122 -3 OFFCURVE",
"192 -3 CURVE",
"289 -3 OFFCURVE",
"349 56 OFFCURVE",
"349 152 CURVE",
"349 313 OFFCURVE",
"180 309 OFFCURVE",
"180 361 CURVE",
"180 374 OFFCURVE",
"191 382 OFFCURVE",
"208 382 CURVE",
"227 382 OFFCURVE",
"248 371 OFFCURVE",
"268 351 CURVE",
"337 425 LINE"
);
}
);
width = 374;
},
{
associatedMasterId = "94E4BE91-FC80-477F-8032-C50F6AA25321";
layerId = "9D8030CA-8A89-40D5-8186-0B08A255CDBC";
width = 600;
},
{
layerId = "0E4D5491-561A-4208-9CE2-EBBE0132EEC6";
width = 600;
}
);
note = s;
unicode = 0073;
},
{
glyphname = germandbls;
lastChange = "2018-09-05 22:09:21 +0000";
layers = (
{
layerId = "94E4BE91-FC80-477F-8032-C50F6AA25321";
paths = (
{
closed = 1;
nodes = (
"309 438.822 OFFCURVE",
"406 433.558 OFFCURVE",
"406 557.041 CURVE",
"406 663.307 OFFCURVE",
"334.162 736 OFFCURVE",
"230.064 736 CURVE",
"129.795 736 OFFCURVE",
"60 668.557 OFFCURVE",
"60 564 CURVE",
"60 1 LINE",
"83.179 8.39 OFFCURVE",
"107.381 13.096 OFFCURVE",
"132 15 CURVE",
"132 527 LINE",
"132 628.715 OFFCURVE",
"164.455 673 OFFCURVE",
"229.014 673 CURVE",
"291.838 673 OFFCURVE",
"330 631.063 OFFCURVE",
"330 562.898 CURVE",
"330 454.221 OFFCURVE",
"233 486.719 OFFCURVE",
"233 369.521 CURVE",
"233 231.774 OFFCURVE",
"367 228.416 OFFCURVE",
"367 139.022 CURVE",
"367 91.675 OFFCURVE",
"329.411 62 OFFCURVE",
"269.504 62 CURVE",
"255.453 62 OFFCURVE",
"241.087 63.632 OFFCURVE",
"228 67 CURVE",
"213 0 LINE",
"230.577 -1.926 OFFCURVE",
"248.291 -4 OFFCURVE",
"269.195 -4 CURVE",
"375.764 -4 OFFCURVE",
"440 49.899 OFFCURVE",
"440 141.399 CURVE",
"440 272.065 OFFCURVE",
"309 265.727 OFFCURVE",
"309 358.764 CURVE"
);
}
);
width = 490;
},
{
layerId = "1E834396-7C72-44CF-B9BE-DF3A8E7FF23F";
width = 600;
},
{
layerId = "0E4D5491-561A-4208-9CE2-EBBE0132EEC6";
width = 600;
}
);
unicode = 00DF;
},
{
glyphname = t;
lastChange = "2018-09-05 22:00:10 +0000";
layers = (
{
hints = (
{
horizontal = 1;
place = "{-4, 630}";
type = Stem;
},
{
place = "{149, 65}";
type = Stem;
}
);
layerId = "94E4BE91-FC80-477F-8032-C50F6AA25321";
paths = (
{
closed = 1;
nodes = (
"44 476 OFFCURVE",
"36 454 OFFCURVE",
"25 431 CURVE",
"74 431 LINE",
"74 92 LINE SMOOTH",
"74 -22 OFFCURVE",
"209 -31 OFFCURVE",
"278 35 CURVE",
"278 25 LINE",
"271 46 OFFCURVE",
"266 80 OFFCURVE",
"263 107 CURVE",
"265 107 LINE",
"259 92 OFFCURVE",
"146 23 OFFCURVE",
"146 102 CURVE SMOOTH",
"146 107 OFFCURVE",
"146 111 OFFCURVE",
"146 116 CURVE SMOOTH",
"146 431 LINE",
"257 431 LINE",
"262 454 OFFCURVE",
"270 476 OFFCURVE",
"281 499 CURVE",
"146 499 LINE",
"146 625 LINE",
"122 614 OFFCURVE",
"98 605 OFFCURVE",
"74 600 CURVE",
"74 499 LINE",
"49 499 LINE"
);
}
);
width = 311;
},
{
associatedMasterId = "94E4BE91-FC80-477F-8032-C50F6AA25321";
layerId = "826BB18A-9EF8-47E4-AF71-ABF09D128FA7";
width = 600;
},
{
layerId = "1E834396-7C72-44CF-B9BE-DF3A8E7FF23F";
paths = (
{
closed = 1;
nodes = (
"44 446 OFFCURVE",
"32 387 OFFCURVE",
"25 364 CURVE",
"74 364 LINE",
"74 122 LINE SMOOTH",
"74 -22 OFFCURVE",
"234 -31 OFFCURVE",
"303 35 CURVE",
"303 25 LINE",
"296 46 OFFCURVE",
"291 120 OFFCURVE",
"288 147 CURVE",
"290 147 LINE",
"253 132 OFFCURVE",
"225 113 OFFCURVE",
"225 182 CURVE SMOOTH",
"225 187 OFFCURVE",
"225 191 OFFCURVE",
"225 196 CURVE SMOOTH",
"225 364 LINE",
"274 364 LINE",
"279 408 OFFCURVE",
"287 456 OFFCURVE",
"298 499 CURVE",
"222 499 LINE",
"222 625 LINE SMOOTH",
"189 614 OFFCURVE",
"113 602 OFFCURVE",
"74 600 CURVE SMOOTH",
"74 499 LINE",
"49 499 LINE"
);
}
);
width = 326;
},
{
associatedMasterId = "94E4BE91-FC80-477F-8032-C50F6AA25321";
layerId = "9D8030CA-8A89-40D5-8186-0B08A255CDBC";
width = 600;
},
{
layerId = "0E4D5491-561A-4208-9CE2-EBBE0132EEC6";
width = 600;
}
);
note = t;
unicode = 0074;
},
{
glyphname = u;
lastChange = "2018-09-14 14:19:07 +0000";
layers = (
{
hints = (
{
horizontal = 1;
place = "{-3, 503}";
type = Stem;
},
{
place = "{120, 210}";
type = Stem;
}
);
layerId = "94E4BE91-FC80-477F-8032-C50F6AA25321";
paths = (
{
closed = 1;
nodes = (
"60 260 LINE SMOOTH",
"60 38 OFFCURVE",
"169 -1 OFFCURVE",
"256 -1 CURVE SMOOTH",
"333 -1 OFFCURVE",
"392 51 OFFCURVE",
"412 117 CURVE",
"414 117 LINE",
"414 2 LINE",
"438 10 OFFCURVE",
"462 15 OFFCURVE",
"486 17 CURVE",
"486 500 LINE",
"462 492 OFFCURVE",
"438 488 OFFCURVE",
"414 486 CURVE",
"414 217 LINE SMOOTH",
"414 146 OFFCURVE",
"333 66 OFFCURVE",
"255 66 CURVE SMOOTH",
"210 66 OFFCURVE",
"132 93 OFFCURVE",
"132 253 CURVE SMOOTH",
"132 500 LINE",
"108 492 OFFCURVE",
"84 488 OFFCURVE",
"60 486 CURVE"
);
}
);
width = 546;
},
{
associatedMasterId = "94E4BE91-FC80-477F-8032-C50F6AA25321";
layerId = "826BB18A-9EF8-47E4-AF71-ABF09D128FA7";
width = 600;
},
{
layerId = "1E834396-7C72-44CF-B9BE-DF3A8E7FF23F";
paths = (
{
closed = 1;
nodes = (
"30 260 LINE",
"30 38 OFFCURVE",
"131 -1 OFFCURVE",
"195 -1 CURVE",
"303 -1 OFFCURVE",
"331 43 OFFCURVE",
"332 52 CURVE",
"334 52 LINE",
"334 0 LINE",
"408 8 OFFCURVE",
"462 15 OFFCURVE",
"486 17 CURVE",
"486 500 LINE",
"412 492 OFFCURVE",
"358 488 OFFCURVE",
"334 486 CURVE",
"334 287 LINE",
"334 216 OFFCURVE",
"323 136 OFFCURVE",
"259 136 CURVE",
"190 136 OFFCURVE",
"182 229 OFFCURVE",
"182 289 CURVE",
"182 500 LINE",
"108 492 OFFCURVE",
"54 488 OFFCURVE",
"30 486 CURVE"
);
}
);
width = 516;
},
{
associatedMasterId = "94E4BE91-FC80-477F-8032-C50F6AA25321";
layerId = "9D8030CA-8A89-40D5-8186-0B08A255CDBC";
width = 600;
},
{
layerId = "0E4D5491-561A-4208-9CE2-EBBE0132EEC6";
width = 600;
}
);
note = u;
unicode = 0075;
},
{
glyphname = v;
lastChange = "2018-09-14 14:17:21 +0000";
layers = (
{
hints = (
{
horizontal = 1;
place = "{0, 500}";
type = Stem;
},
{
place = "{27, 382}";
type = Stem;
}
);
layerId = "94E4BE91-FC80-477F-8032-C50F6AA25321";
paths = (
{
closed = 1;
nodes = (
"470 489 LINE",
"446 489 OFFCURVE",
"422 493 OFFCURVE",
"398 499 CURVE",
"249 165 LINE",
"102 499 LINE",
"78 493 OFFCURVE",
"54 489 OFFCURVE",
"30 489 CURVE",
"243 -9 LINE"
);
}
);
width = 500;
},
{
associatedMasterId = "94E4BE91-FC80-477F-8032-C50F6AA25321";
layerId = "826BB18A-9EF8-47E4-AF71-ABF09D128FA7";
width = 600;
},
{
layerId = "1E834396-7C72-44CF-B9BE-DF3A8E7FF23F";
paths = (
{
closed = 1;
nodes = (
"254 0 LINE",
"450 489 LINE",
"426 489 OFFCURVE",
"322 493 OFFCURVE",
"298 499 CURVE",
"219 265 LINE",
"142 499 LINE",
"118 493 OFFCURVE",
"14 489 OFFCURVE",
"-10 489 CURVE",
"172 0 LINE"
);
}
);
width = 440;
},
{
associatedMasterId = "94E4BE91-FC80-477F-8032-C50F6AA25321";
layerId = "9D8030CA-8A89-40D5-8186-0B08A255CDBC";
width = 600;
},
{
layerId = "0E4D5491-561A-4208-9CE2-EBBE0132EEC6";
width = 600;
}
);
note = v;
unicode = 0076;
},
{
glyphname = w;
lastChange = "2018-09-14 14:17:26 +0000";
layers = (
{
hints = (
{
horizontal = 1;
place = "{0, 500}";
type = Stem;
},
{
place = "{30, 598}";
type = Stem;
}
);
layerId = "94E4BE91-FC80-477F-8032-C50F6AA25321";
paths = (
{
closed = 1;
nodes = (
"235 153 LINE",
"92 499 LINE",
"20 489 LINE",
"222 -19 LINE",
"387 347 LINE",
"389 347 LINE",
"569 -19 LINE",
"766 489 LINE",
"694 499 LINE",
"562 141 LINE",
"393 511 LINE"
);
}
);
width = 786;
},
{
associatedMasterId = "94E4BE91-FC80-477F-8032-C50F6AA25321";
layerId = "826BB18A-9EF8-47E4-AF71-ABF09D128FA7";
width = 600;
},
{
layerId = "1E834396-7C72-44CF-B9BE-DF3A8E7FF23F";
paths = (
{
closed = 1;
nodes = (
"479 245 LINE",
"396 500 LINE",
"364 497 OFFCURVE",
"346 497 OFFCURVE",
"314 500 CURVE",
"229 245 LINE",
"152 499 LINE",
"98 493 OFFCURVE",
"24 489 OFFCURVE",
"0 489 CURVE",
"152 0 LINE",
"264 0 LINE",
"352 235 LINE",
"432 0 LINE",
"544 0 LINE",
"710 489 LINE",
"686 489 OFFCURVE",
"612 493 OFFCURVE",
"558 499 CURVE"
);
}
);
width = 710;
},
{
associatedMasterId = "94E4BE91-FC80-477F-8032-C50F6AA25321";
layerId = "9D8030CA-8A89-40D5-8186-0B08A255CDBC";
width = 600;
},
{
layerId = "0E4D5491-561A-4208-9CE2-EBBE0132EEC6";
width = 600;
}
);
note = w;
unicode = 0077;
},
{
glyphname = x;
lastChange = "2018-09-14 14:17:31 +0000";
layers = (
{
hints = (
{
horizontal = 1;
place = "{0, 500}";
type = Stem;
},
{
place = "{33, 390}";
type = Stem;
}
);
layerId = "94E4BE91-FC80-477F-8032-C50F6AA25321";
paths = (
{
closed = 1;
nodes = (
"68 489 OFFCURVE",
"45 481 OFFCURVE",
"20 475 CURVE",
"190 250 LINE",
"20 25 LINE",
"46 19 OFFCURVE",
"69 11 OFFCURVE",
"91 1 CURVE",
"233 185 LINE",
"375 1 LINE",
"397 11 OFFCURVE",
"420 19 OFFCURVE",
"446 25 CURVE",
"276 250 LINE",
"446 475 LINE",
"421 481 OFFCURVE",
"398 489 OFFCURVE",
"375 499 CURVE",
"233 315 LINE",
"91 499 LINE"
);
}
);
width = 466;
},
{
layerId = "1E834396-7C72-44CF-B9BE-DF3A8E7FF23F";
paths = (
{
closed = 1;
nodes = (
"148 489 OFFCURVE",
"35 481 OFFCURVE",
"10 475 CURVE",
"160 250 LINE",
"10 25 LINE",
"36 19 OFFCURVE",
"149 11 OFFCURVE",
"171 1 CURVE",
"253 125 LINE",
"335 1 LINE",
"357 11 OFFCURVE",
"470 19 OFFCURVE",
"496 25 CURVE",
"346 250 LINE",
"496 475 LINE",
"471 481 OFFCURVE",
"358 489 OFFCURVE",
"335 499 CURVE",
"253 375 LINE",
"171 499 LINE"
);
}
);
width = 506;
},
{
associatedMasterId = "94E4BE91-FC80-477F-8032-C50F6AA25321";
layerId = "9D8030CA-8A89-40D5-8186-0B08A255CDBC";
width = 600;
},
{
layerId = "0E4D5491-561A-4208-9CE2-EBBE0132EEC6";
width = 600;
}
);
note = x;
unicode = 0078;
},
{
glyphname = y;
lastChange = "2018-09-14 14:19:10 +0000";
layers = (
{
hints = (
{
horizontal = 1;
place = "{-192, 692}";
type = Stem;
},
{
place = "{32, 391}";
type = Stem;
}
);
layerId = "94E4BE91-FC80-477F-8032-C50F6AA25321";
paths = (
{
closed = 1;
nodes = (
"62 -152 OFFCURVE",
"52 -174 OFFCURVE",
"41 -194 CURVE",
"135 -250 OFFCURVE",
"216 -209 OFFCURVE",
"259 -116 CURVE",
"298 -33 OFFCURVE",
"420 259 OFFCURVE",
"489 489 CURVE",
"464 490 OFFCURVE",
"439 494 OFFCURVE",
"416 499 CURVE",
"281 115 LINE",
"265 111 LINE",
"113 499 LINE",
"90 494 OFFCURVE",
"65 490 OFFCURVE",
"40 489 CURVE",
"217 21 LINE",
"236 28 LINE",
"195 -98 OFFCURVE",
"157 -179 OFFCURVE",
"69 -128 CURVE"
);
}
);
width = 529;
},
{
layerId = "1E834396-7C72-44CF-B9BE-DF3A8E7FF23F";
paths = (
{
closed = 1;
nodes = (
"47 -122 OFFCURVE",
"36 -139 OFFCURVE",
"11 -194 CURVE",
"105 -250 OFFCURVE",
"261 -242 OFFCURVE",
"319 -88 CURVE",
"347 -5 OFFCURVE",
"425 259 OFFCURVE",
"488 489 CURVE",
"463 490 OFFCURVE",
"349 494 OFFCURVE",
"326 499 CURVE",
"261 235 LINE",
"255 231 LINE",
"163 499 LINE",
"140 494 OFFCURVE",
"35 490 OFFCURVE",
"10 489 CURVE",
"167 21 LINE",
"186 28 LINE",
"153 -88 OFFCURVE",
"139 -109 OFFCURVE",
"59 -66 CURVE"
);
}
);
width = 498;
},
{
associatedMasterId = "94E4BE91-FC80-477F-8032-C50F6AA25321";
layerId = "9D8030CA-8A89-40D5-8186-0B08A255CDBC";
width = 600;
},
{
layerId = "0E4D5491-561A-4208-9CE2-EBBE0132EEC6";
width = 600;
}
);
note = y;
unicode = 0079;
},
{
glyphname = z;
lastChange = "2018-09-14 14:17:39 +0000";
layers = (
{
hints = (
{
horizontal = 1;
place = "{5, 490}";
type = Stem;
},
{
place = "{27, 341}";
type = Stem;
}
);
layerId = "94E4BE91-FC80-477F-8032-C50F6AA25321";
paths = (
{
closed = 1;
nodes = (
"64 471 OFFCURVE",
"56 449 OFFCURVE",
"45 426 CURVE",
"280 426 LINE",
"30 6 LINE",
"378 6 LINE",
"383 29 OFFCURVE",
"391 51 OFFCURVE",
"402 74 CURVE",
"156 74 LINE",
"407 494 LINE",
"69 494 LINE"
);
}
);
width = 437;
},
{
layerId = "1E834396-7C72-44CF-B9BE-DF3A8E7FF23F";
paths = (
{
closed = 1;
nodes = (
"46 477 OFFCURVE",
"44 368 OFFCURVE",
"40 345 CURVE",
"116 348 OFFCURVE",
"162 348 OFFCURVE",
"197 345 CURVE",
"30 5 LINE",
"213 8 OFFCURVE",
"220 8 OFFCURVE",
"403 5 CURVE",
"401 28 OFFCURVE",
"433 132 OFFCURVE",
"437 155 CURVE",
"358 152 OFFCURVE",
"298 152 OFFCURVE",
"259 155 CURVE",
"443 500 LINE",
"263 497 OFFCURVE",
"224 497 OFFCURVE",
"44 500 CURVE"
);
}
);
width = 473;
},
{
associatedMasterId = "94E4BE91-FC80-477F-8032-C50F6AA25321";
layerId = "9D8030CA-8A89-40D5-8186-0B08A255CDBC";
width = 600;
},
{
layerId = "0E4D5491-561A-4208-9CE2-EBBE0132EEC6";
width = 600;
}
);
note = z;
unicode = 007A;
},
{
glyphname = a.alt;
lastChange = "2018-09-05 22:00:10 +0000";
layers = (
{
layerId = "94E4BE91-FC80-477F-8032-C50F6AA25321";
paths = (
{
closed = 1;
nodes = (
"434 162 LINE SMOOTH",
"434 86 OFFCURVE",
"364 63 OFFCURVE",
"294 63 CURVE SMOOTH",
"208 63 OFFCURVE",
"114 143 OFFCURVE",
"114 249 CURVE SMOOTH",
"114 347 OFFCURVE",
"195 436 OFFCURVE",
"289 436 CURVE SMOOTH",
"337 436 OFFCURVE",
"434 413 OFFCURVE",
"434 309 CURVE SMOOTH"
);
},
{
closed = 1;
nodes = (
"432 457 LINE",
"409 490 OFFCURVE",
"335 504 OFFCURVE",
"289 504 CURVE SMOOTH",
"167 504 OFFCURVE",
"42 407 OFFCURVE",
"42 259 CURVE SMOOTH",
"42 113 OFFCURVE",
"163 -5 OFFCURVE",
"280 -5 CURVE SMOOTH",
"354 -5 OFFCURVE",
"409 17 OFFCURVE",
"434 43 CURVE",
"434 1 LINE",
"458 9 OFFCURVE",
"482 13 OFFCURVE",
"506 15 CURVE",
"506 500 LINE",
"482 492 OFFCURVE",
"458 488 OFFCURVE",
"434 486 CURVE",
"434 458 LINE"
);
}
);
width = 566;
},
{
layerId = "1E834396-7C72-44CF-B9BE-DF3A8E7FF23F";
width = 600;
},
{
layerId = "0E4D5491-561A-4208-9CE2-EBBE0132EEC6";
width = 600;
}
);
leftKerningGroup = o;
},
{
glyphname = "Be-cy";
lastChange = "2018-09-05 22:00:10 +0000";
layers = (
{
layerId = "94E4BE91-FC80-477F-8032-C50F6AA25321";
paths = (
{
closed = 1;
nodes = (
"242 416 OFFCURVE",
"190 417 OFFCURVE",
"132 417 CURVE",
"134 682 LINE",
"219 685 OFFCURVE",
"309 685 OFFCURVE",
"434 682 CURVE",
"437 705 OFFCURVE",
"441 727 OFFCURVE",
"449 750 CURVE",
"308 747 OFFCURVE",
"220 747 OFFCURVE",
"60 750 CURVE",
"60 749 OFFCURVE",
"60 749 OFFCURVE",
"60 749 CURVE",
"63 435 OFFCURVE",
"63 216 OFFCURVE",
"60 0 CURVE",
"85 1 OFFCURVE",
"228 -3 OFFCURVE",
"288 -3 CURVE SMOOTH",
"437 -3 OFFCURVE",
"519 63 OFFCURVE",
"519 202 CURVE SMOOTH",
"519 329 OFFCURVE",
"439 416 OFFCURVE",
"288 416 CURVE SMOOTH"
);
},
{
closed = 1;
nodes = (
"228 64 OFFCURVE",
"181 63 OFFCURVE",
"134 66 CURVE",
"132 348 LINE",
"193 346 OFFCURVE",
"244 346 OFFCURVE",
"288 346 CURVE SMOOTH",
"395 346 OFFCURVE",
"445 293 OFFCURVE",
"445 202 CURVE SMOOTH",
"445 95 OFFCURVE",
"396 64 OFFCURVE",
"275 64 CURVE SMOOTH"
);
}
);
width = 559;
},
{
layerId = "1E834396-7C72-44CF-B9BE-DF3A8E7FF23F";
width = 600;
},
{
associatedMasterId = "94E4BE91-FC80-477F-8032-C50F6AA25321";
layerId = "9D8030CA-8A89-40D5-8186-0B08A255CDBC";
width = 600;
},
{
layerId = "0E4D5491-561A-4208-9CE2-EBBE0132EEC6";
width = 600;
}
);
unicode = 0411;
},
{
glyphname = "Ge-cy";
lastChange = "2018-09-05 22:00:10 +0000";
layers = (
{
layerId = "94E4BE91-FC80-477F-8032-C50F6AA25321";
paths = (
{
closed = 1;
nodes = (
"218 685 OFFCURVE",
"308 685 OFFCURVE",
"434 682 CURVE",
"437 705 OFFCURVE",
"441 727 OFFCURVE",
"449 750 CURVE",
"308 747 OFFCURVE",
"220 747 OFFCURVE",
"60 750 CURVE",
"63 508 OFFCURVE",
"63 242 OFFCURVE",
"60 0 CURVE",
"85 5 OFFCURVE",
"109 8 OFFCURVE",
"134 7 CURVE",
"132 682 LINE"
);
}
);
width = 459;
},
{
layerId = "1E834396-7C72-44CF-B9BE-DF3A8E7FF23F";
paths = (
{
closed = 1;
nodes = (
"434 586 LINE",
"437 609 OFFCURVE",
"441 727 OFFCURVE",
"449 750 CURVE",
"308 747 OFFCURVE",
"220 747 OFFCURVE",
"60 750 CURVE",
"63 508 OFFCURVE",
"63 242 OFFCURVE",
"60 0 CURVE",
"85 5 OFFCURVE",
"203 8 OFFCURVE",
"228 7 CURVE",
"226 586 LINE"
);
}
);
width = 459;
},
{
associatedMasterId = "94E4BE91-FC80-477F-8032-C50F6AA25321";
layerId = "9D8030CA-8A89-40D5-8186-0B08A255CDBC";
width = 600;
},
{
layerId = "0E4D5491-561A-4208-9CE2-EBBE0132EEC6";
width = 600;
}
);
unicode = 0413;
},
{
glyphname = "De-cy";
lastChange = "2018-09-05 22:00:10 +0000";
layers = (
{
layerId = "94E4BE91-FC80-477F-8032-C50F6AA25321";
paths = (
{
closed = 1;
nodes = (
"368 685 OFFCURVE",
"401 685 OFFCURVE",
"527 682 CURVE",
"525 59 LINE",
"550 64 OFFCURVE",
"574 67 OFFCURVE",
"599 66 CURVE",
"596 308 OFFCURVE",
"596 508 OFFCURVE",
"599 750 CURVE",
"424 747 OFFCURVE",
"353 747 OFFCURVE",
"178 750 CURVE",
"170 374 OFFCURVE",
"119 152 OFFCURVE",
"68 59 CURVE",
"93 64 OFFCURVE",
"119 67 OFFCURVE",
"144 66 CURVE",
"183 149 OFFCURVE",
"242 397 OFFCURVE",
"242 682 CURVE"
);
},
{
closed = 1;
nodes = (
"587 -108 OFFCURVE",
"611 -108 OFFCURVE",
"634 -111 CURVE",
"633 -40 OFFCURVE",
"633 0 OFFCURVE",
"636 69 CURVE",
"486 66 OFFCURVE",
"215 66 OFFCURVE",
"40 69 CURVE",
"43 -2 OFFCURVE",
"43 -37 OFFCURVE",
"41 -109 CURVE",
"65 -106 OFFCURVE",
"88 -106 OFFCURVE",
"112 -109 CURVE",
"110 -72 OFFCURVE",
"110 -36 OFFCURVE",
"112 1 CURVE",
"238 4 OFFCURVE",
"399 3 OFFCURVE",
"564 1 CURVE",
"566 -36 OFFCURVE",
"566 -74 OFFCURVE",
"564 -111 CURVE"
);
}
);
width = 676;
},
{
layerId = "1E834396-7C72-44CF-B9BE-DF3A8E7FF23F";
width = 600;
},
{
associatedMasterId = "94E4BE91-FC80-477F-8032-C50F6AA25321";
layerId = "9D8030CA-8A89-40D5-8186-0B08A255CDBC";
width = 600;
},
{
layerId = "0E4D5491-561A-4208-9CE2-EBBE0132EEC6";
width = 600;
}
);
unicode = 0414;
},
{
glyphname = "Io-cy";
lastChange = "2018-09-05 22:00:10 +0000";
layers = (
{
layerId = "94E4BE91-FC80-477F-8032-C50F6AA25321";
paths = (
{
closed = 1;
nodes = (
"208 8 OFFCURVE",
"355 8 OFFCURVE",
"503 5 CURVE",
"508 29 OFFCURVE",
"516 54 OFFCURVE",
"527 78 CURVE",
"396 74 OFFCURVE",
"265 73 OFFCURVE",
"134 75 CURVE",
"131 143 OFFCURVE",
"131 212 OFFCURVE",
"134 280 CURVE",
"238 283 OFFCURVE",
"341 283 OFFCURVE",
"445 280 CURVE",
"450 303 OFFCURVE",
"458 327 OFFCURVE",
"469 350 CURVE",
"357 347 OFFCURVE",
"246 347 OFFCURVE",
"134 350 CURVE",
"131 458 OFFCURVE",
"131 567 OFFCURVE",
"134 675 CURVE",
"257 678 OFFCURVE",
"380 678 OFFCURVE",
"503 675 CURVE",
"508 698 OFFCURVE",
"516 722 OFFCURVE",
"527 745 CURVE",
"371 742 OFFCURVE",
"216 742 OFFCURVE",
"60 745 CURVE",
"60 675 LINE",
"63 452 OFFCURVE",
"63 228 OFFCURVE",
"60 5 CURVE"
);
},
{
closed = 1;
nodes = (
"146 866 OFFCURVE",
"174 848 OFFCURVE",
"197 848 CURVE",
"220 848 OFFCURVE",
"249 866 OFFCURVE",
"249 899 CURVE",
"249 932 OFFCURVE",
"220 951 OFFCURVE",
"197 951 CURVE",
"174 951 OFFCURVE",
"146 932 OFFCURVE",
"146 899 CURVE"
);
},
{
closed = 1;
nodes = (
"336 866 OFFCURVE",
"364 848 OFFCURVE",
"387 848 CURVE",
"410 848 OFFCURVE",
"439 866 OFFCURVE",
"439 899 CURVE",
"439 932 OFFCURVE",
"410 951 OFFCURVE",
"387 951 CURVE",
"364 951 OFFCURVE",
"336 932 OFFCURVE",
"336 899 CURVE"
);
}
);
width = 587;
},
{
layerId = "1E834396-7C72-44CF-B9BE-DF3A8E7FF23F";
paths = (
{
closed = 1;
nodes = (
"178 3 OFFCURVE",
"325 3 OFFCURVE",
"473 0 CURVE",
"478 24 OFFCURVE",
"486 154 OFFCURVE",
"497 178 CURVE",
"366 174 OFFCURVE",
"335 173 OFFCURVE",
"204 175 CURVE",
"204 280 LINE",
"308 283 OFFCURVE",
"311 283 OFFCURVE",
"415 280 CURVE",
"420 303 OFFCURVE",
"428 427 OFFCURVE",
"439 450 CURVE",
"327 447 OFFCURVE",
"316 447 OFFCURVE",
"204 450 CURVE",
"204 580 LINE",
"327 583 OFFCURVE",
"350 583 OFFCURVE",
"473 580 CURVE",
"478 603 OFFCURVE",
"486 727 OFFCURVE",
"497 750 CURVE",
"341 747 OFFCURVE",
"186 747 OFFCURVE",
"30 750 CURVE",
"33 473 OFFCURVE",
"33 216 OFFCURVE",
"30 0 CURVE"
);
},
{
closed = 1;
nodes = (
"52 852 OFFCURVE",
"99 820 OFFCURVE",
"139 820 CURVE SMOOTH",
"179 820 OFFCURVE",
"229 852 OFFCURVE",
"229 907 CURVE SMOOTH",
"229 963 OFFCURVE",
"179 997 OFFCURVE",
"139 997 CURVE SMOOTH",
"99 997 OFFCURVE",
"52 963 OFFCURVE",
"52 907 CURVE SMOOTH"
);
},
{
closed = 1;
nodes = (
"292 852 OFFCURVE",
"339 820 OFFCURVE",
"379 820 CURVE SMOOTH",
"419 820 OFFCURVE",
"469 852 OFFCURVE",
"469 907 CURVE SMOOTH",
"469 963 OFFCURVE",
"419 997 OFFCURVE",
"379 997 CURVE SMOOTH",
"339 997 OFFCURVE",
"292 963 OFFCURVE",
"292 907 CURVE SMOOTH"
);
}
);
width = 527;
},
{
associatedMasterId = "94E4BE91-FC80-477F-8032-C50F6AA25321";
layerId = "9D8030CA-8A89-40D5-8186-0B08A255CDBC";
width = 600;
},
{
layerId = "0E4D5491-561A-4208-9CE2-EBBE0132EEC6";
width = 600;
}
);
unicode = 0401;
},
{
glyphname = "Zhe-cy";
lastChange = "2018-09-05 22:00:10 +0000";
layers = (
{
layerId = "94E4BE91-FC80-477F-8032-C50F6AA25321";
paths = (
{
closed = 1;
nodes = (
"450 745 OFFCURVE",
"426 744 OFFCURVE",
"401 745 CURVE",
"404 497 OFFCURVE",
"404 248 OFFCURVE",
"401 0 CURVE",
"426 4 OFFCURVE",
"450 6 OFFCURVE",
"475 4 CURVE",
"472 253 OFFCURVE",
"472 501 OFFCURVE",
"475 750 CURVE"
);
},
{
closed = 1;
nodes = (
"465 341 LINE",
"495 370 LINE",
"778 0 LINE",
"803 11 OFFCURVE",
"829 19 OFFCURVE",
"856 24 CURVE",
"547 421 LINE",
"847 725 LINE",
"819 730 OFFCURVE",
"798 739 OFFCURVE",
"772 750 CURVE",
"465 433 LINE"
);
},
{
closed = 1;
nodes = (
"104 750 LINE",
"78 739 OFFCURVE",
"57 730 OFFCURVE",
"29 725 CURVE",
"329 421 LINE",
"20 24 LINE",
"47 19 OFFCURVE",
"73 11 OFFCURVE",
"98 0 CURVE",
"381 370 LINE",
"411 341 LINE",
"411 433 LINE"
);
}
);
width = 876;
},
{
layerId = "1E834396-7C72-44CF-B9BE-DF3A8E7FF23F";
width = 600;
},
{
associatedMasterId = "94E4BE91-FC80-477F-8032-C50F6AA25321";
layerId = "9D8030CA-8A89-40D5-8186-0B08A255CDBC";
width = 600;
},
{
layerId = "0E4D5491-561A-4208-9CE2-EBBE0132EEC6";
width = 600;
}
);
unicode = 0416;
},
{
glyphname = "Ze-cy";
lastChange = "2018-09-05 22:00:10 +0000";
layers = (
{
layerId = "94E4BE91-FC80-477F-8032-C50F6AA25321";
paths = (
{
closed = 1;
nodes = (
"399 421 OFFCURVE",
"431 479 OFFCURVE",
"431 553 CURVE SMOOTH",
"431 688 OFFCURVE",
"326 762 OFFCURVE",
"230 762 CURVE SMOOTH",
"147 762 OFFCURVE",
"71 713 OFFCURVE",
"40 639 CURVE",
"61 632 OFFCURVE",
"83 621 OFFCURVE",
"104 608 CURVE",
"124 659 OFFCURVE",
"177 695 OFFCURVE",
"230 695 CURVE SMOOTH",
"285 695 OFFCURVE",
"361 648 OFFCURVE",
"361 551 CURVE SMOOTH",
"361 477 OFFCURVE",
"309 424 OFFCURVE",
"241 417 CURVE",
"245 417 OFFCURVE",
"233 417 OFFCURVE",
"185 417 CURVE",
"184 395 OFFCURVE",
"181 372 OFFCURVE",
"174 350 CURVE",
"241 350 LINE",
"240 350 LINE",
"308 343 OFFCURVE",
"371 278 OFFCURVE",
"371 204 CURVE SMOOTH",
"371 107 OFFCURVE",
"285 59 OFFCURVE",
"230 59 CURVE SMOOTH",
"178 59 OFFCURVE",
"124 96 OFFCURVE",
"104 147 CURVE",
"83 134 OFFCURVE",
"61 123 OFFCURVE",
"40 116 CURVE",
"71 42 OFFCURVE",
"147 -7 OFFCURVE",
"230 -7 CURVE SMOOTH",
"326 -7 OFFCURVE",
"441 67 OFFCURVE",
"441 202 CURVE SMOOTH",
"441 276 OFFCURVE",
"399 346 OFFCURVE",
"342 384 CURVE"
);
}
);
width = 481;
},
{
layerId = "1E834396-7C72-44CF-B9BE-DF3A8E7FF23F";
width = 600;
},
{
associatedMasterId = "94E4BE91-FC80-477F-8032-C50F6AA25321";
layerId = "9D8030CA-8A89-40D5-8186-0B08A255CDBC";
width = 600;
},
{
layerId = "0E4D5491-561A-4208-9CE2-EBBE0132EEC6";
width = 600;
}
);
unicode = 0417;
},
{
glyphname = "Ii-cy";
lastChange = "2018-09-05 22:00:10 +0000";
layers = (
{
layerId = "94E4BE91-FC80-477F-8032-C50F6AA25321";
paths = (
{
closed = 1;
nodes = (
"609 0 OFFCURVE",
"633 7 OFFCURVE",
"658 5 CURVE",
"658 760 LINE",
"134 189 LINE",
"134 750 LINE",
"109 750 OFFCURVE",
"85 744 OFFCURVE",
"60 746 CURVE",
"60 -8 LINE",
"584 572 LINE",
"584 0 LINE"
);
}
);
width = 718;
},
{
layerId = "1E834396-7C72-44CF-B9BE-DF3A8E7FF23F";
paths = (
{
closed = 1;
nodes = (
"542 2 OFFCURVE",
"600 8 OFFCURVE",
"658 4 CURVE",
"658 750 LINE",
"545 750 LINE",
"234 362 LINE",
"234 750 LINE",
"176 748 OFFCURVE",
"118 743 OFFCURVE",
"60 747 CURVE",
"60 -1 LINE",
"162 0 LINE",
"484 409 LINE",
"484 0 LINE"
);
}
);
width = 718;
},
{
associatedMasterId = "94E4BE91-FC80-477F-8032-C50F6AA25321";
layerId = "9D8030CA-8A89-40D5-8186-0B08A255CDBC";
width = 600;
},
{
layerId = "0E4D5491-561A-4208-9CE2-EBBE0132EEC6";
width = 600;
}
);
unicode = 0418;
},
{
glyphname = "Iishort-cy";
lastChange = "2018-09-05 22:00:10 +0000";
layers = (
{
layerId = "94E4BE91-FC80-477F-8032-C50F6AA25321";
paths = (
{
closed = 1;
nodes = (
"377 779 LINE SMOOTH",
"433 779 OFFCURVE",
"494 801 OFFCURVE",
"537 840 CURVE",
"507 893 LINE",
"471 863 OFFCURVE",
"416 841 OFFCURVE",
"376 841 CURVE SMOOTH",
"336 841 OFFCURVE",
"281 863 OFFCURVE",
"245 893 CURVE",
"215 840 LINE",
"258 801 OFFCURVE",
"319 779 OFFCURVE",
"375 779 CURVE SMOOTH",
"376 779 LINE"
);
},
{
closed = 1;
nodes = (
"134 750 LINE",
"109 750 OFFCURVE",
"85 744 OFFCURVE",
"60 746 CURVE",
"60 -8 LINE",
"584 572 LINE",
"584 0 LINE",
"609 0 OFFCURVE",
"633 7 OFFCURVE",
"658 5 CURVE",
"658 760 LINE",
"134 189 LINE"
);
}
);
width = 718;
},
{
layerId = "1E834396-7C72-44CF-B9BE-DF3A8E7FF23F";
paths = (
{
closed = 1;
nodes = (
"542 2 OFFCURVE",
"600 8 OFFCURVE",
"658 4 CURVE",
"658 750 LINE",
"545 750 LINE",
"234 362 LINE",
"234 750 LINE",
"176 748 OFFCURVE",
"118 743 OFFCURVE",
"60 747 CURVE",
"60 -1 LINE",
"162 0 LINE",
"484 409 LINE",
"484 0 LINE"
);
},
{
closed = 1;
nodes = (
"377 789 LINE SMOOTH",
"445 789 OFFCURVE",
"517 819 OFFCURVE",
"562 866 CURVE",
"512 955 LINE",
"481 919 OFFCURVE",
"419 891 OFFCURVE",
"376 891 CURVE SMOOTH",
"333 891 OFFCURVE",
"271 919 OFFCURVE",
"240 955 CURVE",
"190 866 LINE",
"235 819 OFFCURVE",
"307 789 OFFCURVE",
"375 789 CURVE SMOOTH",
"376 789 LINE"
);
}
);
width = 718;
},
{
associatedMasterId = "94E4BE91-FC80-477F-8032-C50F6AA25321";
layerId = "9D8030CA-8A89-40D5-8186-0B08A255CDBC";
width = 600;
},
{
layerId = "0E4D5491-561A-4208-9CE2-EBBE0132EEC6";
width = 600;
}
);
unicode = 0419;
},
{
glyphname = "Ka-cy";
lastChange = "2018-09-05 22:00:10 +0000";
layers = (
{
layerId = "94E4BE91-FC80-477F-8032-C50F6AA25321";
paths = (
{
closed = 1;
nodes = (
"565 11 OFFCURVE",
"591 19 OFFCURVE",
"618 24 CURVE",
"249 421 LINE",
"609 725 LINE",
"581 730 OFFCURVE",
"555 739 OFFCURVE",
"529 750 CURVE",
"132 411 LINE",
"134 750 LINE",
"109 745 OFFCURVE",
"85 744 OFFCURVE",
"60 745 CURVE",
"63 497 OFFCURVE",
"63 248 OFFCURVE",
"60 0 CURVE",
"85 4 OFFCURVE",
"109 6 OFFCURVE",
"134 4 CURVE",
"132 308 LINE",
"197 370 LINE",
"540 0 LINE"
);
}
);
width = 648;
},
{
layerId = "1E834396-7C72-44CF-B9BE-DF3A8E7FF23F";
paths = (
{
closed = 1;
nodes = (
"484 11 OFFCURVE",
"544 19 OFFCURVE",
"628 24 CURVE",
"365 411 LINE",
"619 725 LINE",
"534 730 OFFCURVE",
"486 739 OFFCURVE",
"419 750 CURVE",
"202 491 LINE",
"204 750 LINE",
"179 745 OFFCURVE",
"55 744 OFFCURVE",
"30 745 CURVE",
"33 497 OFFCURVE",
"33 248 OFFCURVE",
"30 0 CURVE",
"55 4 OFFCURVE",
"179 6 OFFCURVE",
"204 4 CURVE",
"202 268 LINE",
"224 293 LINE",
"420 0 LINE"
);
}
);
width = 638;
},
{
associatedMasterId = "94E4BE91-FC80-477F-8032-C50F6AA25321";
layerId = "9D8030CA-8A89-40D5-8186-0B08A255CDBC";
width = 600;
},
{
layerId = "0E4D5491-561A-4208-9CE2-EBBE0132EEC6";
width = 600;
}
);
unicode = 041A;
},
{
glyphname = "El-cy";
lastChange = "2018-09-05 22:00:10 +0000";
layers = (
{
layerId = "94E4BE91-FC80-477F-8032-C50F6AA25321";
paths = (
{
closed = 1;
nodes = (
"517 747 OFFCURVE",
"361 747 OFFCURVE",
"186 750 CURVE",
"188 552 OFFCURVE",
"187 465 OFFCURVE",
"187 308 CURVE SMOOTH",
"187 275 LINE",
"187 184 LINE",
"187 58 OFFCURVE",
"162 58 OFFCURVE",
"68 77 CURVE",
"68 56 OFFCURVE",
"66 35 OFFCURVE",
"60 14 CURVE",
"204 -27 OFFCURVE",
"259 32 OFFCURVE",
"259 184 CURVE",
"258 682 LINE",
"384 685 OFFCURVE",
"494 685 OFFCURVE",
"600 682 CURVE",
"598 0 LINE",
"623 5 OFFCURVE",
"647 8 OFFCURVE",
"672 7 CURVE",
"669 249 OFFCURVE",
"669 508 OFFCURVE",
"672 750 CURVE"
);
}
);
width = 732;
},
{
layerId = "1E834396-7C72-44CF-B9BE-DF3A8E7FF23F";
paths = (
{
closed = 1;
nodes = (
"472 747 OFFCURVE",
"316 747 OFFCURVE",
"141 750 CURVE",
"143 552 OFFCURVE",
"142 635 OFFCURVE",
"142 478 CURVE SMOOTH",
"142 445 LINE",
"142 374 LINE",
"142 248 OFFCURVE",
"117 168 OFFCURVE",
"23 187 CURVE",
"23 166 OFFCURVE",
"21 35 OFFCURVE",
"15 14 CURVE",
"159 -27 OFFCURVE",
"314 114 OFFCURVE",
"314 266 CURVE",
"313 582 LINE",
"369 582 OFFCURVE",
"400 582 OFFCURVE",
"455 582 CURVE",
"453 0 LINE",
"478 5 OFFCURVE",
"602 8 OFFCURVE",
"627 7 CURVE",
"624 249 OFFCURVE",
"624 508 OFFCURVE",
"627 750 CURVE"
);
}
);
width = 657;
},
{
associatedMasterId = "94E4BE91-FC80-477F-8032-C50F6AA25321";
layerId = "9D8030CA-8A89-40D5-8186-0B08A255CDBC";
width = 600;
},
{
layerId = "0E4D5491-561A-4208-9CE2-EBBE0132EEC6";
width = 600;
}
);
unicode = 041B;
},
{
glyphname = "Pe-cy";
lastChange = "2018-09-05 22:00:10 +0000";
layers = (
{
layerId = "94E4BE91-FC80-477F-8032-C50F6AA25321";
paths = (
{
closed = 1;
nodes = (
"258 685 OFFCURVE",
"428 685 OFFCURVE",
"554 682 CURVE",
"552 0 LINE",
"577 5 OFFCURVE",
"601 8 OFFCURVE",
"626 7 CURVE",
"623 249 OFFCURVE",
"623 508 OFFCURVE",
"626 750 CURVE",
"451 747 OFFCURVE",
"235 747 OFFCURVE",
"60 750 CURVE",
"63 508 OFFCURVE",
"63 242 OFFCURVE",
"60 0 CURVE",
"85 5 OFFCURVE",
"109 8 OFFCURVE",
"134 7 CURVE",
"132 682 LINE"
);
}
);
width = 686;
},
{
layerId = "1E834396-7C72-44CF-B9BE-DF3A8E7FF23F";
paths = (
{
closed = 1;
nodes = (
"308 585 OFFCURVE",
"378 585 OFFCURVE",
"454 582 CURVE",
"452 0 LINE",
"477 5 OFFCURVE",
"601 8 OFFCURVE",
"626 7 CURVE",
"623 249 OFFCURVE",
"623 508 OFFCURVE",
"626 750 CURVE",
"451 747 OFFCURVE",
"235 747 OFFCURVE",
"60 750 CURVE",
"63 508 OFFCURVE",
"63 242 OFFCURVE",
"60 0 CURVE",
"85 5 OFFCURVE",
"209 8 OFFCURVE",
"234 7 CURVE",
"232 582 LINE"
);
}
);
width = 686;
},
{
associatedMasterId = "94E4BE91-FC80-477F-8032-C50F6AA25321";
layerId = "9D8030CA-8A89-40D5-8186-0B08A255CDBC";
width = 600;
},
{
layerId = "0E4D5491-561A-4208-9CE2-EBBE0132EEC6";
width = 600;
}
);
unicode = 041F;
},
{
glyphname = "U-cy";
lastChange = "2018-09-05 22:00:10 +0000";
layers = (
{
layerId = "94E4BE91-FC80-477F-8032-C50F6AA25321";
paths = (
{
closed = 1;
nodes = (
"616 750 LINE",
"351 204 LINE",
"89 750 LINE",
"20 726 LINE",
"306 124 LINE",
"302 100 OFFCURVE",
"268 69 OFFCURVE",
"235 69 CURVE SMOOTH",
"221 69 OFFCURVE",
"215 69 OFFCURVE",
"195 69 CURVE SMOOTH",
"162 69 LINE",
"160 46 OFFCURVE",
"156 23 OFFCURVE",
"148 0 CURVE",
"239 0 LINE",
"294 1 OFFCURVE",
"336 28 OFFCURVE",
"382 117 CURVE",
"685 726 LINE"
);
}
);
width = 705;
},
{
layerId = "1E834396-7C72-44CF-B9BE-DF3A8E7FF23F";
width = 600;
},
{
associatedMasterId = "94E4BE91-FC80-477F-8032-C50F6AA25321";
layerId = "9D8030CA-8A89-40D5-8186-0B08A255CDBC";
width = 600;
},
{
layerId = "0E4D5491-561A-4208-9CE2-EBBE0132EEC6";
width = 600;
}
);
unicode = 0423;
},
{
glyphname = "Ef-cy";
lastChange = "2018-09-05 22:00:10 +0000";
layers = (
{
layerId = "94E4BE91-FC80-477F-8032-C50F6AA25321";
paths = (
{
closed = 1;
nodes = (
"427 745 OFFCURVE",
"403 744 OFFCURVE",
"378 745 CURVE",
"381 497 OFFCURVE",
"381 248 OFFCURVE",
"378 0 CURVE",
"403 4 OFFCURVE",
"427 6 OFFCURVE",
"452 4 CURVE",
"449 253 OFFCURVE",
"449 501 OFFCURVE",
"452 750 CURVE"
);
},
{
closed = 1;
nodes = (
"422 140 LINE",
"394 129 OFFCURVE",
"366 124 OFFCURVE",
"345 124 CURVE SMOOTH",
"267 124 OFFCURVE",
"117 185 OFFCURVE",
"117 369 CURVE SMOOTH",
"117 554 OFFCURVE",
"267 615 OFFCURVE",
"345 615 CURVE SMOOTH",
"364 615 OFFCURVE",
"390 611 OFFCURVE",
"417 602 CURVE",
"416 673 LINE",
"392 680 OFFCURVE",
"368 683 OFFCURVE",
"345 683 CURVE SMOOTH",
"198 683 OFFCURVE",
"46 548 OFFCURVE",
"46 371 CURVE SMOOTH",
"46 193 OFFCURVE",
"198 56 OFFCURVE",
"345 56 CURVE SMOOTH",
"371 56 OFFCURVE",
"397 60 OFFCURVE",
"423 68 CURVE"
);
},
{
closed = 1;
nodes = (
"423 68 LINE",
"422 140 LINE"
);
},
{
closed = 1;
nodes = (
"433 60 OFFCURVE",
"459 56 OFFCURVE",
"485 56 CURVE SMOOTH",
"632 56 OFFCURVE",
"784 193 OFFCURVE",
"784 371 CURVE SMOOTH",
"784 548 OFFCURVE",
"632 683 OFFCURVE",
"485 683 CURVE SMOOTH",
"462 683 OFFCURVE",
"438 680 OFFCURVE",
"414 673 CURVE",
"413 602 LINE",
"440 611 OFFCURVE",
"466 615 OFFCURVE",
"485 615 CURVE SMOOTH",
"563 615 OFFCURVE",
"713 554 OFFCURVE",
"713 369 CURVE SMOOTH",
"713 185 OFFCURVE",
"563 124 OFFCURVE",
"485 124 CURVE SMOOTH",
"464 124 OFFCURVE",
"436 129 OFFCURVE",
"408 140 CURVE",
"407 68 LINE"
);
},
{
closed = 1;
nodes = (
"407 68 LINE",
"408 140 LINE"
);
}
);
width = 830;
},
{
layerId = "1E834396-7C72-44CF-B9BE-DF3A8E7FF23F";
width = 600;
},
{
associatedMasterId = "94E4BE91-FC80-477F-8032-C50F6AA25321";
layerId = "9D8030CA-8A89-40D5-8186-0B08A255CDBC";
width = 600;
},
{
layerId = "0E4D5491-561A-4208-9CE2-EBBE0132EEC6";
width = 600;
}
);
unicode = 0424;
},
{
glyphname = "Che-cy";
lastChange = "2018-09-05 22:00:10 +0000";
layers = (
{
layerId = "94E4BE91-FC80-477F-8032-C50F6AA25321";
paths = (
{
closed = 1;
nodes = (
"477 745 OFFCURVE",
"453 744 OFFCURVE",
"428 745 CURVE",
"429 634 OFFCURVE",
"430 521 OFFCURVE",
"430 411 CURVE",
"367 395 OFFCURVE",
"312 396 OFFCURVE",
"265 396 CURVE",
"220 396 OFFCURVE",
"122 423 OFFCURVE",
"122 583 CURVE",
"122 750 LINE",
"98 742 OFFCURVE",
"74 743 OFFCURVE",
"50 741 CURVE",
"50 590 LINE",
"50 368 OFFCURVE",
"179 329 OFFCURVE",
"266 329 CURVE",
"316 329 OFFCURVE",
"363 326 OFFCURVE",
"430 343 CURVE",
"430 227 OFFCURVE",
"429 115 OFFCURVE",
"428 0 CURVE",
"453 4 OFFCURVE",
"477 6 OFFCURVE",
"502 4 CURVE",
"499 253 OFFCURVE",
"499 501 OFFCURVE",
"502 750 CURVE"
);
}
);
width = 562;
},
{
layerId = "1E834396-7C72-44CF-B9BE-DF3A8E7FF23F";
width = 600;
},
{
associatedMasterId = "94E4BE91-FC80-477F-8032-C50F6AA25321";
layerId = "9D8030CA-8A89-40D5-8186-0B08A255CDBC";
width = 600;
},
{
layerId = "0E4D5491-561A-4208-9CE2-EBBE0132EEC6";
width = 600;
}
);
unicode = 0427;
},
{
glyphname = "Tse-cy";
lastChange = "2018-09-05 22:00:10 +0000";
layers = (
{
layerId = "94E4BE91-FC80-477F-8032-C50F6AA25321";
paths = (
{
closed = 1;
nodes = (
"428 63 OFFCURVE",
"258 63 OFFCURVE",
"132 66 CURVE",
"134 748 LINE",
"109 743 OFFCURVE",
"85 740 OFFCURVE",
"60 741 CURVE",
"63 499 OFFCURVE",
"63 240 OFFCURVE",
"60 -2 CURVE",
"235 1 OFFCURVE",
"451 1 OFFCURVE",
"626 -2 CURVE",
"623 240 OFFCURVE",
"623 506 OFFCURVE",
"626 748 CURVE",
"601 743 OFFCURVE",
"577 740 OFFCURVE",
"552 741 CURVE",
"554 66 LINE"
);
},
{
closed = 1;
nodes = (
"642 70 OFFCURVE",
"618 69 OFFCURVE",
"593 70 CURVE",
"596 -8 OFFCURVE",
"596 -57 OFFCURVE",
"593 -125 CURVE",
"618 -121 OFFCURVE",
"642 -119 OFFCURVE",
"667 -121 CURVE",
"664 -52 OFFCURVE",
"664 -4 OFFCURVE",
"667 75 CURVE"
);
}
);
width = 686;
},
{
layerId = "1E834396-7C72-44CF-B9BE-DF3A8E7FF23F";
paths = (
{
closed = 1;
nodes = (
"328 163 OFFCURVE",
"358 163 OFFCURVE",
"232 166 CURVE",
"234 748 LINE",
"209 743 OFFCURVE",
"85 740 OFFCURVE",
"60 741 CURVE",
"63 499 OFFCURVE",
"63 240 OFFCURVE",
"60 -2 CURVE",
"235 1 OFFCURVE",
"451 1 OFFCURVE",
"626 -2 CURVE",
"623 240 OFFCURVE",
"623 506 OFFCURVE",
"626 748 CURVE",
"601 743 OFFCURVE",
"477 740 OFFCURVE",
"452 741 CURVE",
"454 166 LINE"
);
},
{
closed = 1;
nodes = (
"642 166 OFFCURVE",
"558 165 OFFCURVE",
"533 166 CURVE",
"536 88 OFFCURVE",
"536 -57 OFFCURVE",
"533 -125 CURVE",
"558 -121 OFFCURVE",
"642 -119 OFFCURVE",
"667 -121 CURVE",
"664 -52 OFFCURVE",
"664 92 OFFCURVE",
"667 171 CURVE"
);
}
);
width = 727;
},
{
associatedMasterId = "94E4BE91-FC80-477F-8032-C50F6AA25321";
layerId = "9D8030CA-8A89-40D5-8186-0B08A255CDBC";
width = 600;
},
{
layerId = "0E4D5491-561A-4208-9CE2-EBBE0132EEC6";
width = 600;
}
);
unicode = 0426;
},
{
glyphname = "Sha-cy";
lastChange = "2018-09-05 22:00:10 +0000";
layers = (
{
layerId = "94E4BE91-FC80-477F-8032-C50F6AA25321";
paths = (
{
closed = 1;
nodes = (
"658 63 OFFCURVE",
"258 63 OFFCURVE",
"132 66 CURVE",
"134 748 LINE",
"109 743 OFFCURVE",
"85 740 OFFCURVE",
"60 741 CURVE",
"63 499 OFFCURVE",
"63 240 OFFCURVE",
"60 -2 CURVE",
"235 1 OFFCURVE",
"681 1 OFFCURVE",
"856 -2 CURVE",
"853 240 OFFCURVE",
"853 506 OFFCURVE",
"856 748 CURVE",
"831 743 OFFCURVE",
"807 740 OFFCURVE",
"782 741 CURVE",
"784 66 LINE"
);
},
{
closed = 1;
nodes = (
"469 745 OFFCURVE",
"445 744 OFFCURVE",
"420 745 CURVE",
"423 497 OFFCURVE",
"423 248 OFFCURVE",
"420 0 CURVE",
"445 4 OFFCURVE",
"469 6 OFFCURVE",
"494 4 CURVE",
"491 253 OFFCURVE",
"491 501 OFFCURVE",
"494 750 CURVE"
);
}
);
width = 916;
},
{
layerId = "1E834396-7C72-44CF-B9BE-DF3A8E7FF23F";
paths = (
{
closed = 1;
nodes = (
"558 163 OFFCURVE",
"358 163 OFFCURVE",
"232 166 CURVE",
"234 748 LINE",
"209 743 OFFCURVE",
"85 740 OFFCURVE",
"60 741 CURVE",
"63 499 OFFCURVE",
"63 240 OFFCURVE",
"60 -2 CURVE",
"235 1 OFFCURVE",
"681 1 OFFCURVE",
"856 -2 CURVE",
"853 240 OFFCURVE",
"853 506 OFFCURVE",
"856 748 CURVE",
"831 743 OFFCURVE",
"707 740 OFFCURVE",
"682 741 CURVE",
"684 166 LINE"
);
},
{
closed = 1;
nodes = (
"519 745 OFFCURVE",
"395 744 OFFCURVE",
"370 745 CURVE",
"373 497 OFFCURVE",
"373 248 OFFCURVE",
"370 0 CURVE",
"395 4 OFFCURVE",
"519 6 OFFCURVE",
"544 4 CURVE",
"541 253 OFFCURVE",
"541 501 OFFCURVE",
"544 750 CURVE"
);
}
);
width = 916;
},
{
associatedMasterId = "94E4BE91-FC80-477F-8032-C50F6AA25321";
layerId = "9D8030CA-8A89-40D5-8186-0B08A255CDBC";
width = 600;
},
{
layerId = "0E4D5491-561A-4208-9CE2-EBBE0132EEC6";
width = 600;
}
);
unicode = 0428;
},
{
glyphname = "Shcha-cy";
lastChange = "2018-09-05 22:00:10 +0000";
layers = (
{
layerId = "94E4BE91-FC80-477F-8032-C50F6AA25321";
paths = (
{
closed = 1;
nodes = (
"658 63 OFFCURVE",
"258 63 OFFCURVE",
"132 66 CURVE",
"134 748 LINE",
"109 743 OFFCURVE",
"85 740 OFFCURVE",
"60 741 CURVE",
"63 499 OFFCURVE",
"63 240 OFFCURVE",
"60 -2 CURVE",
"235 1 OFFCURVE",
"681 1 OFFCURVE",
"856 -2 CURVE",
"853 240 OFFCURVE",
"853 506 OFFCURVE",
"856 748 CURVE",
"831 743 OFFCURVE",
"807 740 OFFCURVE",
"782 741 CURVE",
"784 66 LINE"
);
},
{
closed = 1;
nodes = (
"469 745 OFFCURVE",
"445 744 OFFCURVE",
"420 745 CURVE",
"423 497 OFFCURVE",
"423 248 OFFCURVE",
"420 0 CURVE",
"445 4 OFFCURVE",
"469 6 OFFCURVE",
"494 4 CURVE",
"491 253 OFFCURVE",
"491 501 OFFCURVE",
"494 750 CURVE"
);
},
{
closed = 1;
nodes = (
"871 70 OFFCURVE",
"847 69 OFFCURVE",
"822 70 CURVE",
"825 -8 OFFCURVE",
"825 -57 OFFCURVE",
"822 -125 CURVE",
"847 -121 OFFCURVE",
"871 -119 OFFCURVE",
"896 -121 CURVE",
"893 -52 OFFCURVE",
"893 -4 OFFCURVE",
"896 75 CURVE"
);
}
);
width = 916;
},
{
layerId = "1E834396-7C72-44CF-B9BE-DF3A8E7FF23F";
paths = (
{
closed = 1;
nodes = (
"558 163 OFFCURVE",
"358 163 OFFCURVE",
"232 166 CURVE",
"234 748 LINE",
"209 743 OFFCURVE",
"85 740 OFFCURVE",
"60 741 CURVE",
"63 499 OFFCURVE",
"63 240 OFFCURVE",
"60 -2 CURVE",
"235 1 OFFCURVE",
"681 1 OFFCURVE",
"856 -2 CURVE",
"853 240 OFFCURVE",
"853 506 OFFCURVE",
"856 748 CURVE",
"831 743 OFFCURVE",
"707 740 OFFCURVE",
"682 741 CURVE",
"684 166 LINE"
);
},
{
closed = 1;
nodes = (
"519 745 OFFCURVE",
"395 744 OFFCURVE",
"370 745 CURVE",
"373 497 OFFCURVE",
"373 248 OFFCURVE",
"370 0 CURVE",
"395 4 OFFCURVE",
"519 6 OFFCURVE",
"544 4 CURVE",
"541 253 OFFCURVE",
"541 501 OFFCURVE",
"544 750 CURVE"
);
},
{
closed = 1;
nodes = (
"890 166 OFFCURVE",
"806 165 OFFCURVE",
"781 166 CURVE",
"784 88 OFFCURVE",
"784 -57 OFFCURVE",
"781 -125 CURVE",
"806 -121 OFFCURVE",
"890 -119 OFFCURVE",
"915 -121 CURVE",
"912 -52 OFFCURVE",
"912 92 OFFCURVE",
"915 171 CURVE"
);
}
);
width = 916;
},
{
associatedMasterId = "94E4BE91-FC80-477F-8032-C50F6AA25321";
layerId = "9D8030CA-8A89-40D5-8186-0B08A255CDBC";
width = 600;
},
{
layerId = "0E4D5491-561A-4208-9CE2-EBBE0132EEC6";
width = 600;
}
);
unicode = 0429;
},
{
glyphname = "Softsign-cy";
lastChange = "2018-09-05 22:00:10 +0000";
layers = (
{
layerId = "94E4BE91-FC80-477F-8032-C50F6AA25321";
paths = (
{
closed = 1;
nodes = (
"242 416 OFFCURVE",
"189 417 OFFCURVE",
"131 417 CURVE",
"134 750 LINE",
"109 743 OFFCURVE",
"85 740 OFFCURVE",
"60 739 CURVE",
"60 738 OFFCURVE",
"60 738 OFFCURVE",
"60 738 CURVE",
"63 424 OFFCURVE",
"63 216 OFFCURVE",
"60 0 CURVE",
"85 1 OFFCURVE",
"228 -3 OFFCURVE",
"288 -3 CURVE SMOOTH",
"437 -3 OFFCURVE",
"519 63 OFFCURVE",
"519 202 CURVE SMOOTH",
"519 329 OFFCURVE",
"439 416 OFFCURVE",
"288 416 CURVE SMOOTH"
);
},
{
closed = 1;
nodes = (
"228 64 OFFCURVE",
"181 63 OFFCURVE",
"134 66 CURVE",
"132 348 LINE",
"193 346 OFFCURVE",
"244 346 OFFCURVE",
"288 346 CURVE SMOOTH",
"395 346 OFFCURVE",
"445 293 OFFCURVE",
"445 202 CURVE SMOOTH",
"445 95 OFFCURVE",
"396 64 OFFCURVE",
"275 64 CURVE SMOOTH"
);
}
);
width = 559;
},
{
layerId = "1E834396-7C72-44CF-B9BE-DF3A8E7FF23F";
width = 600;
},
{
associatedMasterId = "94E4BE91-FC80-477F-8032-C50F6AA25321";
layerId = "9D8030CA-8A89-40D5-8186-0B08A255CDBC";
width = 600;
},
{
layerId = "0E4D5491-561A-4208-9CE2-EBBE0132EEC6";
width = 600;
}
);
unicode = 042C;
},
{
glyphname = "Hardsign-cy";
lastChange = "2018-09-05 22:00:10 +0000";
layers = (
{
layerId = "94E4BE91-FC80-477F-8032-C50F6AA25321";
paths = (
{
closed = 1;
nodes = (
"325 416 OFFCURVE",
"272 417 OFFCURVE",
"214 417 CURVE",
"217 750 LINE",
"217 751 LINE",
"179 750 OFFCURVE",
"104 751 OFFCURVE",
"49 753 CURVE",
"47 730 OFFCURVE",
"45 708 OFFCURVE",
"40 685 CURVE",
"88 687 OFFCURVE",
"116 688 OFFCURVE",
"143 687 CURVE",
"146 401 OFFCURVE",
"146 204 OFFCURVE",
"143 0 CURVE",
"168 1 OFFCURVE",
"311 -3 OFFCURVE",
"371 -3 CURVE SMOOTH",
"520 -3 OFFCURVE",
"602 63 OFFCURVE",
"602 202 CURVE SMOOTH",
"602 329 OFFCURVE",
"522 416 OFFCURVE",
"371 416 CURVE SMOOTH"
);
},
{
closed = 1;
nodes = (
"311 64 OFFCURVE",
"264 63 OFFCURVE",
"217 66 CURVE",
"215 348 LINE",
"276 346 OFFCURVE",
"327 346 OFFCURVE",
"371 346 CURVE SMOOTH",
"478 346 OFFCURVE",
"528 293 OFFCURVE",
"528 202 CURVE SMOOTH",
"528 95 OFFCURVE",
"479 64 OFFCURVE",
"358 64 CURVE SMOOTH"
);
}
);
width = 642;
},
{
layerId = "1E834396-7C72-44CF-B9BE-DF3A8E7FF23F";
width = 600;
},
{
associatedMasterId = "94E4BE91-FC80-477F-8032-C50F6AA25321";
layerId = "9D8030CA-8A89-40D5-8186-0B08A255CDBC";
width = 600;
},
{
layerId = "0E4D5491-561A-4208-9CE2-EBBE0132EEC6";
width = 600;
}
);
unicode = 042A;
},
{
glyphname = "Yeru-cy";
lastChange = "2018-09-05 22:00:10 +0000";
layers = (
{
layerId = "94E4BE91-FC80-477F-8032-C50F6AA25321";
paths = (
{
closed = 1;
nodes = (
"242 416 OFFCURVE",
"189 417 OFFCURVE",
"131 417 CURVE",
"134 750 LINE",
"109 743 OFFCURVE",
"85 740 OFFCURVE",
"60 739 CURVE",
"60 738 OFFCURVE",
"60 738 OFFCURVE",
"60 738 CURVE",
"63 424 OFFCURVE",
"63 216 OFFCURVE",
"60 0 CURVE",
"85 1 OFFCURVE",
"228 -3 OFFCURVE",
"288 -3 CURVE SMOOTH",
"437 -3 OFFCURVE",
"519 63 OFFCURVE",
"519 202 CURVE SMOOTH",
"519 329 OFFCURVE",
"439 416 OFFCURVE",
"288 416 CURVE SMOOTH"
);
},
{
closed = 1;
nodes = (
"228 64 OFFCURVE",
"181 63 OFFCURVE",
"134 66 CURVE",
"132 348 LINE",
"193 346 OFFCURVE",
"244 346 OFFCURVE",
"288 346 CURVE SMOOTH",
"395 346 OFFCURVE",
"445 293 OFFCURVE",
"445 202 CURVE SMOOTH",
"445 95 OFFCURVE",
"396 64 OFFCURVE",
"275 64 CURVE SMOOTH"
);
},
{
closed = 1;
nodes = (
"619 745 OFFCURVE",
"595 744 OFFCURVE",
"570 745 CURVE",
"573 497 OFFCURVE",
"573 248 OFFCURVE",
"570 0 CURVE",
"595 4 OFFCURVE",
"619 6 OFFCURVE",
"644 4 CURVE",
"641 253 OFFCURVE",
"641 501 OFFCURVE",
"644 750 CURVE"
);
}
);
width = 704;
},
{
layerId = "1E834396-7C72-44CF-B9BE-DF3A8E7FF23F";
width = 600;
},
{
associatedMasterId = "94E4BE91-FC80-477F-8032-C50F6AA25321";
layerId = "9D8030CA-8A89-40D5-8186-0B08A255CDBC";
width = 600;
},
{
layerId = "0E4D5491-561A-4208-9CE2-EBBE0132EEC6";
width = 600;
}
);
unicode = 042B;
},
{
glyphname = "Ereversed-cy";
lastChange = "2018-09-05 22:00:10 +0000";
layers = (
{
layerId = "94E4BE91-FC80-477F-8032-C50F6AA25321";
paths = (
{
closed = 1;
nodes = (
"272 64 OFFCURVE",
"149 106 OFFCURVE",
"103 208 CURVE",
"85 190 OFFCURVE",
"67 173 OFFCURVE",
"49 157 CURVE",
"101 57 OFFCURVE",
"229 -7 OFFCURVE",
"340 -7 CURVE SMOOTH",
"518 -7 OFFCURVE",
"703 160 OFFCURVE",
"703 376 CURVE SMOOTH",
"703 592 OFFCURVE",
"518 756 OFFCURVE",
"340 756 CURVE SMOOTH",
"227 756 OFFCURVE",
"98 692 OFFCURVE",
"46 590 CURVE",
"69 578 OFFCURVE",
"90 568 OFFCURVE",
"111 558 CURVE",
"158 649 OFFCURVE",
"276 686 OFFCURVE",
"339 686 CURVE SMOOTH",
"435 686 OFFCURVE",
"629 599 OFFCURVE",
"629 374 CURVE SMOOTH",
"629 150 OFFCURVE",
"435 64 OFFCURVE",
"339 64 CURVE SMOOTH"
);
},
{
closed = 1;
nodes = (
"549 408 OFFCURVE",
"414 409 OFFCURVE",
"309 411 CURVE",
"307 388 OFFCURVE",
"299 366 OFFCURVE",
"294 343 CURVE",
"401 346 OFFCURVE",
"572 346 OFFCURVE",
"647 344 CURVE",
"647 409 LINE"
);
}
);
width = 749;
},
{
layerId = "1E834396-7C72-44CF-B9BE-DF3A8E7FF23F";
width = 600;
},
{
associatedMasterId = "94E4BE91-FC80-477F-8032-C50F6AA25321";
layerId = "9D8030CA-8A89-40D5-8186-0B08A255CDBC";
width = 600;
},
{
layerId = "0E4D5491-561A-4208-9CE2-EBBE0132EEC6";
width = 600;
}
);
unicode = 042D;
},
{
glyphname = "Iu-cy";
lastChange = "2018-09-05 22:00:10 +0000";
layers = (
{
layerId = "94E4BE91-FC80-477F-8032-C50F6AA25321";
paths = (
{
closed = 1;
nodes = (
"196 160 OFFCURVE",
"385 -7 OFFCURVE",
"573 -7 CURVE SMOOTH",
"762 -7 OFFCURVE",
"951 160 OFFCURVE",
"951 376 CURVE SMOOTH",
"951 592 OFFCURVE",
"771 756 OFFCURVE",
"573 756 CURVE SMOOTH",
"385 756 OFFCURVE",
"196 592 OFFCURVE",
"196 376 CURVE SMOOTH"
);
},
{
closed = 1;
nodes = (
"270 599 OFFCURVE",
"468 686 OFFCURVE",
"574 686 CURVE SMOOTH",
"689 686 OFFCURVE",
"877 599 OFFCURVE",
"877 374 CURVE SMOOTH",
"877 150 OFFCURVE",
"680 64 OFFCURVE",
"574 64 CURVE SMOOTH",
"468 64 OFFCURVE",
"270 150 OFFCURVE",
"270 374 CURVE SMOOTH"
);
},
{
closed = 1;
nodes = (
"108 741 OFFCURVE",
"84 736 OFFCURVE",
"60 734 CURVE",
"60 1 LINE",
"84 9 OFFCURVE",
"108 13 OFFCURVE",
"132 15 CURVE",
"132 749 LINE"
);
},
{
closed = 1;
nodes = (
"209 408 OFFCURVE",
"164 409 OFFCURVE",
"119 411 CURVE",
"117 388 OFFCURVE",
"109 366 OFFCURVE",
"104 343 CURVE",
"151 346 OFFCURVE",
"232 346 OFFCURVE",
"257 344 CURVE",
"257 409 LINE"
);
}
);
width = 997;
},
{
layerId = "1E834396-7C72-44CF-B9BE-DF3A8E7FF23F";
width = 600;
},
{
associatedMasterId = "94E4BE91-FC80-477F-8032-C50F6AA25321";
layerId = "9D8030CA-8A89-40D5-8186-0B08A255CDBC";
width = 600;
},
{
layerId = "0E4D5491-561A-4208-9CE2-EBBE0132EEC6";
width = 600;
}
);
unicode = 042E;
},
{
glyphname = "Ia-cy";
lastChange = "2018-09-05 22:00:10 +0000";
layers = (
{
layerId = "94E4BE91-FC80-477F-8032-C50F6AA25321";
paths = (
{
closed = 1;
nodes = (
"393 299 LINE",
"356 299 LINE",
"245 306 OFFCURVE",
"134 379 OFFCURVE",
"134 495 CURVE SMOOTH",
"134 602 OFFCURVE",
"203 685 OFFCURVE",
"324 685 CURVE SMOOTH",
"352 685 OFFCURVE",
"419 686 OFFCURVE",
"455 683 CURVE",
"458 464 OFFCURVE",
"458 220 OFFCURVE",
"455 1 CURVE",
"480 8 OFFCURVE",
"503 9 OFFCURVE",
"529 7 CURVE",
"526 255 OFFCURVE",
"526 503 OFFCURVE",
"529 751 CURVE",
"503 750 OFFCURVE",
"414 749 OFFCURVE",
"321 749 CURVE SMOOTH",
"152 749 OFFCURVE",
"60 654 OFFCURVE",
"60 495 CURVE SMOOTH",
"60 363 OFFCURVE",
"187 269 OFFCURVE",
"301 241 CURVE",
"84 11 LINE",
"112 9 OFFCURVE",
"134 1 OFFCURVE",
"162 -13 CURVE",
"451 299 LINE"
);
}
);
width = 589;
},
{
layerId = "1E834396-7C72-44CF-B9BE-DF3A8E7FF23F";
width = 600;
},
{
associatedMasterId = "94E4BE91-FC80-477F-8032-C50F6AA25321";
layerId = "9D8030CA-8A89-40D5-8186-0B08A255CDBC";
width = 600;
},
{
layerId = "0E4D5491-561A-4208-9CE2-EBBE0132EEC6";
width = 600;
}
);
unicode = 042F;
},
{
glyphname = "io-cy";
lastChange = "2018-09-05 22:00:10 +0000";
layers = (
{
layerId = "94E4BE91-FC80-477F-8032-C50F6AA25321";
paths = (
{
closed = 1;
nodes = (
"127 298 LINE",
"136 351 OFFCURVE",
"201 435 OFFCURVE",
"293 435 CURVE SMOOTH",
"371 435 OFFCURVE",
"449 373 OFFCURVE",
"461 298 CURVE"
);
},
{
closed = 1;
nodes = (
"507 238 LINE",
"533 272 LINE",
"533 415 OFFCURVE",
"408 503 OFFCURVE",
"292 503 CURVE SMOOTH",
"158 503 OFFCURVE",
"46 393 OFFCURVE",
"46 245 CURVE SMOOTH",
"46 84 OFFCURVE",
"177 -3 OFFCURVE",
"293 -3 CURVE SMOOTH",
"351 -3 OFFCURVE",
"459 19 OFFCURVE",
"511 133 CURVE",
"489 142 OFFCURVE",
"468 152 OFFCURVE",
"450 165 CURVE",
"416 85 OFFCURVE",
"322 66 OFFCURVE",
"289 66 CURVE SMOOTH",
"235 66 OFFCURVE",
"120 116 OFFCURVE",
"118 238 CURVE"
);
},
{
closed = 1;
nodes = (
"144 609 OFFCURVE",
"172 591 OFFCURVE",
"195 591 CURVE",
"218 591 OFFCURVE",
"247 609 OFFCURVE",
"247 642 CURVE",
"247 675 OFFCURVE",
"218 694 OFFCURVE",
"195 694 CURVE",
"172 694 OFFCURVE",
"144 675 OFFCURVE",
"144 642 CURVE"
);
},
{
closed = 1;
nodes = (
"334 609 OFFCURVE",
"362 591 OFFCURVE",
"385 591 CURVE",
"408 591 OFFCURVE",
"437 609 OFFCURVE",
"437 642 CURVE",
"437 675 OFFCURVE",
"408 694 OFFCURVE",
"385 694 CURVE",
"362 694 OFFCURVE",
"334 675 OFFCURVE",
"334 642 CURVE"
);
}
);
width = 583;
},
{
layerId = "1E834396-7C72-44CF-B9BE-DF3A8E7FF23F";
width = 600;
},
{
layerId = "0E4D5491-561A-4208-9CE2-EBBE0132EEC6";
width = 600;
}
);
unicode = 0451;
},
{
glyphname = zero;
lastChange = "2018-09-05 22:00:10 +0000";
layers = (
{
layerId = "94E4BE91-FC80-477F-8032-C50F6AA25321";
paths = (
{
closed = 1;
nodes = (
"40 160 OFFCURVE",
"149 -7 OFFCURVE",
"337 -7 CURVE SMOOTH",
"526 -7 OFFCURVE",
"635 160 OFFCURVE",
"635 376 CURVE SMOOTH",
"635 592 OFFCURVE",
"535 756 OFFCURVE",
"337 756 CURVE SMOOTH",
"149 756 OFFCURVE",
"40 592 OFFCURVE",
"40 376 CURVE SMOOTH"
);
},
{
closed = 1;
nodes = (
"114 599 OFFCURVE",
"232 686 OFFCURVE",
"338 686 CURVE SMOOTH",
"453 686 OFFCURVE",
"561 599 OFFCURVE",
"561 374 CURVE SMOOTH",
"561 150 OFFCURVE",
"444 64 OFFCURVE",
"338 64 CURVE SMOOTH",
"232 64 OFFCURVE",
"114 150 OFFCURVE",
"114 374 CURVE SMOOTH"
);
}
);
width = 675;
},
{
layerId = "1E834396-7C72-44CF-B9BE-DF3A8E7FF23F";
paths = (
{
closed = 1;
nodes = (
"40 160 OFFCURVE",
"149 -7 OFFCURVE",
"337 -7 CURVE SMOOTH",
"526 -7 OFFCURVE",
"635 160 OFFCURVE",
"635 376 CURVE SMOOTH",
"635 592 OFFCURVE",
"535 756 OFFCURVE",
"337 756 CURVE SMOOTH",
"149 756 OFFCURVE",
"40 592 OFFCURVE",
"40 376 CURVE SMOOTH"
);
},
{
closed = 1;
nodes = (
"214 479 OFFCURVE",
"252 586 OFFCURVE",
"338 586 CURVE SMOOTH",
"433 586 OFFCURVE",
"461 479 OFFCURVE",
"461 374 CURVE SMOOTH",
"461 230 OFFCURVE",
"424 164 OFFCURVE",
"338 164 CURVE SMOOTH",
"252 164 OFFCURVE",
"214 230 OFFCURVE",
"214 374 CURVE SMOOTH"
);
}
);
width = 675;
},
{
layerId = "0E4D5491-561A-4208-9CE2-EBBE0132EEC6";
width = 600;
}
);
unicode = 0030;
},
{
glyphname = one;
lastChange = "2018-09-14 19:51:11 +0000";
layers = (
{
hints = (
{
horizontal = 1;
place = "{0, 750}";
type = Stem;
},
{
place = "{51, 35}";
type = Stem;
}
);
layerId = "94E4BE91-FC80-477F-8032-C50F6AA25321";
paths = (
{
closed = 1;
nodes = (
"50 611 LINE",
"109 611 LINE",
"112 417 OFFCURVE",
"112 194 OFFCURVE",
"109 0 CURVE",
"134 4 OFFCURVE",
"158 6 OFFCURVE",
"183 4 CURVE",
"180 253 OFFCURVE",
"180 501 OFFCURVE",
"183 750 CURVE",
"118 728 LINE",
"118 691 OFFCURVE",
"84 661 OFFCURVE",
"50 661 CURVE"
);
}
);
width = 253;
},
{
layerId = "1E834396-7C72-44CF-B9BE-DF3A8E7FF23F";
paths = (
{
closed = 1;
nodes = (
"50 511 LINE",
"109 511 LINE",
"112 317 OFFCURVE",
"112 194 OFFCURVE",
"109 0 CURVE",
"134 4 OFFCURVE",
"258 6 OFFCURVE",
"283 4 CURVE",
"280 253 OFFCURVE",
"280 501 OFFCURVE",
"283 750 CURVE",
"118 728 LINE",
"118 691 OFFCURVE",
"84 661 OFFCURVE",
"50 661 CURVE"
);
}
);
width = 333;
},
{
layerId = "0E4D5491-561A-4208-9CE2-EBBE0132EEC6";
width = 600;
}
);
note = one;
unicode = 0031;
},
{
glyphname = two;
lastChange = "2018-09-05 22:00:10 +0000";
layers = (
{
layerId = "94E4BE91-FC80-477F-8032-C50F6AA25321";
paths = (
{
closed = 1;
nodes = (
"151 503 LINE",
"129 590 OFFCURVE",
"178 695 OFFCURVE",
"279 695 CURVE",
"391 695 OFFCURVE",
"447 567 OFFCURVE",
"389 470 CURVE",
"301 339 OFFCURVE",
"162 158 OFFCURVE",
"50 0 CURVE",
"498 0 LINE",
"502 20 OFFCURVE",
"509 40 OFFCURVE",
"522 68 CURVE",
"186 68 LINE",
"277 196 OFFCURVE",
"423 393 OFFCURVE",
"457 453 CURVE",
"495 521 OFFCURVE",
"486 600 OFFCURVE",
"462 651 CURVE SMOOTH",
"431 717 OFFCURVE",
"362 759 OFFCURVE",
"281 761 CURVE",
"159 761 OFFCURVE",
"59 658 OFFCURVE",
"79 535 CURVE"
);
}
);
width = 562;
},
{
layerId = "1E834396-7C72-44CF-B9BE-DF3A8E7FF23F";
paths = (
{
closed = 1;
nodes = (
"225 496 LINE",
"209 553 OFFCURVE",
"240 608 OFFCURVE",
"290 608 CURVE SMOOTH",
"348 608 OFFCURVE",
"380 539 OFFCURVE",
"347 482 CURVE",
"248 321 OFFCURVE",
"149 161 OFFCURVE",
"50 0 CURVE",
"501 0 LINE",
"514 51 OFFCURVE",
"531 101 OFFCURVE",
"554 152 CURVE",
"339 152 LINE",
"388 241 OFFCURVE",
"436 331 OFFCURVE",
"485 420 CURVE",
"521 483 OFFCURVE",
"524 568 OFFCURVE",
"493 636 CURVE SMOOTH",
"459 710 OFFCURVE",
"381 757 OFFCURVE",
"293 759 CURVE SMOOTH",
"142 762 OFFCURVE",
"35 624 OFFCURVE",
"75 482 CURVE"
);
}
);
width = 594;
},
{
layerId = "0E4D5491-561A-4208-9CE2-EBBE0132EEC6";
paths = (
{
closed = 1;
nodes = (
"470 421 OFFCURVE",
"502 479 OFFCURVE",
"502 553 CURVE SMOOTH",
"502 688 OFFCURVE",
"397 762 OFFCURVE",
"301 762 CURVE SMOOTH",
"218 762 OFFCURVE",
"142 713 OFFCURVE",
"111 639 CURVE",
"175 608 LINE",
"195 659 OFFCURVE",
"248 695 OFFCURVE",
"301 695 CURVE SMOOTH",
"356 695 OFFCURVE",
"432 648 OFFCURVE",
"432 551 CURVE SMOOTH",
"432 477 OFFCURVE",
"380 424 OFFCURVE",
"312 417 CURVE",
"316 417 OFFCURVE",
"304 417 OFFCURVE",
"256 417 CURVE",
"245 350 LINE",
"312 350 LINE",
"311 350 LINE",
"379 343 OFFCURVE",
"442 278 OFFCURVE",
"442 204 CURVE SMOOTH",
"442 107 OFFCURVE",
"356 59 OFFCURVE",
"301 59 CURVE SMOOTH",
"249 59 OFFCURVE",
"195 96 OFFCURVE",
"175 147 CURVE",
"111 116 LINE",
"142 42 OFFCURVE",
"218 -7 OFFCURVE",
"301 -7 CURVE SMOOTH",
"397 -7 OFFCURVE",
"512 67 OFFCURVE",
"512 202 CURVE SMOOTH",
"512 276 OFFCURVE",
"470 346 OFFCURVE",
"413 384 CURVE"
);
}
);
width = 600;
}
);
note = two;
unicode = 0032;
},
{
glyphname = three;
lastChange = "2018-09-05 22:00:10 +0000";
layers = (
{
layerId = "94E4BE91-FC80-477F-8032-C50F6AA25321";
paths = (
{
closed = 1;
nodes = (
"399 421 OFFCURVE",
"431 479 OFFCURVE",
"431 553 CURVE SMOOTH",
"431 688 OFFCURVE",
"326 762 OFFCURVE",
"230 762 CURVE SMOOTH",
"147 762 OFFCURVE",
"71 713 OFFCURVE",
"40 639 CURVE",
"61 632 OFFCURVE",
"83 621 OFFCURVE",
"104 608 CURVE",
"124 659 OFFCURVE",
"177 695 OFFCURVE",
"230 695 CURVE SMOOTH",
"285 695 OFFCURVE",
"361 648 OFFCURVE",
"361 551 CURVE SMOOTH",
"361 477 OFFCURVE",
"309 424 OFFCURVE",
"241 417 CURVE",
"245 417 OFFCURVE",
"233 417 OFFCURVE",
"185 417 CURVE",
"184 395 OFFCURVE",
"181 372 OFFCURVE",
"174 350 CURVE",
"241 350 LINE",
"240 350 LINE",
"308 343 OFFCURVE",
"371 278 OFFCURVE",
"371 204 CURVE SMOOTH",
"371 107 OFFCURVE",
"285 59 OFFCURVE",
"230 59 CURVE SMOOTH",
"178 59 OFFCURVE",
"124 96 OFFCURVE",
"104 147 CURVE",
"83 134 OFFCURVE",
"61 123 OFFCURVE",
"40 116 CURVE",
"71 42 OFFCURVE",
"147 -7 OFFCURVE",
"230 -7 CURVE SMOOTH",
"326 -7 OFFCURVE",
"441 67 OFFCURVE",
"441 202 CURVE SMOOTH",
"441 276 OFFCURVE",
"399 346 OFFCURVE",
"342 384 CURVE"
);
}
);
width = 481;
},
{
layerId = "1E834396-7C72-44CF-B9BE-DF3A8E7FF23F";
paths = (
{
closed = 1;
nodes = (
"458.284 415.198 OFFCURVE",
"489 460.686 OFFCURVE",
"489 532.493 CURVE",
"489 660.587 OFFCURVE",
"391.258 762 OFFCURVE",
"265.664 762 CURVE",
"151.959 762 OFFCURVE",
"53.626 678.878 OFFCURVE",
"40 571 CURVE",
"192 526 LINE",
"191.182 530.276 OFFCURVE",
"190.77 534.588 OFFCURVE",
"190.77 538.789 CURVE",
"190.77 577.649 OFFCURVE",
"226 603 OFFCURVE",
"264 603 CURVE",
"303 603 OFFCURVE",
"326 568 OFFCURVE",
"326 523 CURVE",
"326 479 OFFCURVE",
"304.742 445.852 OFFCURVE",
"252.87 444.58 CURVE",
"243.42 444.348 OFFCURVE",
"216.599 445 OFFCURVE",
"190 445 CURVE",
"159 318 LINE",
"197.563 318 OFFCURVE",
"236.467 318.974 OFFCURVE",
"247.283 318.701 CURVE",
"304.731 317.249 OFFCURVE",
"335 271 OFFCURVE",
"335 229 CURVE",
"335 188 OFFCURVE",
"307 149 OFFCURVE",
"266 149 CURVE",
"222 149 OFFCURVE",
"182.755 184.262 OFFCURVE",
"192 225 CURVE",
"43 174 LINE",
"57.629 68.797 OFFCURVE",
"154.328 -11 OFFCURVE",
"266.756 -11 CURVE",
"394.255 -11 OFFCURVE",
"498 91.623 OFFCURVE",
"498 216.289 CURVE",
"498 289.677 OFFCURVE",
"462.049 343.173 OFFCURVE",
"388 381 CURVE"
);
}
);
width = 538;
},
{
layerId = "0E4D5491-561A-4208-9CE2-EBBE0132EEC6";
width = 600;
}
);
unicode = 0033;
},
{
glyphname = four;
lastChange = "2018-09-05 22:00:10 +0000";
layers = (
{
layerId = "94E4BE91-FC80-477F-8032-C50F6AA25321";
paths = (
{
closed = 1;
nodes = (
"496 310 OFFCURVE",
"472 310 OFFCURVE",
"450 310 CURVE",
"450 456 OFFCURVE",
"450 603 OFFCURVE",
"452 750 CURVE",
"427 745 OFFCURVE",
"403 744 OFFCURVE",
"378 745 CURVE",
"30 243 LINE",
"380 243 LINE",
"380 127 OFFCURVE",
"379 115 OFFCURVE",
"378 0 CURVE",
"403 4 OFFCURVE",
"427 6 OFFCURVE",
"452 4 CURVE",
"451 84 OFFCURVE",
"450 164 OFFCURVE",
"450 244 CURVE",
"468 244 OFFCURVE",
"487 243 OFFCURVE",
"506 243 CURVE",
"509 266 OFFCURVE",
"513 288 OFFCURVE",
"521 311 CURVE"
);
},
{
closed = 1;
nodes = (
"379 624 LINE",
"379 514 OFFCURVE",
"380 391 OFFCURVE",
"380 311 CURVE",
"168 311 LINE"
);
}
);
width = 551;
},
{
layerId = "1E834396-7C72-44CF-B9BE-DF3A8E7FF23F";
paths = (
{
closed = 1;
nodes = (
"531 310 OFFCURVE",
"507 310 OFFCURVE",
"485 310 CURVE",
"485 456 OFFCURVE",
"485 603 OFFCURVE",
"487 750 CURVE",
"462 745 OFFCURVE",
"388 744 OFFCURVE",
"363 745 CURVE",
"34 296 LINE",
"30 153 LINE",
"315 153 LINE",
"315 37 OFFCURVE",
"314 115 OFFCURVE",
"313 0 CURVE",
"338 4 OFFCURVE",
"462 6 OFFCURVE",
"487 4 CURVE",
"486 84 OFFCURVE",
"485 74 OFFCURVE",
"485 154 CURVE",
"503 154 OFFCURVE",
"522 153 OFFCURVE",
"541 153 CURVE",
"544 176 OFFCURVE",
"548 288 OFFCURVE",
"556 311 CURVE"
);
},
{
closed = 1;
nodes = (
"330 470 LINE",
"329 315 LINE",
"229 315 LINE"
);
}
);
width = 586;
},
{
layerId = "0E4D5491-561A-4208-9CE2-EBBE0132EEC6";
width = 600;
}
);
unicode = 0034;
},
{
glyphname = five;
lastChange = "2018-09-05 22:00:10 +0000";
layers = (
{
layerId = "94E4BE91-FC80-477F-8032-C50F6AA25321";
paths = (
{
closed = 1;
nodes = (
"51 203.962 OFFCURVE",
"50 193.446 OFFCURVE",
"50 184.283 CURVE",
"50 85.982 OFFCURVE",
"165.168 0 OFFCURVE",
"291.264 0 CURVE",
"435.278 0 OFFCURVE",
"543 112 OFFCURVE",
"543 259 CURVE",
"543 414 OFFCURVE",
"423.403 515 OFFCURVE",
"265.431 515 CURVE",
"229.737 515 OFFCURVE",
"202.366 509.839 OFFCURVE",
"184 500 CURVE",
"250 682 LINE",
"486 683 LINE",
"486 702 OFFCURVE",
"487.845 730.983 OFFCURVE",
"492 750 CURVE",
"198 750 LINE",
"74 406 LINE",
"152.684 431.12 OFFCURVE",
"213.216 443 OFFCURVE",
"262.787 443 CURVE",
"386.209 443 OFFCURVE",
"466 369.357 OFFCURVE",
"466 253.323 CURVE",
"466 143.641 OFFCURVE",
"394.705 69 OFFCURVE",
"288.791 69 CURVE",
"181.836 69 OFFCURVE",
"106.096 145.115 OFFCURVE",
"115 243 CURVE",
"90.903 229.12 OFFCURVE",
"71.472 220.345 OFFCURVE",
"53 215 CURVE"
);
}
);
width = 575;
},
{
layerId = "1E834396-7C72-44CF-B9BE-DF3A8E7FF23F";
paths = (
{
closed = 1;
nodes = (
"51 203.962 OFFCURVE",
"50 193.446 OFFCURVE",
"50 184.283 CURVE",
"50 85.982 OFFCURVE",
"165.168 0 OFFCURVE",
"291.264 0 CURVE",
"435.278 0 OFFCURVE",
"563 112 OFFCURVE",
"563 259 CURVE",
"563 414 OFFCURVE",
"453 505 OFFCURVE",
"355 505 CURVE",
"320 505 OFFCURVE",
"292 500 OFFCURVE",
"274 490 CURVE",
"300 582 LINE",
"506 583 LINE",
"506 602 OFFCURVE",
"528 731 OFFCURVE",
"532 750 CURVE",
"168 750 LINE",
"70 415 LINE",
"184 330 LINE",
"209 352 OFFCURVE",
"240 360 OFFCURVE",
"270 360 CURVE",
"306 360 OFFCURVE",
"376 338 OFFCURVE",
"376 259 CURVE",
"376 210 OFFCURVE",
"328 162 OFFCURVE",
"282 162 CURVE",
"215 162 OFFCURVE",
"163 226 OFFCURVE",
"193 306 CURVE",
"169 292 OFFCURVE",
"71.472 220.345 OFFCURVE",
"53 215 CURVE"
);
}
);
width = 595;
},
{
layerId = "0E4D5491-561A-4208-9CE2-EBBE0132EEC6";
paths = (
{
closed = 1;
nodes = (
"187 314 OFFCURVE",
"231 358 OFFCURVE",
"283 358 CURVE SMOOTH",
"337 358 OFFCURVE",
"377 315 OFFCURVE",
"377 261 CURVE SMOOTH",
"377 208 OFFCURVE",
"334 163 OFFCURVE",
"282 163 CURVE SMOOTH",
"231 163 OFFCURVE",
"187 207 OFFCURVE",
"187 261 CURVE SMOOTH"
);
},
{
closed = 1;
nodes = (
"96 346 LINE",
"99 344 LINE",
"159 372 LINE",
"199 530 OFFCURVE",
"292 606 OFFCURVE",
"452 614 CURVE",
"410 755 LINE",
"175 734 OFFCURVE",
"20 561 OFFCURVE",
"20 322 CURVE SMOOTH",
"20 129 OFFCURVE",
"124 -6 OFFCURVE",
"278 -6 CURVE SMOOTH",
"421 -6 OFFCURVE",
"545 117 OFFCURVE",
"545 261 CURVE SMOOTH",
"545 402 OFFCURVE",
"427 525 OFFCURVE",
"292 525 CURVE SMOOTH",
"217 525 OFFCURVE",
"139 482 OFFCURVE",
"82 410 CURVE"
);
}
);
width = 600;
}
);
unicode = 0035;
},
{
glyphname = six;
lastChange = "2018-09-05 22:00:10 +0000";
layers = (
{
layerId = "94E4BE91-FC80-477F-8032-C50F6AA25321";
paths = (
{
closed = 1;
nodes = (
"120 347 OFFCURVE",
"202 430 OFFCURVE",
"302 430 CURVE SMOOTH",
"402 430 OFFCURVE",
"481 348 OFFCURVE",
"481 248 CURVE SMOOTH",
"481 145 OFFCURVE",
"399 61 OFFCURVE",
"300 61 CURVE SMOOTH",
"202 61 OFFCURVE",
"120 144 OFFCURVE",
"120 246 CURVE SMOOTH"
);
},
{
closed = 1;
nodes = (
"112 386 LINE",
"158 570 OFFCURVE",
"266 670 OFFCURVE",
"432 695 CURVE",
"413 762 LINE",
"188 726 OFFCURVE",
"46 553 OFFCURVE",
"46 318 CURVE SMOOTH",
"46 122 OFFCURVE",
"147 -12 OFFCURVE",
"295 -12 CURVE SMOOTH",
"435 -12 OFFCURVE",
"554 109 OFFCURVE",
"554 248 CURVE SMOOTH",
"554 383 OFFCURVE",
"440 501 OFFCURVE",
"312 501 CURVE SMOOTH",
"230 501 OFFCURVE",
"157 451 OFFCURVE",
"107 389 CURVE"
);
}
);
width = 600;
},
{
layerId = "1E834396-7C72-44CF-B9BE-DF3A8E7FF23F";
paths = (
{
closed = 1;
nodes = (
"187 314 OFFCURVE",
"231 358 OFFCURVE",
"283 358 CURVE SMOOTH",
"337 358 OFFCURVE",
"377 315 OFFCURVE",
"377 261 CURVE SMOOTH",
"377 208 OFFCURVE",
"334 163 OFFCURVE",
"282 163 CURVE SMOOTH",
"231 163 OFFCURVE",
"187 207 OFFCURVE",
"187 261 CURVE SMOOTH"
);
},
{
closed = 1;
nodes = (
"96 346 LINE",
"99 344 LINE",
"159 372 LINE",
"199 530 OFFCURVE",
"292 606 OFFCURVE",
"452 614 CURVE",
"410 755 LINE",
"175 734 OFFCURVE",
"20 561 OFFCURVE",
"20 322 CURVE SMOOTH",
"20 129 OFFCURVE",
"124 -6 OFFCURVE",
"278 -6 CURVE SMOOTH",
"421 -6 OFFCURVE",
"545 117 OFFCURVE",
"545 261 CURVE SMOOTH",
"545 402 OFFCURVE",
"427 525 OFFCURVE",
"292 525 CURVE SMOOTH",
"217 525 OFFCURVE",
"139 482 OFFCURVE",
"82 410 CURVE"
);
}
);
width = 565;
},
{
layerId = "0E4D5491-561A-4208-9CE2-EBBE0132EEC6";
width = 600;
}
);
unicode = 0036;
},
{
glyphname = seven;
lastChange = "2018-09-05 22:00:10 +0000";
layers = (
{
layerId = "94E4BE91-FC80-477F-8032-C50F6AA25321";
paths = (
{
closed = 1;
nodes = (
"43 726 OFFCURVE",
"38 702 OFFCURVE",
"30 678 CURVE",
"380 680 LINE",
"106 0 LINE",
"131 3 OFFCURVE",
"155 3 OFFCURVE",
"180 0 CURVE",
"486 750 LINE",
"45 750 LINE"
);
}
);
width = 516;
},
{
layerId = "1E834396-7C72-44CF-B9BE-DF3A8E7FF23F";
paths = (
{
closed = 1;
nodes = (
"67 726 OFFCURVE",
"42 602 OFFCURVE",
"34 578 CURVE",
"284 580 LINE",
"206 388 OFFCURVE",
"122 194 OFFCURVE",
"30 0 CURVE",
"55 4 OFFCURVE",
"215 4 OFFCURVE",
"240 0 CURVE",
"334 250 OFFCURVE",
"436 500 OFFCURVE",
"546 750 CURVE",
"69 750 LINE"
);
}
);
width = 576;
},
{
layerId = "0E4D5491-561A-4208-9CE2-EBBE0132EEC6";
width = 600;
}
);
unicode = 0037;
},
{
glyphname = eight;
lastChange = "2018-09-05 22:00:10 +0000";
layers = (
{
layerId = "94E4BE91-FC80-477F-8032-C50F6AA25321";
paths = (
{
closed = 1;
nodes = (
"110 343 OFFCURVE",
"208 395 OFFCURVE",
"271 395 CURVE SMOOTH",
"355 395 OFFCURVE",
"426 319 OFFCURVE",
"426 226 CURVE SMOOTH",
"426 136 OFFCURVE",
"355 61 OFFCURVE",
"271 61 CURVE SMOOTH",
"183 61 OFFCURVE",
"110 136 OFFCURVE",
"110 227 CURVE SMOOTH"
);
},
{
closed = 1;
nodes = (
"40 96 OFFCURVE",
"140 -5 OFFCURVE",
"269 -5 CURVE SMOOTH",
"397 -5 OFFCURVE",
"493 95 OFFCURVE",
"493 227 CURVE SMOOTH",
"493 359 OFFCURVE",
"396 460 OFFCURVE",
"269 460 CURVE SMOOTH",
"140 460 OFFCURVE",
"40 360 OFFCURVE",
"40 228 CURVE SMOOTH"
);
},
{
closed = 1;
nodes = (
"158 660 OFFCURVE",
"226 696 OFFCURVE",
"271 696 CURVE SMOOTH",
"316 696 OFFCURVE",
"379 657 OFFCURVE",
"379 577 CURVE SMOOTH",
"379 505 OFFCURVE",
"320 462 OFFCURVE",
"271 462 CURVE SMOOTH",
"222 462 OFFCURVE",
"158 502 OFFCURVE",
"158 578 CURVE SMOOTH"
);
},
{
closed = 1;
nodes = (
"93 469 OFFCURVE",
"181 399 OFFCURVE",
"270 399 CURVE SMOOTH",
"357 399 OFFCURVE",
"443 466 OFFCURVE",
"443 578 CURVE SMOOTH",
"443 695 OFFCURVE",
"354 759 OFFCURVE",
"270 759 CURVE SMOOTH",
"185 759 OFFCURVE",
"93 695 OFFCURVE",
"93 579 CURVE SMOOTH"
);
}
);
width = 533;
},
{
layerId = "1E834396-7C72-44CF-B9BE-DF3A8E7FF23F";
paths = (
{
closed = 1;
nodes = (
"192 285 OFFCURVE",
"240 311 OFFCURVE",
"271 311 CURVE SMOOTH",
"313 311 OFFCURVE",
"348 273 OFFCURVE",
"348 227 CURVE SMOOTH",
"348 182 OFFCURVE",
"313 145 OFFCURVE",
"271 145 CURVE SMOOTH",
"228 145 OFFCURVE",
"192 182 OFFCURVE",
"192 227 CURVE SMOOTH"
);
},
{
closed = 1;
nodes = (
"40 96 OFFCURVE",
"140 -5 OFFCURVE",
"269 -5 CURVE SMOOTH",
"397 -5 OFFCURVE",
"493 95 OFFCURVE",
"493 227 CURVE SMOOTH",
"493 359 OFFCURVE",
"396 460 OFFCURVE",
"269 460 CURVE SMOOTH",
"140 460 OFFCURVE",
"40 360 OFFCURVE",
"40 228 CURVE SMOOTH"
);
},
{
closed = 1;
nodes = (
"196 598 OFFCURVE",
"240 622 OFFCURVE",
"269 622 CURVE SMOOTH",
"308 622 OFFCURVE",
"341 587 OFFCURVE",
"341 544 CURVE SMOOTH",
"341 502 OFFCURVE",
"308 468 OFFCURVE",
"269 468 CURVE SMOOTH",
"229 468 OFFCURVE",
"196 502 OFFCURVE",
"196 544 CURVE SMOOTH"
);
},
{
closed = 1;
nodes = (
"55 423 OFFCURVE",
"148 329 OFFCURVE",
"267 329 CURVE SMOOTH",
"386 329 OFFCURVE",
"475 422 OFFCURVE",
"475 544 CURVE SMOOTH",
"475 666 OFFCURVE",
"385 760 OFFCURVE",
"267 760 CURVE SMOOTH",
"148 760 OFFCURVE",
"55 667 OFFCURVE",
"55 545 CURVE SMOOTH"
);
}
);
width = 533;
},
{
layerId = "0E4D5491-561A-4208-9CE2-EBBE0132EEC6";
width = 600;
}
);
unicode = 0038;
},
{
glyphname = nine;
lastChange = "2018-09-05 22:00:10 +0000";
layers = (
{
layerId = "94E4BE91-FC80-477F-8032-C50F6AA25321";
paths = (
{
closed = 1;
nodes = (
"480 397 OFFCURVE",
"398 314 OFFCURVE",
"297.697 314 CURVE",
"198 314 OFFCURVE",
"119 396 OFFCURVE",
"119 496.554 CURVE",
"119 599 OFFCURVE",
"201 683 OFFCURVE",
"299.795 683 CURVE",
"398 683 OFFCURVE",
"480 600 OFFCURVE",
"480 498.5 CURVE"
);
},
{
closed = 1;
nodes = (
"488 358 LINE",
"442 174 OFFCURVE",
"334 74 OFFCURVE",
"168 49 CURVE",
"187 -18 LINE",
"412 18 OFFCURVE",
"554 199 OFFCURVE",
"554 435.571 CURVE",
"554 639 OFFCURVE",
"449 756 OFFCURVE",
"308.193 756 CURVE",
"165 756 OFFCURVE",
"46 635 OFFCURVE",
"46 496.53 CURVE",
"46 361 OFFCURVE",
"160 243 OFFCURVE",
"287.2 243 CURVE",
"370 243 OFFCURVE",
"443 293 OFFCURVE",
"493 355 CURVE"
);
}
);
width = 600;
},
{
layerId = "1E834396-7C72-44CF-B9BE-DF3A8E7FF23F";
paths = (
{
closed = 1;
nodes = (
"388 436 OFFCURVE",
"344 392 OFFCURVE",
"292 392 CURVE SMOOTH",
"238 392 OFFCURVE",
"198 435 OFFCURVE",
"198 489 CURVE SMOOTH",
"198 542 OFFCURVE",
"241 587 OFFCURVE",
"293 587 CURVE SMOOTH",
"344 587 OFFCURVE",
"388 543 OFFCURVE",
"388 489 CURVE SMOOTH"
);
},
{
closed = 1;
nodes = (
"479 404 LINE",
"476 406 LINE",
"416 378 LINE",
"376 220 OFFCURVE",
"283 144 OFFCURVE",
"123 136 CURVE",
"165 -5 LINE",
"400 16 OFFCURVE",
"555 189 OFFCURVE",
"555 428 CURVE SMOOTH",
"555 621 OFFCURVE",
"451 756 OFFCURVE",
"297 756 CURVE SMOOTH",
"154 756 OFFCURVE",
"30 633 OFFCURVE",
"30 489 CURVE SMOOTH",
"30 348 OFFCURVE",
"148 225 OFFCURVE",
"283 225 CURVE SMOOTH",
"358 225 OFFCURVE",
"436 268 OFFCURVE",
"493 340 CURVE"
);
}
);
width = 585;
},
{
layerId = "0E4D5491-561A-4208-9CE2-EBBE0132EEC6";
width = 600;
}
);
unicode = 0039;
},
{
glyphname = period;
lastChange = "2018-09-11 15:26:14 +0000";
layers = (
{
hints = (
{
horizontal = 1;
place = "{-5, 83}";
type = Stem;
},
{
place = "{31, 83}";
type = Stem;
}
);
layerId = "94E4BE91-FC80-477F-8032-C50F6AA25321";
paths = (
{
closed = 1;
nodes = (
"50 23 OFFCURVE",
"78 5 OFFCURVE",
"101 5 CURVE",
"124 5 OFFCURVE",
"153 23 OFFCURVE",
"153 56 CURVE",
"153 89 OFFCURVE",
"124 108 OFFCURVE",
"101 108 CURVE",
"78 108 OFFCURVE",
"50 89 OFFCURVE",
"50 56 CURVE"
);
}
);
width = 203;
},
{
layerId = "1E834396-7C72-44CF-B9BE-DF3A8E7FF23F";
paths = (
{
closed = 1;
nodes = (
"50 28 OFFCURVE",
"106 -8 OFFCURVE",
"152 -8 CURVE",
"198 -8 OFFCURVE",
"256 28 OFFCURVE",
"256 94 CURVE",
"256 160 OFFCURVE",
"198 198 OFFCURVE",
"152 198 CURVE",
"106 198 OFFCURVE",
"50 160 OFFCURVE",
"50 94 CURVE"
);
}
);
width = 306;
},
{
associatedMasterId = "94E4BE91-FC80-477F-8032-C50F6AA25321";
layerId = "9D8030CA-8A89-40D5-8186-0B08A255CDBC";
width = 600;
},
{
layerId = "0E4D5491-561A-4208-9CE2-EBBE0132EEC6";
width = 600;
}
);
note = period;
unicode = 002E;
},
{
glyphname = comma;
lastChange = "2018-09-14 14:00:57 +0000";
layers = (
{
hints = (
{
horizontal = 1;
place = "{715, -20}";
target = down;
type = TopGhost;
},
{
place = "{-2500, 124}";
type = Stem;
}
);
layerId = "94E4BE91-FC80-477F-8032-C50F6AA25321";
paths = (
{
closed = 1;
nodes = (
"92 33 OFFCURVE",
"72 -45 OFFCURVE",
"50 -123 CURVE",
"69 -122 OFFCURVE",
"88 -122 OFFCURVE",
"107 -123 CURVE",
"129 -45 OFFCURVE",
"155 33 OFFCURVE",
"183 111 CURVE",
"164 109 OFFCURVE",
"127 109 OFFCURVE",
"108 111 CURVE"
);
}
);
width = 215;
},
{
layerId = "1E834396-7C72-44CF-B9BE-DF3A8E7FF23F";
paths = (
{
closed = 1;
nodes = (
"92 33 OFFCURVE",
"65 -105 OFFCURVE",
"50 -183 CURVE",
"69 -182 OFFCURVE",
"168 -182 OFFCURVE",
"187 -183 CURVE",
"202 -105 OFFCURVE",
"235 33 OFFCURVE",
"263 111 CURVE",
"244 109 OFFCURVE",
"127 109 OFFCURVE",
"108 111 CURVE"
);
}
);
width = 313;
},
{
layerId = "0E4D5491-561A-4208-9CE2-EBBE0132EEC6";
width = 600;
}
);
note = comma;
unicode = 002C;
},
{
glyphname = colon;
lastChange = "2018-09-11 15:29:32 +0000";
layers = (
{
layerId = "94E4BE91-FC80-477F-8032-C50F6AA25321";
paths = (
{
closed = 1;
nodes = (
"50 23 OFFCURVE",
"78 5 OFFCURVE",
"101 5 CURVE",
"124 5 OFFCURVE",
"153 23 OFFCURVE",
"153 56 CURVE",
"153 89 OFFCURVE",
"124 108 OFFCURVE",
"101 108 CURVE",
"78 108 OFFCURVE",
"50 89 OFFCURVE",
"50 56 CURVE"
);
},
{
closed = 1;
nodes = (
"50 470 OFFCURVE",
"78 452 OFFCURVE",
"101 452 CURVE",
"124 452 OFFCURVE",
"153 470 OFFCURVE",
"153 503 CURVE",
"153 536 OFFCURVE",
"124 555 OFFCURVE",
"101 555 CURVE",
"78 555 OFFCURVE",
"50 536 OFFCURVE",
"50 503 CURVE"
);
}
);
width = 203;
},
{
layerId = "1E834396-7C72-44CF-B9BE-DF3A8E7FF23F";
paths = (
{
closed = 1;
nodes = (
"50 28 OFFCURVE",
"106 -8 OFFCURVE",
"152 -8 CURVE",
"198 -8 OFFCURVE",
"256 28 OFFCURVE",
"256 94 CURVE",
"256 160 OFFCURVE",
"198 198 OFFCURVE",
"152 198 CURVE",
"106 198 OFFCURVE",
"50 160 OFFCURVE",
"50 94 CURVE"
);
},
{
closed = 1;
nodes = (
"50 438 OFFCURVE",
"106 402 OFFCURVE",
"152 402 CURVE",
"198 402 OFFCURVE",
"256 438 OFFCURVE",
"256 504 CURVE",
"256 570 OFFCURVE",
"198 608 OFFCURVE",
"152 608 CURVE",
"106 608 OFFCURVE",
"50 570 OFFCURVE",
"50 504 CURVE"
);
}
);
width = 306;
},
{
layerId = "0E4D5491-561A-4208-9CE2-EBBE0132EEC6";
width = 600;
}
);
unicode = 003A;
},
{
glyphname = semicolon;
lastChange = "2018-09-14 14:01:03 +0000";
layers = (
{
layerId = "94E4BE91-FC80-477F-8032-C50F6AA25321";
paths = (
{
closed = 1;
nodes = (
"92 33 OFFCURVE",
"72 -45 OFFCURVE",
"50 -123 CURVE",
"69 -122 OFFCURVE",
"88 -122 OFFCURVE",
"107 -123 CURVE",
"129 -45 OFFCURVE",
"155 33 OFFCURVE",
"183 111 CURVE",
"164 109 OFFCURVE",
"127 109 OFFCURVE",
"108 111 CURVE"
);
},
{
closed = 1;
nodes = (
"100 470 OFFCURVE",
"128 452 OFFCURVE",
"151 452 CURVE",
"174 452 OFFCURVE",
"203 470 OFFCURVE",
"203 503 CURVE",
"203 536 OFFCURVE",
"174 555 OFFCURVE",
"151 555 CURVE",
"128 555 OFFCURVE",
"100 536 OFFCURVE",
"100 503 CURVE"
);
}
);
width = 253;
},
{
layerId = "1E834396-7C72-44CF-B9BE-DF3A8E7FF23F";
paths = (
{
closed = 1;
nodes = (
"50 438 OFFCURVE",
"106 402 OFFCURVE",
"152 402 CURVE",
"198 402 OFFCURVE",
"256 438 OFFCURVE",
"256 504 CURVE",
"256 570 OFFCURVE",
"198 608 OFFCURVE",
"152 608 CURVE",
"106 608 OFFCURVE",
"50 570 OFFCURVE",
"50 504 CURVE"
);
},
{
closed = 1;
nodes = (
"62 33 OFFCURVE",
"35 -105 OFFCURVE",
"20 -183 CURVE",
"39 -182 OFFCURVE",
"138 -182 OFFCURVE",
"157 -183 CURVE",
"172 -105 OFFCURVE",
"205 33 OFFCURVE",
"233 111 CURVE",
"214 109 OFFCURVE",
"97 109 OFFCURVE",
"78 111 CURVE"
);
}
);
width = 306;
},
{
layerId = "0E4D5491-561A-4208-9CE2-EBBE0132EEC6";
width = 600;
}
);
unicode = 003B;
},
{
glyphname = exclam;
lastChange = "2018-09-14 14:01:47 +0000";
layers = (
{
layerId = "94E4BE91-FC80-477F-8032-C50F6AA25321";
paths = (
{
closed = 1;
nodes = (
"115 739 OFFCURVE",
"85 730 OFFCURVE",
"56 725 CURVE",
"62 549 OFFCURVE",
"66 373 OFFCURVE",
"66 197 CURVE",
"89 208 OFFCURVE",
"111 216 OFFCURVE",
"134 221 CURVE",
"134 397 OFFCURVE",
"138 574 OFFCURVE",
"144 750 CURVE"
);
},
{
closed = 1;
nodes = (
"50 23 OFFCURVE",
"78 5 OFFCURVE",
"101 5 CURVE",
"124 5 OFFCURVE",
"153 23 OFFCURVE",
"153 56 CURVE",
"153 89 OFFCURVE",
"124 108 OFFCURVE",
"101 108 CURVE",
"78 108 OFFCURVE",
"50 89 OFFCURVE",
"50 56 CURVE"
);
}
);
width = 203;
},
{
layerId = "1E834396-7C72-44CF-B9BE-DF3A8E7FF23F";
paths = (
{
closed = 1;
nodes = (
"50 28 OFFCURVE",
"106 -8 OFFCURVE",
"152 -8 CURVE",
"198 -8 OFFCURVE",
"256 28 OFFCURVE",
"256 94 CURVE",
"256 160 OFFCURVE",
"198 198 OFFCURVE",
"152 198 CURVE",
"106 198 OFFCURVE",
"50 160 OFFCURVE",
"50 94 CURVE"
);
},
{
closed = 1;
nodes = (
"195 739 OFFCURVE",
"105 730 OFFCURVE",
"66 725 CURVE",
"72 549 OFFCURVE",
"76 433 OFFCURVE",
"76 257 CURVE",
"109 268 OFFCURVE",
"191 276 OFFCURVE",
"224 281 CURVE",
"224 457 OFFCURVE",
"228 574 OFFCURVE",
"234 750 CURVE"
);
}
);
width = 306;
},
{
layerId = "0E4D5491-561A-4208-9CE2-EBBE0132EEC6";
width = 600;
}
);
note = exclam;
unicode = 0021;
},
{
glyphname = exclamdown;
lastChange = "2018-09-05 22:00:10 +0000";
layers = (
{
layerId = "94E4BE91-FC80-477F-8032-C50F6AA25321";
paths = (
{
closed = 1;
nodes = (
"88 -233 OFFCURVE",
"118 -224 OFFCURVE",
"147 -219 CURVE",
"141 -43 OFFCURVE",
"137 133 OFFCURVE",
"137 309 CURVE",
"114 298 OFFCURVE",
"92 290 OFFCURVE",
"69 285 CURVE",
"69 109 OFFCURVE",
"65 -68 OFFCURVE",
"59 -244 CURVE"
);
},
{
closed = 1;
nodes = (
"153 483 OFFCURVE",
"125 501 OFFCURVE",
"102 501 CURVE",
"79 501 OFFCURVE",
"50 483 OFFCURVE",
"50 450 CURVE",
"50 417 OFFCURVE",
"79 398 OFFCURVE",
"102 398 CURVE",
"125 398 OFFCURVE",
"153 417 OFFCURVE",
"153 450 CURVE"
);
}
);
width = 203;
},
{
layerId = "1E834396-7C72-44CF-B9BE-DF3A8E7FF23F";
width = 600;
},
{
layerId = "0E4D5491-561A-4208-9CE2-EBBE0132EEC6";
width = 600;
}
);
unicode = 00A1;
},
{
glyphname = question;
lastChange = "2018-09-14 14:06:03 +0000";
layers = (
{
layerId = "94E4BE91-FC80-477F-8032-C50F6AA25321";
paths = (
{
closed = 1;
nodes = (
"229 28 OFFCURVE",
"252 5 OFFCURVE",
"280 5 CURVE",
"308 5 OFFCURVE",
"332 29 OFFCURVE",
"332 56 CURVE",
"332 84 OFFCURVE",
"308 108 OFFCURVE",
"280 108 CURVE",
"253 108 OFFCURVE",
"229 84 OFFCURVE",
"229 56 CURVE"
);
},
{
closed = 1;
nodes = (
"309 225 OFFCURVE",
"309 250 OFFCURVE",
"310 291 CURVE",
"312 387 OFFCURVE",
"484 428 OFFCURVE",
"484 554 CURVE",
"484 663 OFFCURVE",
"385 755 OFFCURVE",
"267 755 CURVE",
"156 755 OFFCURVE",
"63 685 OFFCURVE",
"50 591 CURVE",
"74 576 OFFCURVE",
"96 558 OFFCURVE",
"114 539 CURVE",
"120 626 OFFCURVE",
"181 685 OFFCURVE",
"264 685 CURVE",
"339 685 OFFCURVE",
"411 626 OFFCURVE",
"411 566 CURVE",
"411 472 OFFCURVE",
"244 396 OFFCURVE",
"244 322 CURVE",
"244 275 OFFCURVE",
"241 241 OFFCURVE",
"242 194 CURVE",
"263 199 OFFCURVE",
"288 201 OFFCURVE",
"309 200 CURVE"
);
}
);
width = 534;
},
{
layerId = "1E834396-7C72-44CF-B9BE-DF3A8E7FF23F";
paths = (
{
closed = 1;
nodes = (
"349 283 OFFCURVE",
"349 307 OFFCURVE",
"350 318 CURVE",
"355 479 OFFCURVE",
"484 418 OFFCURVE",
"484 560.147 CURVE",
"484 689 OFFCURVE",
"378 755 OFFCURVE",
"275.408 755 CURVE",
"169 755 OFFCURVE",
"77 684 OFFCURVE",
"50 591 CURVE",
"89 556 OFFCURVE",
"122 514 OFFCURVE",
"154 480 CURVE",
"169 521 OFFCURVE",
"210 609 OFFCURVE",
"273.136 609 CURVE",
"310 609 OFFCURVE",
"327 579 OFFCURVE",
"327 553.848 CURVE",
"327 489 OFFCURVE",
"214 469 OFFCURVE",
"214 365.738 CURVE",
"214 352 OFFCURVE",
"212 309 OFFCURVE",
"212 265 CURVE",
"212 244 LINE",
"251 253 OFFCURVE",
"309 261 OFFCURVE",
"349 260 CURVE"
);
},
{
closed = 1;
nodes = (
"180 38 OFFCURVE",
"226 -8 OFFCURVE",
"282.308 -8 CURVE",
"338 -8 OFFCURVE",
"386 37 OFFCURVE",
"386 93.5 CURVE",
"386 150 OFFCURVE",
"338 198 OFFCURVE",
"282 198 CURVE",
"226 198 OFFCURVE",
"180 150 OFFCURVE",
"180 94 CURVE"
);
}
);
width = 534;
},
{
layerId = "0E4D5491-561A-4208-9CE2-EBBE0132EEC6";
width = 600;
}
);
unicode = 003F;
},
{
glyphname = questiondown;
lastChange = "2018-09-05 22:00:10 +0000";
layers = (
{
layerId = "94E4BE91-FC80-477F-8032-C50F6AA25321";
paths = (
{
closed = 1;
nodes = (
"305 476 OFFCURVE",
"282 499 OFFCURVE",
"254 499 CURVE",
"226 499 OFFCURVE",
"202 475 OFFCURVE",
"202 448 CURVE",
"202 420 OFFCURVE",
"226 396 OFFCURVE",
"254 396 CURVE",
"281 396 OFFCURVE",
"305 420 OFFCURVE",
"305 448 CURVE"
);
},
{
closed = 1;
nodes = (
"225 279 OFFCURVE",
"225 254 OFFCURVE",
"224 213 CURVE",
"222 117 OFFCURVE",
"50 76 OFFCURVE",
"50 -50 CURVE",
"50 -159 OFFCURVE",
"149 -251 OFFCURVE",
"267 -251 CURVE",
"378 -251 OFFCURVE",
"471 -181 OFFCURVE",
"484 -87 CURVE",
"460 -72 OFFCURVE",
"438 -54 OFFCURVE",
"420 -35 CURVE",
"414 -122 OFFCURVE",
"353 -181 OFFCURVE",
"270 -181 CURVE",
"195 -181 OFFCURVE",
"123 -122 OFFCURVE",
"123 -62 CURVE",
"123 32 OFFCURVE",
"290 108 OFFCURVE",
"290 182 CURVE",
"290 229 OFFCURVE",
"293 263 OFFCURVE",
"292 310 CURVE",
"271 305 OFFCURVE",
"246 303 OFFCURVE",
"225 304 CURVE"
);
}
);
width = 484;
},
{
layerId = "1E834396-7C72-44CF-B9BE-DF3A8E7FF23F";
width = 600;
},
{
layerId = "0E4D5491-561A-4208-9CE2-EBBE0132EEC6";
width = 600;
}
);
unicode = 00BF;
},
{
glyphname = bullet;
lastChange = "2018-09-05 22:00:10 +0000";
layers = (
{
layerId = "94E4BE91-FC80-477F-8032-C50F6AA25321";
paths = (
{
closed = 1;
nodes = (
"50 154 OFFCURVE",
"141 95 OFFCURVE",
"217 95 CURVE",
"292 95 OFFCURVE",
"386 154 OFFCURVE",
"386 262 CURVE",
"386 369 OFFCURVE",
"292 431 OFFCURVE",
"217 431 CURVE",
"141 431 OFFCURVE",
"50 369 OFFCURVE",
"50 262 CURVE"
);
}
);
width = 436;
},
{
layerId = "1E834396-7C72-44CF-B9BE-DF3A8E7FF23F";
width = 600;
},
{
layerId = "0E4D5491-561A-4208-9CE2-EBBE0132EEC6";
width = 600;
}
);
unicode = 2022;
},
{
glyphname = asterisk;
lastChange = "2018-09-05 22:00:10 +0000";
layers = (
{
layerId = "94E4BE91-FC80-477F-8032-C50F6AA25321";
paths = (
{
closed = 1;
nodes = (
"317 640 OFFCURVE",
"311 659 OFFCURVE",
"307 678 CURVE",
"196 630 LINE",
"203 750 LINE",
"183 747 OFFCURVE",
"164 747 OFFCURVE",
"144 750 CURVE",
"152 629 LINE",
"41 678 LINE",
"36 659 OFFCURVE",
"29 640 OFFCURVE",
"20 623 CURVE",
"140 587 LINE",
"58 492 LINE",
"74 480 OFFCURVE",
"89 468 OFFCURVE",
"103 455 CURVE",
"174 560 LINE",
"245 455 LINE",
"259 469 OFFCURVE",
"275 481 OFFCURVE",
"291 491 CURVE",
"207 587 LINE",
"327 623 LINE"
);
}
);
width = 347;
},
{
layerId = "1E834396-7C72-44CF-B9BE-DF3A8E7FF23F";
width = 600;
},
{
layerId = "0E4D5491-561A-4208-9CE2-EBBE0132EEC6";
width = 600;
}
);
unicode = 002A;
},
{
glyphname = numbersign;
lastChange = "2018-09-11 15:39:04 +0000";
layers = (
{
layerId = "94E4BE91-FC80-477F-8032-C50F6AA25321";
paths = (
{
closed = 1;
nodes = (
"245 675 OFFCURVE",
"221 674 OFFCURVE",
"196 675 CURVE",
"159 443 OFFCURVE",
"119 212 OFFCURVE",
"76 -20 CURVE",
"101 -16 OFFCURVE",
"125 -14 OFFCURVE",
"150 -16 CURVE",
"187 216 OFFCURVE",
"227 448 OFFCURVE",
"270 680 CURVE"
);
},
{
closed = 1;
nodes = (
"465 675 OFFCURVE",
"441 674 OFFCURVE",
"416 675 CURVE",
"379 443 OFFCURVE",
"339 212 OFFCURVE",
"296 -20 CURVE",
"321 -16 OFFCURVE",
"345 -14 OFFCURVE",
"370 -16 CURVE",
"407 216 OFFCURVE",
"447 448 OFFCURVE",
"490 680 CURVE"
);
},
{
closed = 1;
nodes = (
"538 455 OFFCURVE",
"543 479 OFFCURVE",
"551 504 CURVE",
"383 501 OFFCURVE",
"244 501 OFFCURVE",
"76 504 CURVE",
"74 479 OFFCURVE",
"68 455 OFFCURVE",
"60 430 CURVE",
"229 433 OFFCURVE",
"367 433 OFFCURVE",
"536 430 CURVE"
);
},
{
closed = 1;
nodes = (
"498 205 OFFCURVE",
"503 229 OFFCURVE",
"511 254 CURVE",
"349 251 OFFCURVE",
"211 251 OFFCURVE",
"46 254 CURVE",
"44 229 OFFCURVE",
"38 205 OFFCURVE",
"30 180 CURVE",
"195 183 OFFCURVE",
"331 183 OFFCURVE",
"496 180 CURVE"
);
}
);
width = 601;
},
{
layerId = "1E834396-7C72-44CF-B9BE-DF3A8E7FF23F";
paths = (
{
closed = 1;
nodes = (
"300 675 OFFCURVE",
"216 674 OFFCURVE",
"191 675 CURVE",
"142 383 OFFCURVE",
"114 212 OFFCURVE",
"71 -20 CURVE",
"96 -16 OFFCURVE",
"180 -14 OFFCURVE",
"205 -16 CURVE",
"242 216 OFFCURVE",
"270 388 OFFCURVE",
"325 680 CURVE"
);
},
{
closed = 1;
nodes = (
"468 675 OFFCURVE",
"384 674 OFFCURVE",
"359 675 CURVE",
"310 383 OFFCURVE",
"282 212 OFFCURVE",
"239 -20 CURVE",
"264 -16 OFFCURVE",
"348 -14 OFFCURVE",
"373 -16 CURVE",
"410 216 OFFCURVE",
"438 388 OFFCURVE",
"493 680 CURVE"
);
},
{
closed = 1;
nodes = (
"541 395 OFFCURVE",
"546 479 OFFCURVE",
"554 504 CURVE",
"386 501 OFFCURVE",
"235 501 OFFCURVE",
"67 504 CURVE",
"65 479 OFFCURVE",
"59 395 OFFCURVE",
"51 370 CURVE",
"220 373 OFFCURVE",
"310 373 OFFCURVE",
"539 370 CURVE"
);
},
{
closed = 1;
nodes = (
"522 205 OFFCURVE",
"527 289 OFFCURVE",
"535 314 CURVE",
"373 311 OFFCURVE",
"211 311 OFFCURVE",
"46 314 CURVE",
"44 289 OFFCURVE",
"38 205 OFFCURVE",
"30 180 CURVE",
"195 183 OFFCURVE",
"355 183 OFFCURVE",
"520 180 CURVE"
);
}
);
width = 604;
},
{
layerId = "0E4D5491-561A-4208-9CE2-EBBE0132EEC6";
width = 600;
}
);
unicode = 0023;
},
{
glyphname = slash;
lastChange = "2018-09-11 15:45:32 +0000";
layers = (
{
layerId = "94E4BE91-FC80-477F-8032-C50F6AA25321";
paths = (
{
closed = 1;
nodes = (
"314 784 OFFCURVE",
"291 788 OFFCURVE",
"269 795 CURVE",
"185 517 OFFCURVE",
"99 248 OFFCURVE",
"9 -30 CURVE",
"30 -35 OFFCURVE",
"50 -43 OFFCURVE",
"71 -54 CURVE",
"155 224 OFFCURVE",
"246 505 OFFCURVE",
"336 783 CURVE"
);
}
);
width = 339;
},
{
layerId = "1E834396-7C72-44CF-B9BE-DF3A8E7FF23F";
paths = (
{
closed = 1;
nodes = (
"394 784 OFFCURVE",
"291 788 OFFCURVE",
"269 795 CURVE",
"185 517 OFFCURVE",
"99 248 OFFCURVE",
"9 -30 CURVE",
"30 -35 OFFCURVE",
"130 -43 OFFCURVE",
"151 -54 CURVE",
"235 224 OFFCURVE",
"326 505 OFFCURVE",
"416 783 CURVE"
);
}
);
width = 419;
},
{
layerId = "0E4D5491-561A-4208-9CE2-EBBE0132EEC6";
width = 600;
}
);
unicode = 002F;
},
{
glyphname = backslash;
lastChange = "2018-09-11 15:45:41 +0000";
layers = (
{
layerId = "94E4BE91-FC80-477F-8032-C50F6AA25321";
paths = (
{
closed = 1;
nodes = (
"90 511 OFFCURVE",
"178 233 OFFCURVE",
"262 -45 CURVE",
"288 -39 OFFCURVE",
"313 -37 OFFCURVE",
"339 -39 CURVE",
"249 239 OFFCURVE",
"161 516 OFFCURVE",
"77 794 CURVE",
"51 787 OFFCURVE",
"26 786 OFFCURVE",
"0 789 CURVE"
);
}
);
width = 339;
},
{
layerId = "1E834396-7C72-44CF-B9BE-DF3A8E7FF23F";
paths = (
{
closed = 1;
nodes = (
"93 511 OFFCURVE",
"181 233 OFFCURVE",
"265 -45 CURVE",
"291 -39 OFFCURVE",
"396 -37 OFFCURVE",
"422 -39 CURVE",
"332 239 OFFCURVE",
"244 516 OFFCURVE",
"160 794 CURVE",
"134 787 OFFCURVE",
"29 786 OFFCURVE",
"3 789 CURVE"
);
}
);
width = 431;
},
{
layerId = "0E4D5491-561A-4208-9CE2-EBBE0132EEC6";
width = 600;
}
);
note = backslash;
unicode = 005C;
},
{
glyphname = parenleft;
lastChange = "2018-09-11 15:44:52 +0000";
layers = (
{
layerId = "94E4BE91-FC80-477F-8032-C50F6AA25321";
paths = (
{
closed = 1;
nodes = (
"267 -56 OFFCURVE",
"276 -38 OFFCURVE",
"287 -22 CURVE",
"170 63 OFFCURVE",
"101 208 OFFCURVE",
"101 369 CURVE SMOOTH",
"101 510 OFFCURVE",
"156 677 OFFCURVE",
"283 750 CURVE",
"273 764 OFFCURVE",
"264 781 OFFCURVE",
"258 799 CURVE",
"104 735 OFFCURVE",
"36 515 OFFCURVE",
"36 371 CURVE SMOOTH",
"36 198 OFFCURVE",
"108 22 OFFCURVE",
"260 -76 CURVE"
);
}
);
width = 323;
},
{
layerId = "1E834396-7C72-44CF-B9BE-DF3A8E7FF23F";
paths = (
{
closed = 1;
nodes = (
"386 -13 LINE",
"258 60 OFFCURVE",
"181 204 OFFCURVE",
"181 369 CURVE SMOOTH",
"181 546 OFFCURVE",
"266 700 OFFCURVE",
"389 735 CURVE",
"328 850 LINE",
"162 818 OFFCURVE",
"36 599 OFFCURVE",
"36 371 CURVE SMOOTH",
"36 148 OFFCURVE",
"146 -47 OFFCURVE",
"325 -136 CURVE"
);
}
);
width = 425;
},
{
layerId = "0E4D5491-561A-4208-9CE2-EBBE0132EEC6";
width = 600;
}
);
note = parenleft;
unicode = 0028;
},
{
glyphname = parenright;
lastChange = "2018-09-11 15:45:15 +0000";
layers = (
{
layerId = "94E4BE91-FC80-477F-8032-C50F6AA25321";
paths = (
{
closed = 1;
nodes = (
"215 22 OFFCURVE",
"287 198 OFFCURVE",
"287 371 CURVE SMOOTH",
"287 515 OFFCURVE",
"224 734 OFFCURVE",
"65 799 CURVE",
"59 781 OFFCURVE",
"50 764 OFFCURVE",
"40 750 CURVE",
"167 677 OFFCURVE",
"222 510 OFFCURVE",
"222 369 CURVE SMOOTH",
"222 208 OFFCURVE",
"153 63 OFFCURVE",
"36 -22 CURVE",
"47 -38 OFFCURVE",
"56 -56 OFFCURVE",
"63 -76 CURVE"
);
}
);
width = 323;
},
{
layerId = "1E834396-7C72-44CF-B9BE-DF3A8E7FF23F";
paths = (
{
closed = 1;
nodes = (
"279 -47 OFFCURVE",
"389 148 OFFCURVE",
"389 371 CURVE SMOOTH",
"389 599 OFFCURVE",
"263 818 OFFCURVE",
"97 850 CURVE",
"36 735 LINE",
"159 700 OFFCURVE",
"244 546 OFFCURVE",
"244 369 CURVE SMOOTH",
"244 204 OFFCURVE",
"167 60 OFFCURVE",
"39 -13 CURVE",
"100 -136 LINE"
);
}
);
width = 425;
},
{
layerId = "0E4D5491-561A-4208-9CE2-EBBE0132EEC6";
width = 600;
}
);
unicode = 0029;
},
{
glyphname = bracketleft;
lastChange = "2018-09-05 22:00:10 +0000";
layers = (
{
layerId = "94E4BE91-FC80-477F-8032-C50F6AA25321";
paths = (
{
closed = 1;
nodes = (
"144 745 OFFCURVE",
"197 745 OFFCURVE",
"251 743 CURVE",
"251 804 LINE",
"177 802 OFFCURVE",
"104 802 OFFCURVE",
"30 804 CURVE",
"33 509 OFFCURVE",
"33 214 OFFCURVE",
"30 -81 CURVE",
"104 -78 OFFCURVE",
"177 -78 OFFCURVE",
"251 -81 CURVE",
"251 -20 LINE",
"198 -22 OFFCURVE",
"144 -22 OFFCURVE",
"91 -20 CURVE",
"86 203 OFFCURVE",
"86 514 OFFCURVE",
"90 743 CURVE"
);
}
);
width = 281;
},
{
layerId = "1E834396-7C72-44CF-B9BE-DF3A8E7FF23F";
width = 600;
},
{
layerId = "0E4D5491-561A-4208-9CE2-EBBE0132EEC6";
width = 600;
}
);
note = bracketleft;
unicode = 005B;
},
{
glyphname = bracketright;
lastChange = "2018-09-05 22:00:10 +0000";
layers = (
{
layerId = "94E4BE91-FC80-477F-8032-C50F6AA25321";
paths = (
{
closed = 1;
nodes = (
"195 514 OFFCURVE",
"195 203 OFFCURVE",
"190 -20 CURVE",
"137 -22 OFFCURVE",
"83 -22 OFFCURVE",
"30 -20 CURVE",
"30 -81 LINE",
"104 -78 OFFCURVE",
"177 -78 OFFCURVE",
"251 -81 CURVE",
"248 214 OFFCURVE",
"248 509 OFFCURVE",
"251 804 CURVE",
"177 802 OFFCURVE",
"104 802 OFFCURVE",
"30 804 CURVE",
"30 743 LINE",
"84 745 OFFCURVE",
"137 745 OFFCURVE",
"191 743 CURVE"
);
}
);
width = 281;
},
{
layerId = "1E834396-7C72-44CF-B9BE-DF3A8E7FF23F";
width = 600;
},
{
layerId = "0E4D5491-561A-4208-9CE2-EBBE0132EEC6";
width = 600;
}
);
note = bracketright;
unicode = 005D;
},
{
glyphname = hyphen;
lastChange = "2018-09-14 14:09:32 +0000";
layers = (
{
hints = (
{
horizontal = 1;
place = "{235, 71}";
type = Stem;
},
{
place = "{29, 298}";
type = Stem;
}
);
layerId = "94E4BE91-FC80-477F-8032-C50F6AA25321";
paths = (
{
closed = 1;
nodes = (
"47 282 OFFCURVE",
"39 259 OFFCURVE",
"29 235 CURVE",
"120 238 OFFCURVE",
"212 238 OFFCURVE",
"303 235 CURVE",
"308 259 OFFCURVE",
"316 282 OFFCURVE",
"327 306 CURVE",
"235 303 OFFCURVE",
"143 303 OFFCURVE",
"51 306 CURVE"
);
}
);
width = 358;
},
{
layerId = "1E834396-7C72-44CF-B9BE-DF3A8E7FF23F";
paths = (
{
closed = 1;
nodes = (
"47 332 OFFCURVE",
"39 309 OFFCURVE",
"29 235 CURVE",
"120 238 OFFCURVE",
"212 238 OFFCURVE",
"303 235 CURVE",
"308 309 OFFCURVE",
"316 332 OFFCURVE",
"327 376 CURVE",
"235 373 OFFCURVE",
"143 373 OFFCURVE",
"51 376 CURVE"
);
}
);
width = 357;
},
{
layerId = "0E4D5491-561A-4208-9CE2-EBBE0132EEC6";
width = 600;
}
);
note = hyphen;
unicode = 002D;
},
{
glyphname = endash;
lastChange = "2018-09-05 22:00:10 +0000";
layers = (
{
layerId = "94E4BE91-FC80-477F-8032-C50F6AA25321";
paths = (
{
closed = 1;
nodes = (
"48 282 OFFCURVE",
"40 259 OFFCURVE",
"30 235 CURVE",
"168 238 OFFCURVE",
"306 238 OFFCURVE",
"444 235 CURVE",
"449 259 OFFCURVE",
"457 282 OFFCURVE",
"468 306 CURVE",
"329 303 OFFCURVE",
"191 303 OFFCURVE",
"52 306 CURVE"
);
}
);
width = 498;
},
{
layerId = "1E834396-7C72-44CF-B9BE-DF3A8E7FF23F";
width = 600;
},
{
layerId = "0E4D5491-561A-4208-9CE2-EBBE0132EEC6";
width = 600;
}
);
unicode = 2013;
},
{
glyphname = emdash;
lastChange = "2018-09-05 22:00:10 +0000";
layers = (
{
layerId = "94E4BE91-FC80-477F-8032-C50F6AA25321";
paths = (
{
closed = 1;
nodes = (
"48 282 OFFCURVE",
"40 259 OFFCURVE",
"30 235 CURVE",
"215 238 OFFCURVE",
"399 238 OFFCURVE",
"584 235 CURVE",
"589 259 OFFCURVE",
"597 282 OFFCURVE",
"608 306 CURVE",
"423 303 OFFCURVE",
"237 303 OFFCURVE",
"52 306 CURVE"
);
}
);
width = 638;
},
{
layerId = "1E834396-7C72-44CF-B9BE-DF3A8E7FF23F";
width = 600;
},
{
layerId = "0E4D5491-561A-4208-9CE2-EBBE0132EEC6";
width = 600;
}
);
unicode = 2014;
},
{
glyphname = underscore;
lastChange = "2018-09-05 22:00:10 +0000";
layers = (
{
layerId = "94E4BE91-FC80-477F-8032-C50F6AA25321";
paths = (
{
closed = 1;
nodes = (
"48 -24 OFFCURVE",
"40 -47 OFFCURVE",
"30 -71 CURVE",
"215 -68 OFFCURVE",
"399 -68 OFFCURVE",
"584 -71 CURVE",
"589 -47 OFFCURVE",
"597 -24 OFFCURVE",
"608 0 CURVE",
"423 -3 OFFCURVE",
"237 -3 OFFCURVE",
"52 0 CURVE"
);
}
);
width = 638;
},
{
layerId = "1E834396-7C72-44CF-B9BE-DF3A8E7FF23F";
width = 600;
},
{
layerId = "0E4D5491-561A-4208-9CE2-EBBE0132EEC6";
width = 600;
}
);
note = underscore;
unicode = 005F;
},
{
glyphname = quotedblleft;
lastChange = "2018-09-14 14:08:07 +0000";
layers = (
{
layerId = "94E4BE91-FC80-477F-8032-C50F6AA25321";
paths = (
{
closed = 1;
nodes = (
"221 606 OFFCURVE",
"221 684 OFFCURVE",
"263 762 CURVE",
"244 761 OFFCURVE",
"225 761 OFFCURVE",
"206 762 CURVE",
"164 684 OFFCURVE",
"158 606 OFFCURVE",
"160 528 CURVE",
"179 530 OFFCURVE",
"216 530 OFFCURVE",
"235 528 CURVE"
);
},
{
closed = 1;
nodes = (
"91 606 OFFCURVE",
"91 684 OFFCURVE",
"133 762 CURVE",
"114 761 OFFCURVE",
"95 761 OFFCURVE",
"76 762 CURVE",
"34 684 OFFCURVE",
"28 606 OFFCURVE",
"30 528 CURVE",
"49 530 OFFCURVE",
"86 530 OFFCURVE",
"105 528 CURVE"
);
}
);
width = 323;
},
{
layerId = "1E834396-7C72-44CF-B9BE-DF3A8E7FF23F";
paths = (
{
closed = 1;
nodes = (
"361 566 OFFCURVE",
"361 684 OFFCURVE",
"403 762 CURVE",
"384 761 OFFCURVE",
"295 761 OFFCURVE",
"276 762 CURVE",
"234 684 OFFCURVE",
"228 566 OFFCURVE",
"230 488 CURVE",
"249 490 OFFCURVE",
"356 490 OFFCURVE",
"375 488 CURVE"
);
},
{
closed = 1;
nodes = (
"161 566 OFFCURVE",
"161 684 OFFCURVE",
"203 762 CURVE",
"184 761 OFFCURVE",
"165 761 OFFCURVE",
"76 762 CURVE",
"34 684 OFFCURVE",
"28 566 OFFCURVE",
"30 488 CURVE",
"49 490 OFFCURVE",
"156 490 OFFCURVE",
"175 488 CURVE"
);
}
);
width = 433;
},
{
layerId = "0E4D5491-561A-4208-9CE2-EBBE0132EEC6";
width = 600;
}
);
unicode = 201C;
},
{
glyphname = quotedblright;
lastChange = "2018-09-14 14:08:34 +0000";
layers = (
{
layerId = "94E4BE91-FC80-477F-8032-C50F6AA25321";
paths = (
{
closed = 1;
nodes = (
"102 681 OFFCURVE",
"102 603 OFFCURVE",
"60 525 CURVE",
"79 526 OFFCURVE",
"98 526 OFFCURVE",
"117 525 CURVE",
"159 603 OFFCURVE",
"165 681 OFFCURVE",
"163 759 CURVE",
"144 757 OFFCURVE",
"107 757 OFFCURVE",
"88 759 CURVE"
);
},
{
closed = 1;
nodes = (
"232 681 OFFCURVE",
"232 603 OFFCURVE",
"190 525 CURVE",
"209 526 OFFCURVE",
"228 526 OFFCURVE",
"247 525 CURVE",
"289 603 OFFCURVE",
"295 681 OFFCURVE",
"293 759 CURVE",
"274 757 OFFCURVE",
"237 757 OFFCURVE",
"218 759 CURVE"
);
}
);
width = 323;
},
{
layerId = "1E834396-7C72-44CF-B9BE-DF3A8E7FF23F";
paths = (
{
closed = 1;
nodes = (
"72 683 OFFCURVE",
"72 565 OFFCURVE",
"30 487 CURVE",
"49 488 OFFCURVE",
"138 488 OFFCURVE",
"157 487 CURVE",
"199 565 OFFCURVE",
"205 683 OFFCURVE",
"203 761 CURVE",
"184 759 OFFCURVE",
"77 759 OFFCURVE",
"58 761 CURVE"
);
},
{
closed = 1;
nodes = (
"272 683 OFFCURVE",
"272 565 OFFCURVE",
"230 487 CURVE",
"249 488 OFFCURVE",
"268 488 OFFCURVE",
"357 487 CURVE",
"399 565 OFFCURVE",
"405 683 OFFCURVE",
"403 761 CURVE",
"384 759 OFFCURVE",
"277 759 OFFCURVE",
"258 761 CURVE"
);
}
);
width = 433;
},
{
layerId = "0E4D5491-561A-4208-9CE2-EBBE0132EEC6";
width = 600;
}
);
unicode = 201D;
},
{
glyphname = quoteleft;
lastChange = "2018-09-14 14:08:48 +0000";
layers = (
{
layerId = "94E4BE91-FC80-477F-8032-C50F6AA25321";
paths = (
{
closed = 1;
nodes = (
"91 606 OFFCURVE",
"91 684 OFFCURVE",
"133 762 CURVE",
"114 761 OFFCURVE",
"95 761 OFFCURVE",
"76 762 CURVE",
"34 684 OFFCURVE",
"28 606 OFFCURVE",
"30 528 CURVE",
"49 530 OFFCURVE",
"86 530 OFFCURVE",
"105 528 CURVE"
);
}
);
width = 163;
},
{
layerId = "1E834396-7C72-44CF-B9BE-DF3A8E7FF23F";
paths = (
{
closed = 1;
nodes = (
"161 566 OFFCURVE",
"161 684 OFFCURVE",
"203 762 CURVE",
"184 761 OFFCURVE",
"165 761 OFFCURVE",
"76 762 CURVE",
"34 684 OFFCURVE",
"28 566 OFFCURVE",
"30 488 CURVE",
"49 490 OFFCURVE",
"156 490 OFFCURVE",
"175 488 CURVE"
);
}
);
width = 233;
},
{
layerId = "0E4D5491-561A-4208-9CE2-EBBE0132EEC6";
width = 600;
}
);
unicode = 2018;
},
{
glyphname = quoteright;
lastChange = "2018-09-14 14:09:00 +0000";
layers = (
{
layerId = "94E4BE91-FC80-477F-8032-C50F6AA25321";
paths = (
{
closed = 1;
nodes = (
"72 681 OFFCURVE",
"72 603 OFFCURVE",
"30 525 CURVE",
"49 526 OFFCURVE",
"68 526 OFFCURVE",
"87 525 CURVE",
"129 603 OFFCURVE",
"135 681 OFFCURVE",
"133 759 CURVE",
"114 757 OFFCURVE",
"77 757 OFFCURVE",
"58 759 CURVE"
);
}
);
width = 163;
},
{
layerId = "1E834396-7C72-44CF-B9BE-DF3A8E7FF23F";
paths = (
{
closed = 1;
nodes = (
"72 683 OFFCURVE",
"72 565 OFFCURVE",
"30 487 CURVE",
"49 488 OFFCURVE",
"68 488 OFFCURVE",
"157 487 CURVE",
"199 565 OFFCURVE",
"205 683 OFFCURVE",
"203 761 CURVE",
"184 759 OFFCURVE",
"77 759 OFFCURVE",
"58 761 CURVE"
);
}
);
width = 233;
},
{
layerId = "0E4D5491-561A-4208-9CE2-EBBE0132EEC6";
width = 600;
}
);
unicode = 2019;
},
{
glyphname = quotedbl;
lastChange = "2018-09-14 14:07:10 +0000";
layers = (
{
layerId = "94E4BE91-FC80-477F-8032-C50F6AA25321";
paths = (
{
closed = 1;
nodes = (
"34 683 OFFCURVE",
"36 605 OFFCURVE",
"34 527 CURVE",
"53 528 OFFCURVE",
"72 528 OFFCURVE",
"91 527 CURVE",
"93 605 OFFCURVE",
"97 683 OFFCURVE",
"105 761 CURVE",
"86 759 OFFCURVE",
"49 759 OFFCURVE",
"30 761 CURVE"
);
},
{
closed = 1;
nodes = (
"175 683 OFFCURVE",
"177 605 OFFCURVE",
"175 527 CURVE",
"194 528 OFFCURVE",
"213 528 OFFCURVE",
"232 527 CURVE",
"234 605 OFFCURVE",
"238 683 OFFCURVE",
"246 761 CURVE",
"227 759 OFFCURVE",
"190 759 OFFCURVE",
"171 761 CURVE"
);
}
);
width = 276;
},
{
layerId = "1E834396-7C72-44CF-B9BE-DF3A8E7FF23F";
paths = (
{
closed = 1;
nodes = (
"34 683 OFFCURVE",
"36 565 OFFCURVE",
"34 487 CURVE",
"53 488 OFFCURVE",
"142 488 OFFCURVE",
"161 487 CURVE",
"163 565 OFFCURVE",
"167 683 OFFCURVE",
"175 761 CURVE",
"156 759 OFFCURVE",
"49 759 OFFCURVE",
"30 761 CURVE"
);
},
{
closed = 1;
nodes = (
"245 683 OFFCURVE",
"247 565 OFFCURVE",
"245 487 CURVE",
"264 488 OFFCURVE",
"353 488 OFFCURVE",
"372 487 CURVE",
"374 565 OFFCURVE",
"378 683 OFFCURVE",
"386 761 CURVE",
"367 759 OFFCURVE",
"260 759 OFFCURVE",
"241 761 CURVE"
);
}
);
width = 416;
},
{
layerId = "0E4D5491-561A-4208-9CE2-EBBE0132EEC6";
width = 600;
}
);
unicode = 0022;
},
{
glyphname = quotesingle;
lastChange = "2018-09-14 14:07:20 +0000";
layers = (
{
hints = (
{
horizontal = 1;
place = "{730, -20}";
target = down;
type = TopGhost;
},
{
place = "{8, 95}";
type = Stem;
}
);
layerId = "94E4BE91-FC80-477F-8032-C50F6AA25321";
paths = (
{
closed = 1;
nodes = (
"34 683 OFFCURVE",
"36 605 OFFCURVE",
"34 527 CURVE",
"53 528 OFFCURVE",
"72 528 OFFCURVE",
"91 527 CURVE",
"93 605 OFFCURVE",
"97 683 OFFCURVE",
"105 761 CURVE",
"86 759 OFFCURVE",
"49 759 OFFCURVE",
"30 761 CURVE"
);
}
);
width = 135;
},
{
layerId = "1E834396-7C72-44CF-B9BE-DF3A8E7FF23F";
paths = (
{
closed = 1;
nodes = (
"34 683 OFFCURVE",
"36 565 OFFCURVE",
"34 487 CURVE",
"53 488 OFFCURVE",
"142 488 OFFCURVE",
"161 487 CURVE",
"163 565 OFFCURVE",
"167 683 OFFCURVE",
"175 761 CURVE",
"156 759 OFFCURVE",
"49 759 OFFCURVE",
"30 761 CURVE"
);
}
);
width = 205;
},
{
associatedMasterId = "94E4BE91-FC80-477F-8032-C50F6AA25321";
layerId = "9D8030CA-8A89-40D5-8186-0B08A255CDBC";
width = 600;
},
{
layerId = "0E4D5491-561A-4208-9CE2-EBBE0132EEC6";
width = 600;
}
);
note = quotesingle;
unicode = 0027;
},
{
glyphname = cent;
lastChange = "2018-09-05 22:20:32 +0000";
layers = (
{
layerId = "94E4BE91-FC80-477F-8032-C50F6AA25321";
paths = (
{
closed = 1;
nodes = (
"310 64 OFFCURVE",
"116 150 OFFCURVE",
"116 374 CURVE SMOOTH",
"116 599 OFFCURVE",
"310 686 OFFCURVE",
"406 686 CURVE SMOOTH",
"469 686 OFFCURVE",
"587 649 OFFCURVE",
"634 558 CURVE",
"655 568 OFFCURVE",
"676 578 OFFCURVE",
"699 590 CURVE",
"647 692 OFFCURVE",
"518 756 OFFCURVE",
"405 756 CURVE SMOOTH",
"227 756 OFFCURVE",
"42 592 OFFCURVE",
"42 376 CURVE SMOOTH",
"42 160 OFFCURVE",
"227 -7 OFFCURVE",
"405 -7 CURVE SMOOTH",
"516 -7 OFFCURVE",
"644 57 OFFCURVE",
"696 157 CURVE",
"678 173 OFFCURVE",
"660 190 OFFCURVE",
"642 208 CURVE",
"596 106 OFFCURVE",
"473 64 OFFCURVE",
"406 64 CURVE SMOOTH"
);
},
{
closed = 1;
nodes = (
"408 795 OFFCURVE",
"384 794 OFFCURVE",
"359 795 CURVE",
"362 547 OFFCURVE",
"362 198 OFFCURVE",
"359 -50 CURVE",
"384 -46 OFFCURVE",
"408 -44 OFFCURVE",
"433 -46 CURVE",
"430 203 OFFCURVE",
"430 551 OFFCURVE",
"433 800 CURVE"
);
}
);
width = 741;
},
{
layerId = "1E834396-7C72-44CF-B9BE-DF3A8E7FF23F";
width = 600;
},
{
layerId = "0E4D5491-561A-4208-9CE2-EBBE0132EEC6";
width = 600;
}
);
unicode = 00A2;
},
{
glyphname = currency;
lastChange = "2018-09-05 22:42:38 +0000";
layers = (
{
layerId = "94E4BE91-FC80-477F-8032-C50F6AA25321";
paths = (
{
closed = 1;
nodes = (
"37 193 OFFCURVE",
"196 53 OFFCURVE",
"353 53 CURVE SMOOTH",
"510 53 OFFCURVE",
"669 193 OFFCURVE",
"669 373 CURVE SMOOTH",
"669 547 OFFCURVE",
"525 691 OFFCURVE",
"353 691 CURVE SMOOTH",
"196 691 OFFCURVE",
"37 553 OFFCURVE",
"37 373 CURVE SMOOTH"
);
},
{
closed = 1;
nodes = (
"108 554 OFFCURVE",
"267 623 OFFCURVE",
"354 623 CURVE SMOOTH",
"447 623 OFFCURVE",
"598 554 OFFCURVE",
"598 371 CURVE SMOOTH",
"598 190 OFFCURVE",
"440 121 OFFCURVE",
"354 121 CURVE SMOOTH",
"267 121 OFFCURVE",
"108 190 OFFCURVE",
"108 371 CURVE SMOOTH"
);
},
{
closed = 1;
nodes = (
"477 133 LINE",
"580 -11 LINE",
"655 14 LINE",
"537 177 LINE"
);
},
{
closed = 1;
nodes = (
"227 616 LINE",
"128 756 LINE",
"53 731 LINE",
"167 573 LINE"
);
},
{
closed = 1;
nodes = (
"536 564 LINE",
"656 731 LINE",
"580 756 LINE",
"478 611 LINE"
);
},
{
closed = 1;
nodes = (
"172 179 LINE",
"54 14 LINE",
"129 -11 LINE",
"228 127 LINE"
);
}
);
width = 706;
},
{
layerId = "1E834396-7C72-44CF-B9BE-DF3A8E7FF23F";
width = 600;
},
{
layerId = "0E4D5491-561A-4208-9CE2-EBBE0132EEC6";
width = 600;
}
);
unicode = 00A4;
},
{
glyphname = dollar;
lastChange = "2018-09-05 22:00:10 +0000";
layers = (
{
layerId = "94E4BE91-FC80-477F-8032-C50F6AA25321";
paths = (
{
closed = 1;
nodes = (
"130 630 OFFCURVE",
"206 685 OFFCURVE",
"277 685 CURVE SMOOTH",
"335 685 OFFCURVE",
"394 648 OFFCURVE",
"416 595 CURVE",
"432 612 OFFCURVE",
"453 628 OFFCURVE",
"471 639 CURVE",
"437 714 OFFCURVE",
"357 755 OFFCURVE",
"275 755 CURVE SMOOTH",
"159 755 OFFCURVE",
"57 666 OFFCURVE",
"57 549 CURVE SMOOTH",
"57 348 OFFCURVE",
"429 385 OFFCURVE",
"429 200 CURVE SMOOTH",
"429 109 OFFCURVE",
"351 69 OFFCURVE",
"267 69 CURVE SMOOTH",
"197 69 OFFCURVE",
"117 93 OFFCURVE",
"85 161 CURVE",
"68 141 OFFCURVE",
"49 123 OFFCURVE",
"30 109 CURVE",
"74 30 OFFCURVE",
"184 -6 OFFCURVE",
"270 -6 CURVE SMOOTH",
"389 -6 OFFCURVE",
"503 73 OFFCURVE",
"503 198 CURVE SMOOTH",
"503 314 OFFCURVE",
"405 380 OFFCURVE",
"297 421 CURVE SMOOTH",
"235 444 OFFCURVE",
"130 486 OFFCURVE",
"130 556 CURVE SMOOTH"
);
},
{
closed = 1;
nodes = (
"289 795 OFFCURVE",
"265 794 OFFCURVE",
"240 795 CURVE",
"243 547 OFFCURVE",
"243 198 OFFCURVE",
"240 -50 CURVE",
"265 -46 OFFCURVE",
"289 -44 OFFCURVE",
"314 -46 CURVE",
"311 203 OFFCURVE",
"311 551 OFFCURVE",
"314 800 CURVE"
);
}
);
width = 533;
},
{
layerId = "1E834396-7C72-44CF-B9BE-DF3A8E7FF23F";
width = 600;
},
{
layerId = "0E4D5491-561A-4208-9CE2-EBBE0132EEC6";
width = 600;
}
);
unicode = 0024;
},
{
glyphname = euro;
lastChange = "2018-09-05 22:00:10 +0000";
layers = (
{
layerId = "94E4BE91-FC80-477F-8032-C50F6AA25321";
paths = (
{
closed = 1;
nodes = (
"348 64 OFFCURVE",
"154 150 OFFCURVE",
"154 374 CURVE SMOOTH",
"154 599 OFFCURVE",
"348 686 OFFCURVE",
"444 686 CURVE SMOOTH",
"507 686 OFFCURVE",
"625 649 OFFCURVE",
"672 558 CURVE",
"693 568 OFFCURVE",
"714 578 OFFCURVE",
"737 590 CURVE",
"685 692 OFFCURVE",
"556 756 OFFCURVE",
"443 756 CURVE SMOOTH",
"265 756 OFFCURVE",
"80 592 OFFCURVE",
"80 376 CURVE SMOOTH",
"80 160 OFFCURVE",
"265 -7 OFFCURVE",
"443 -7 CURVE SMOOTH",
"554 -7 OFFCURVE",
"682 57 OFFCURVE",
"734 157 CURVE",
"716 173 OFFCURVE",
"698 190 OFFCURVE",
"680 208 CURVE",
"634 106 OFFCURVE",
"511 64 OFFCURVE",
"444 64 CURVE SMOOTH"
);
},
{
closed = 1;
nodes = (
"61 299 OFFCURVE",
"52 276 OFFCURVE",
"42 252 CURVE",
"208 255 OFFCURVE",
"373 255 OFFCURVE",
"539 252 CURVE",
"544 276 OFFCURVE",
"552 299 OFFCURVE",
"564 323 CURVE",
"397 320 OFFCURVE",
"232 320 OFFCURVE",
"65 323 CURVE"
);
},
{
closed = 1;
nodes = (
"61 479 OFFCURVE",
"52 456 OFFCURVE",
"42 432 CURVE",
"208 435 OFFCURVE",
"373 435 OFFCURVE",
"539 432 CURVE",
"544 456 OFFCURVE",
"552 479 OFFCURVE",
"564 503 CURVE",
"397 500 OFFCURVE",
"232 500 OFFCURVE",
"65 503 CURVE"
);
}
);
width = 779;
},
{
layerId = "1E834396-7C72-44CF-B9BE-DF3A8E7FF23F";
width = 600;
},
{
layerId = "0E4D5491-561A-4208-9CE2-EBBE0132EEC6";
width = 600;
}
);
unicode = 20AC;
},
{
glyphname = sterling;
lastChange = "2018-09-05 22:00:10 +0000";
layers = (
{
layerId = "94E4BE91-FC80-477F-8032-C50F6AA25321";
paths = (
{
closed = 1;
nodes = (
"79 399 OFFCURVE",
"70 376 OFFCURVE",
"60 352 CURVE",
"226 355 OFFCURVE",
"311 355 OFFCURVE",
"477 352 CURVE",
"482 376 OFFCURVE",
"490 399 OFFCURVE",
"502 423 CURVE",
"335 420 OFFCURVE",
"250 420 OFFCURVE",
"83 423 CURVE"
);
},
{
closed = 1;
nodes = (
"492 70 LINE",
"414 70 OFFCURVE",
"172 71 OFFCURVE",
"172 71 CURVE SMOOTH",
"172 124 OFFCURVE",
"172 282 OFFCURVE",
"172 374 CURVE SMOOTH",
"172 456 OFFCURVE",
"174 515 OFFCURVE",
"174 565 CURVE SMOOTH",
"174 750 OFFCURVE",
"446 689 OFFCURVE",
"426 641 CURVE",
"486 687 LINE",
"427 805 OFFCURVE",
"99 782 OFFCURVE",
"99 567 CURVE SMOOTH",
"99 515 OFFCURVE",
"98 451 OFFCURVE",
"98 376 CURVE SMOOTH",
"98 273 OFFCURVE",
"98 38 OFFCURVE",
"98 0 CURVE SMOOTH",
"98 0 OFFCURVE",
"364 -1 OFFCURVE",
"466 -1 CURVE"
);
}
);
width = 544;
},
{
layerId = "1E834396-7C72-44CF-B9BE-DF3A8E7FF23F";
width = 600;
},
{
layerId = "0E4D5491-561A-4208-9CE2-EBBE0132EEC6";
width = 600;
}
);
unicode = 00A3;
},
{
glyphname = yen;
lastChange = "2018-09-05 22:00:10 +0000";
layers = (
{
layerId = "94E4BE91-FC80-477F-8032-C50F6AA25321";
paths = (
{
closed = 1;
nodes = (
"99 750 LINE",
"77 740 OFFCURVE",
"54 732 OFFCURVE",
"30 726 CURVE",
"295 323 LINE",
"575 726 LINE",
"551 731 OFFCURVE",
"528 739 OFFCURVE",
"506 750 CURVE",
"302 441 LINE"
);
},
{
closed = 1;
nodes = (
"261 425 LINE",
"264 283 OFFCURVE",
"264 142 OFFCURVE",
"261 0 CURVE",
"286 4 OFFCURVE",
"310 6 OFFCURVE",
"335 4 CURVE",
"332 146 OFFCURVE",
"332 288 OFFCURVE",
"335 430 CURVE"
);
},
{
closed = 1;
nodes = (
"67 144 OFFCURVE",
"59 121 OFFCURVE",
"49 97 CURVE",
"207 100 OFFCURVE",
"365 100 OFFCURVE",
"523 97 CURVE",
"528 121 OFFCURVE",
"536 144 OFFCURVE",
"547 168 CURVE",
"388 165 OFFCURVE",
"230 165 OFFCURVE",
"71 168 CURVE"
);
},
{
closed = 1;
nodes = (
"67 364 OFFCURVE",
"59 341 OFFCURVE",
"49 317 CURVE",
"207 320 OFFCURVE",
"365 320 OFFCURVE",
"523 317 CURVE",
"528 341 OFFCURVE",
"536 364 OFFCURVE",
"547 388 CURVE",
"388 385 OFFCURVE",
"230 385 OFFCURVE",
"71 388 CURVE"
);
}
);
width = 600;
},
{
layerId = "1E834396-7C72-44CF-B9BE-DF3A8E7FF23F";
width = 600;
},
{
layerId = "0E4D5491-561A-4208-9CE2-EBBE0132EEC6";
width = 600;
}
);
unicode = 00A5;
},
{
glyphname = plus;
lastChange = "2018-09-05 22:00:10 +0000";
layers = (
{
layerId = "94E4BE91-FC80-477F-8032-C50F6AA25321";
paths = (
{
closed = 1;
nodes = (
"48 392 OFFCURVE",
"40 369 OFFCURVE",
"30 345 CURVE",
"188 350 OFFCURVE",
"346 350 OFFCURVE",
"504 345 CURVE",
"509 369 OFFCURVE",
"517 392 OFFCURVE",
"528 416 CURVE",
"369 411 OFFCURVE",
"211 411 OFFCURVE",
"52 416 CURVE"
);
},
{
closed = 1;
nodes = (
"309 305 OFFCURVE",
"309 467 OFFCURVE",
"314 629 CURVE",
"290 618 OFFCURVE",
"267 610 OFFCURVE",
"243 605 CURVE",
"248 444 OFFCURVE",
"248 282 OFFCURVE",
"243 121 CURVE",
"267 132 OFFCURVE",
"290 140 OFFCURVE",
"314 143 CURVE"
);
}
);
width = 558;
},
{
layerId = "1E834396-7C72-44CF-B9BE-DF3A8E7FF23F";
width = 600;
},
{
layerId = "0E4D5491-561A-4208-9CE2-EBBE0132EEC6";
width = 600;
}
);
unicode = 002B;
},
{
glyphname = minus;
lastChange = "2018-09-05 22:00:10 +0000";
layers = (
{
layerId = "94E4BE91-FC80-477F-8032-C50F6AA25321";
paths = (
{
closed = 1;
nodes = (
"48 392 OFFCURVE",
"40 369 OFFCURVE",
"30 345 CURVE",
"188 347 OFFCURVE",
"346 347 OFFCURVE",
"504 345 CURVE",
"509 369 OFFCURVE",
"517 392 OFFCURVE",
"528 416 CURVE",
"369 414 OFFCURVE",
"211 414 OFFCURVE",
"52 416 CURVE"
);
}
);
width = 558;
},
{
layerId = "1E834396-7C72-44CF-B9BE-DF3A8E7FF23F";
width = 600;
},
{
layerId = "0E4D5491-561A-4208-9CE2-EBBE0132EEC6";
width = 600;
}
);
unicode = 2212;
},
{
glyphname = multiply;
lastChange = "2018-09-05 22:00:10 +0000";
layers = (
{
layerId = "94E4BE91-FC80-477F-8032-C50F6AA25321";
paths = (
{
closed = 1;
nodes = (
"84 539 OFFCURVE",
"62 528 OFFCURVE",
"38 518 CURVE",
"153 410 OFFCURVE",
"265 298 OFFCURVE",
"373 183 CURVE",
"394 196 OFFCURVE",
"416 207 OFFCURVE",
"441 216 CURVE",
"325 325 OFFCURVE",
"213 437 OFFCURVE",
"104 553 CURVE"
);
},
{
closed = 1;
nodes = (
"207 293 OFFCURVE",
"322 407 OFFCURVE",
"440 518 CURVE",
"415 527 OFFCURVE",
"393 538 OFFCURVE",
"373 551 CURVE",
"262 434 OFFCURVE",
"148 320 OFFCURVE",
"30 209 CURVE",
"55 200 OFFCURVE",
"77 189 OFFCURVE",
"96 175 CURVE"
);
}
);
width = 471;
},
{
layerId = "1E834396-7C72-44CF-B9BE-DF3A8E7FF23F";
width = 600;
},
{
layerId = "0E4D5491-561A-4208-9CE2-EBBE0132EEC6";
width = 600;
}
);
unicode = 00D7;
},
{
glyphname = divide;
lastChange = "2018-09-05 22:00:10 +0000";
layers = (
{
layerId = "94E4BE91-FC80-477F-8032-C50F6AA25321";
paths = (
{
closed = 1;
nodes = (
"48 392 OFFCURVE",
"40 369 OFFCURVE",
"30 345 CURVE",
"188 347 OFFCURVE",
"346 347 OFFCURVE",
"504 345 CURVE",
"509 369 OFFCURVE",
"517 392 OFFCURVE",
"528 416 CURVE",
"369 414 OFFCURVE",
"211 414 OFFCURVE",
"52 416 CURVE"
);
},
{
closed = 1;
nodes = (
"232 147 OFFCURVE",
"260 129 OFFCURVE",
"283 129 CURVE",
"306 129 OFFCURVE",
"335 147 OFFCURVE",
"335 180 CURVE",
"335 213 OFFCURVE",
"306 232 OFFCURVE",
"283 232 CURVE",
"260 232 OFFCURVE",
"232 213 OFFCURVE",
"232 180 CURVE"
);
},
{
closed = 1;
nodes = (
"232 544 OFFCURVE",
"260 526 OFFCURVE",
"283 526 CURVE",
"306 526 OFFCURVE",
"335 544 OFFCURVE",
"335 577 CURVE",
"335 610 OFFCURVE",
"306 629 OFFCURVE",
"283 629 CURVE",
"260 629 OFFCURVE",
"232 610 OFFCURVE",
"232 577 CURVE"
);
}
);
width = 558;
},
{
layerId = "1E834396-7C72-44CF-B9BE-DF3A8E7FF23F";
width = 600;
},
{
layerId = "0E4D5491-561A-4208-9CE2-EBBE0132EEC6";
width = 600;
}
);
unicode = 00F7;
},
